<svg width="153" height="34" viewBox="0 0 153 34" fill="none" xmlns="http://www.w3.org/2000/svg"> <path fill-rule="evenodd" clip-rule="evenodd" d="M56.4195 12.5423C57.3771 13.7002 58.0027 15.0871 58.2319 16.5602C58.4081 17.6763 58.3514 18.8157 58.0652 19.9097C57.7791 21.0037 57.2694 22.0295 56.5671 22.9252L56.567 22.9253C56.2081 23.374 55.8492 23.8227 55.5056 24.2714C55.02 24.8811 54.7517 25.6299 54.7419 26.4031C54.7414 28.0866 54.1406 29.7172 53.0433 31.0131C51.9459 32.3091 50.421 33.189 48.7317 33.501C48.465 33.5843 48.1869 33.6272 47.9069 33.6281H38.4449C38.1859 33.6238 37.9287 33.5835 37.6812 33.5084C35.9718 33.2179 34.4218 32.346 33.3043 31.0463C32.1867 29.7465 31.5732 28.1023 31.5718 26.4031C31.5619 25.6299 31.2937 24.8811 30.8081 24.2714C30.4492 23.8152 30.0979 23.3739 29.8153 23.0299C28.4913 21.4022 27.8327 19.3505 27.9674 17.2737C28.1022 15.1968 29.0208 13.2433 30.5446 11.7929C32.0683 10.3425 34.0884 9.49899 36.2119 9.42627C38.3355 9.35355 40.4107 10.0569 42.0342 11.3995C42.3434 11.6566 42.7359 11.7978 43.1416 11.7978C43.5472 11.7978 43.9397 11.6566 44.2489 11.3995C45.4138 10.4408 46.8183 9.80324 48.3181 9.55228C49.8179 9.30132 51.3589 9.44602 52.7827 9.9715C54.2065 10.497 55.4618 11.3843 56.4195 12.5423ZM43.354 26.9565C46.5443 26.9565 49.1304 24.3703 49.1304 21.1801C49.1304 17.9898 46.5443 15.4037 43.354 15.4037C40.1638 15.4037 37.5776 17.9898 37.5776 21.1801C37.5776 24.3703 40.1638 26.9565 43.354 26.9565Z" fill="#05A845"></path> <path d="M33.0991 15.2812C32.8854 15.2842 32.6757 15.2244 32.497 15.1096C32.3183 14.9948 32.1788 14.8301 32.0966 14.6369C32.0144 14.4437 31.9933 14.2308 32.0358 14.0256C32.0784 13.8205 32.1827 13.6326 32.3354 13.4861C33.4423 12.4285 34.9282 11.8378 36.4746 11.8407C36.6221 11.8284 36.7705 11.8463 36.9106 11.8932C37.0506 11.94 37.1792 12.0149 37.2882 12.113C37.3972 12.2111 37.4842 12.3302 37.5438 12.463C37.6033 12.5957 37.634 12.7391 37.634 12.884C37.634 13.029 37.6033 13.1724 37.5438 13.3051C37.4842 13.4378 37.3972 13.557 37.2882 13.6551C37.1792 13.7531 37.0506 13.828 36.9106 13.8749C36.7705 13.9217 36.6221 13.9396 36.4746 13.9274C35.4877 13.9313 34.5408 14.3093 33.8322 14.982C33.637 15.1715 33.374 15.2789 33.0991 15.2812Z" fill="#015132"></path> <path d="M31.633 18.6843C31.3494 18.6843 31.0775 18.574 30.877 18.3776C30.6765 18.1813 30.5638 17.9149 30.5638 17.6372C30.5562 17.5851 30.5562 17.5322 30.5638 17.4801C30.5963 17.2156 30.7304 16.9731 30.939 16.8021C31.1476 16.631 31.415 16.5443 31.6866 16.5596C31.9582 16.5748 32.2136 16.6909 32.4009 16.8842C32.5882 17.0775 32.6932 17.3334 32.6945 17.5998V17.6447C32.6925 17.9198 32.58 18.1831 32.3814 18.3777C32.1827 18.5722 31.9139 18.6824 31.633 18.6843Z" fill="#015132"></path> <path d="M37.8859 6.09437C37.5474 5.07523 37.4862 3.97871 37.709 2.92571C37.9319 1.87271 38.4301 0.904138 39.1487 0.126778C39.1876 0.0830698 39.2356 0.0490706 39.2889 0.0273169C39.3423 0.00556314 39.3997 -0.0033834 39.4568 0.00114422C40.3716 0.132665 41.2411 0.49603 41.989 1.05923C42.7368 1.62243 43.3399 2.36819 43.7452 3.2308C44.1505 4.09341 44.3456 5.04641 44.3132 6.00585C44.2808 6.96529 44.0219 7.90173 43.5595 8.73267C43.2721 9.2324 43.0793 9.78463 42.9915 10.3596C42.9845 10.4084 42.9648 10.4543 42.9345 10.4923C42.9043 10.5303 42.8645 10.5589 42.8197 10.5751C42.7749 10.5913 42.7266 10.5944 42.6802 10.5841C42.6338 10.5738 42.591 10.5505 42.5565 10.5167C42.1445 10.1216 41.6621 9.81431 41.1366 9.61211C40.3833 9.30321 39.703 8.82905 39.142 8.22199C38.581 7.61492 38.1526 6.88922 37.8859 6.09437Z" fill="#015132"></path> <path d="M13.0833 24.8176H18.8427C18.6429 25.3333 18.3766 25.8154 18.0437 26.2639C17.733 26.7124 17.3557 27.1048 16.9118 27.4411C16.4679 27.7551 15.9464 28.0017 15.3471 28.1811C14.7479 28.3381 14.0599 28.4166 13.2831 28.4166C11.9958 28.4166 10.864 28.1363 9.88742 27.5757C8.91088 27.0151 8.14519 26.2078 7.59034 25.1539C7.03549 24.0776 6.75807 22.8107 6.75807 21.3532C6.75807 19.8732 7.04659 18.6287 7.62363 17.6197C8.22287 16.6106 9.01075 15.8482 9.98729 15.3325C10.986 14.8167 12.0846 14.5589 13.2831 14.5589C14.526 14.5589 15.5358 14.8504 16.3126 15.4334C17.0894 16.0164 17.7108 16.7339 18.1769 17.586L24.0694 14.727C23.3148 13.6283 22.427 12.6529 21.4061 11.8008C20.3852 10.9263 19.1978 10.2423 17.844 9.74903C16.5123 9.23329 14.992 8.97542 13.2831 8.97542C11.3966 8.97542 9.64328 9.26693 8.02312 9.84994C6.40296 10.4105 4.99365 11.2402 3.79517 12.3389C2.5967 13.4153 1.66455 14.7158 0.998729 16.2406C0.33291 17.7654 0 19.4696 0 21.3532C0 23.2367 0.321813 24.9633 0.965438 26.533C1.60906 28.0802 2.50792 29.4144 3.66201 30.5356C4.83829 31.6343 6.21431 32.4864 7.79009 33.0919C9.38805 33.6973 11.1303 34 13.0168 34C15.0586 34 16.8674 33.6412 18.4432 32.9237C20.019 32.1837 21.3284 31.1746 22.3715 29.8965C23.4146 28.6184 24.1803 27.1272 24.6686 25.423C25.1569 23.7188 25.3233 21.9025 25.168 19.9741H13.0833V24.8176Z" fill="#05A845"></path> <path d="M66.1868 15.1307H76.6069V9.58085H66.1868V15.1307ZM66.1868 24.2794H76.274V19.1332H66.1868V24.2794ZM61.7924 9.58085V33.1255H67.9845V9.58085H61.7924Z" fill="#05A845"></path> <path d="M82.5001 29.3247H94.8178L94.6514 24.5149H82.6999L82.5001 29.3247ZM88.5924 19.2342L91.6885 26.2975L91.3223 27.9793L93.9855 33.1255H101.31L88.5924 8L75.9085 33.1255H83.2326L85.9291 27.7439L85.5296 26.2975L88.5924 19.2342Z" fill="#05A845"></path> <path d="M109.893 22.7322L116.019 33.1255H123.542L116.551 22.7322H109.893ZM103.601 9.58085V33.1255H110.06V9.58085H103.601ZM107.729 15.097H112.224C112.912 15.097 113.489 15.1979 113.955 15.3997C114.421 15.6016 114.776 15.9043 115.02 16.3079C115.286 16.6891 115.419 17.16 115.419 17.7206C115.419 18.2812 115.286 18.7633 115.02 19.1669C114.776 19.5705 114.421 19.8732 113.955 20.075C113.489 20.2768 112.912 20.3777 112.224 20.3777H107.729V25.3221H112.756C114.887 25.3221 116.64 24.997 118.016 24.3467C119.414 23.674 120.446 22.7434 121.112 21.555C121.8 20.3441 122.144 18.9763 122.144 17.4515C122.144 15.9043 121.8 14.5477 121.112 13.3816C120.446 12.1932 119.414 11.2626 118.016 10.5899C116.64 9.91721 114.887 9.58085 112.756 9.58085H107.729V15.097Z" fill="#05A845"></path> <path d="M132.826 22.295L138.818 30.9392L144.844 22.295L146.142 33.1255H153L148.972 8.40362L138.818 21.9586L128.698 8.40362L124.669 33.1255H131.527L132.826 22.295Z" fill="#05A845"></path> </svg>