<svg width="34" height="38" viewBox="0 0 34 38" fill="none" xmlns="http://www.w3.org/2000/svg">
<path d="M17 33.3412C8.04995 33.3412 0.745151 27.2508 0.717551 19.7651C0.716017 19.5612 0.797284 19.3649 0.941417 19.2208C1.08555 19.0766 1.28182 18.9954 1.48422 18.9954H32.5158C32.7197 18.9954 32.916 19.0766 33.0586 19.2208C33.2012 19.3649 33.2825 19.5612 33.2825 19.7651C33.2549 27.2508 25.9501 33.3412 17 33.3412ZM2.28308 20.5287C2.79215 26.8154 9.20762 31.8064 17 31.8064C24.7924 31.8064 31.2079 26.8138 31.7169 20.5287H2.28308Z" fill="#05A845"></path>
<path d="M23.0704 37.1899H10.9356C10.5124 37.1899 10.1689 36.8465 10.1689 36.4233V31.7205C10.1689 31.2973 10.5124 30.9539 10.9356 30.9539H11.4799C11.5597 30.9539 11.6379 30.9661 11.7115 30.9891C15.1293 32.0747 18.8691 32.0747 22.2884 30.9891C22.3635 30.9646 22.4417 30.9539 22.5199 30.9539H23.0674C23.4906 30.9539 23.834 31.2973 23.834 31.7205V36.4233C23.8371 36.848 23.4936 37.1899 23.0704 37.1899ZM11.7023 35.6566H22.3037V32.5884C18.8599 33.5866 15.14 33.5881 11.7023 32.5884V35.6566Z" fill="#05A845"></path>
<path d="M29.3771 20.1132C28.9539 20.1132 28.6104 19.7697 28.6104 19.3465C28.6104 12.9464 23.4032 7.73921 17 7.73921C10.5999 7.73921 5.39271 12.9464 5.39271 19.3465C5.39271 19.7697 5.04924 20.1132 4.62604 20.1132C4.20284 20.1132 3.85938 19.7697 3.85938 19.3465C3.85938 12.1 9.75504 6.20587 17 6.20587C24.2481 6.20587 30.1438 12.1015 30.1438 19.3465C30.1438 19.7697 29.8018 20.1132 29.3771 20.1132Z" fill="#05A845"></path>
<path d="M23.2882 14.4076C23.144 14.2574 22.8466 14.1347 22.6365 14.1347C22.1489 14.1347 21.7502 14.5349 21.7502 15.0271C21.7502 15.5193 22.1489 15.9195 22.6365 15.9195H22.6426C22.8849 15.9195 23.121 15.8198 23.2897 15.6435C23.4185 15.5086 23.5258 15.2448 23.535 15.0578C23.5442 14.8186 23.4538 14.5809 23.2882 14.4076Z" fill="#05A845"></path>
<path d="M18.8785 14.1347C18.3863 14.1347 17.9861 14.5349 17.9861 15.0271C17.9861 15.5086 18.3679 15.9026 18.854 15.921C18.8632 15.921 18.8739 15.921 18.8846 15.921C19.1269 15.921 19.363 15.8214 19.5302 15.645C19.6758 15.4948 19.7847 15.2034 19.777 14.9949C19.7556 14.5134 19.3646 14.1347 18.8785 14.1347Z" fill="#05A845"></path>
<path d="M15.7689 14.4076C15.6232 14.2574 15.3227 14.1347 15.1141 14.1347C14.8734 14.1347 14.6373 14.2344 14.4717 14.4092C14.3352 14.5518 14.2263 14.8262 14.2263 15.024C14.2263 15.5193 14.6281 15.9226 15.1218 15.9226C15.3641 15.9226 15.6002 15.8229 15.7673 15.6481C15.8961 15.5132 16.005 15.2448 16.0142 15.0578C16.0234 14.817 15.9344 14.5809 15.7689 14.4076Z" fill="#05A845"></path>
<path d="M11.3604 14.1317C10.8682 14.1317 10.468 14.5334 10.468 15.0271C10.468 15.5209 10.8682 15.9226 11.3604 15.9226C11.8419 15.9226 12.2359 15.5408 12.2559 15.0256C12.2559 14.5334 11.8557 14.1317 11.3604 14.1317Z" fill="#05A845"></path>
<path d="M20.1173 10.6694C19.9808 10.812 19.8689 11.0942 19.8689 11.292C19.8689 11.7627 20.2277 12.1476 20.703 12.1859C20.7245 12.1874 20.7429 12.1874 20.7644 12.1874C21.2566 12.1874 21.6568 11.7842 21.6568 11.2567C21.6261 10.5299 20.6187 10.1466 20.1173 10.6694Z" fill="#05A845"></path>
<path d="M17.6473 10.6694C17.5016 10.5176 17.2041 10.398 16.9956 10.398C16.5249 10.398 16.1262 10.7844 16.1047 11.2935C16.1047 11.7857 16.5049 12.1859 16.9956 12.1859H17.0063C17.2455 12.1859 17.4801 12.0877 17.6457 11.9145C17.7745 11.7795 17.8834 11.5097 17.8926 11.3226C17.9018 11.0803 17.8129 10.8427 17.6473 10.6694Z" fill="#05A845"></path>
<path d="M13.8859 10.6709C13.7418 10.5191 13.4458 10.398 13.2373 10.398C12.7466 10.398 12.3464 10.7997 12.3464 11.2935C12.3464 11.7872 12.7482 12.1889 13.2419 12.1889C13.2526 12.1889 13.2649 12.1889 13.2741 12.1889C13.7556 12.1675 14.1343 11.7749 14.1343 11.3272C14.1435 11.0834 14.053 10.8457 13.8859 10.6709Z" fill="#05A845"></path>
<path d="M24.2679 10.1082C24.1683 10.1082 24.0655 10.0882 23.9674 10.0468C23.5779 9.88125 23.397 9.43045 23.5626 9.04098L26.8715 1.27618C27.0356 0.886714 27.4849 0.705781 27.8774 0.871381C28.2669 1.03698 28.4478 1.48778 28.2822 1.87725L24.9733 9.64205C24.8491 9.93338 24.5669 10.1082 24.2679 10.1082Z" fill="#05A845"></path>
<path d="M27.0449 12.8866C26.8639 12.8866 26.683 12.8222 26.5373 12.6949C26.2199 12.4143 26.1893 11.9298 26.4714 11.6124L31.0269 6.46499C31.3075 6.14759 31.7921 6.11846 32.1079 6.39906C32.4253 6.67966 32.456 7.16419 32.1739 7.48159L27.6183 12.629C27.4665 12.7992 27.2549 12.8866 27.0449 12.8866Z" fill="#05A845"></path>
<path d="M31.513 25.0413H2.49616C2.07296 25.0413 1.72949 24.6979 1.72949 24.2747C1.72949 23.8515 2.07296 23.508 2.49616 23.508H31.513C31.9362 23.508 32.2796 23.8515 32.2796 24.2747C32.2796 24.6979 31.9362 25.0413 31.513 25.0413Z" fill="#05A845"></path>
</svg>