<svg width="34" height="38" viewBox="0 0 34 38" fill="none" xmlns="http://www.w3.org/2000/svg">
<path d="M3.7642 13.6058C2.70006 13.6058 1.6942 13.1902 0.935195 12.4358C0.708262 12.2104 0.645395 11.8639 0.778795 11.5726C1.32773 10.3827 2.42253 9.53016 3.71053 9.29556C5.04453 9.05636 6.32793 9.47956 7.2556 10.4042C7.48253 10.6311 7.5454 10.9761 7.412 11.2674C6.86613 12.4573 5.7698 13.3083 4.4818 13.5429C4.238 13.5874 3.9988 13.6058 3.7642 13.6058ZM2.47926 11.7136C2.98526 12.0234 3.5848 12.146 4.20733 12.0341C4.80686 11.9252 5.34046 11.5971 5.71153 11.1264C5.204 10.8136 4.59526 10.6955 3.98346 10.8044C3.38393 10.9148 2.85033 11.2414 2.47926 11.7136Z" fill="#05A845"></path>
<path d="M32.3884 37.239C27.3392 37.239 23.1823 36.0047 16.8726 29.6981C10.3345 23.1584 6.12088 15.7601 6.13775 10.8488C6.13928 10.4271 6.48121 10.0867 6.90135 10.0852C11.8371 10.0852 19.2232 14.2988 25.7491 20.8201C32.7411 27.8136 33.3054 32.2158 33.29 36.4754C33.2885 36.8955 32.9466 37.2375 32.5264 37.239C32.5249 37.239 32.39 37.239 32.3884 37.239ZM7.70941 11.6569C8.14335 16.1342 12.1484 22.8042 17.9567 28.614C24.1713 34.8255 27.9571 35.6321 31.7521 35.7011C31.6816 31.8938 30.8321 28.0727 24.665 21.9041C18.8552 16.0974 12.1821 12.0908 7.70941 11.6569Z" fill="#05A845"></path>
<path d="M13.6418 20.1822C12.9502 20.1822 12.2986 19.9123 11.8094 19.4232C11.3203 18.9356 11.0489 18.2855 11.0474 17.5939C11.0474 16.8993 11.3188 16.2461 11.8094 15.7555C12.7892 14.7757 14.4958 14.7757 15.4756 15.7555C15.9663 16.2461 16.2362 16.8978 16.2362 17.5909C16.2362 18.2839 15.9648 18.9341 15.4756 19.4232C14.9865 19.9123 14.3333 20.1822 13.6418 20.1822ZM13.6418 16.5283C13.3581 16.5283 13.0944 16.6387 12.8935 16.838C12.6911 17.0404 12.5807 17.3072 12.5807 17.5893C12.5822 17.873 12.6911 18.1367 12.892 18.3361C13.2968 18.7378 13.9898 18.7363 14.3916 18.3376C14.5924 18.1367 14.7028 17.8715 14.7028 17.5893C14.7028 17.3041 14.5924 17.0389 14.3916 16.838C14.1892 16.6387 13.9239 16.5283 13.6418 16.5283Z" fill="#05A845"></path>
<path d="M16.5091 23.4497C15.7087 23.4497 14.9543 23.1385 14.39 22.5727C13.8242 22.0084 13.5129 21.2571 13.5129 20.4567C13.5129 19.6563 13.8242 18.9034 14.39 18.3376C15.5216 17.206 17.4965 17.206 18.6297 18.3376C19.1955 18.9034 19.5067 19.6563 19.5067 20.4567C19.5067 21.2571 19.1955 22.0084 18.6297 22.5727C18.0623 23.1385 17.3095 23.4497 16.5091 23.4497ZM16.5091 18.9939C16.1181 18.9939 15.7501 19.1472 15.4741 19.4217C15.1981 19.6992 15.0463 20.0657 15.0463 20.4567C15.0463 20.8461 15.1996 21.2126 15.4741 21.4886C16.0276 22.0421 16.9905 22.0421 17.5456 21.4886C17.8216 21.2126 17.9734 20.8461 17.9734 20.4567C17.9734 20.0657 17.8201 19.6992 17.5456 19.4217C17.2681 19.1472 16.9016 18.9939 16.5091 18.9939Z" fill="#05A845"></path>
<path d="M27.1397 33.6802C26.4482 33.6802 25.7965 33.4103 25.3074 32.9242C24.8167 32.4305 24.5469 31.7788 24.5469 31.0873C24.5469 30.3927 24.8167 29.741 25.3074 29.2534C26.2841 28.2736 27.9953 28.2706 28.9751 29.2565C29.9841 30.2608 29.9856 31.9076 28.9751 32.9227C28.4814 33.4103 27.8313 33.6802 27.1397 33.6802ZM27.1397 30.0247C26.8561 30.0247 26.5908 30.1351 26.3899 30.3375C26.1891 30.5368 26.0802 30.8021 26.0802 31.0858C26.0802 31.3694 26.1906 31.6362 26.3915 31.8386C26.7871 32.2296 27.4893 32.2358 27.8911 31.8356C28.3035 31.4216 28.3051 30.7484 27.8911 30.3375C27.6887 30.1366 27.4219 30.0247 27.1397 30.0247Z" fill="#05A845"></path>
<path d="M24.2711 31.2161C23.4722 31.2161 22.7178 30.9048 22.152 30.339C20.9851 29.1706 20.9851 27.2693 22.152 26.1009C23.2836 24.9693 25.257 24.9693 26.3901 26.1009C27.5585 27.2693 27.5585 29.1706 26.3901 30.339C25.8243 30.9048 25.0715 31.2161 24.2711 31.2161ZM24.2711 26.7572C23.8801 26.7572 23.5136 26.909 23.2361 27.185C22.6672 27.7554 22.6672 28.6846 23.2361 29.255C23.7896 29.8054 24.751 29.8054 25.3061 29.255C25.8765 28.6846 25.8765 27.7554 25.3061 27.185C25.0285 26.9074 24.6621 26.7572 24.2711 26.7572Z" fill="#05A845"></path>
<path d="M20.1785 27.8535C19.1833 27.8535 18.2465 27.4656 17.5442 26.7618C16.8389 26.0564 16.4509 25.1211 16.4509 24.1244C16.4509 23.1278 16.8389 22.1909 17.5442 21.4871C18.9518 20.0795 21.4067 20.0795 22.8143 21.4871C24.2679 22.9422 24.2663 25.3082 22.8143 26.7602C22.1105 27.4656 21.1751 27.8535 20.1785 27.8535ZM20.1785 21.9318C19.5927 21.9318 19.0423 22.1587 18.6283 22.5727C18.2127 22.9882 17.9843 23.5387 17.9843 24.126C17.9843 24.7117 18.2127 25.2637 18.6283 25.6792C19.4547 26.5088 20.8991 26.5088 21.7287 25.6792C22.5843 24.8236 22.5843 23.4298 21.7287 22.5742C21.3147 22.1602 20.7657 21.9318 20.1785 21.9318Z" fill="#05A845"></path>
<path d="M7.09765 11.8102C6.90139 11.8102 6.70512 11.7351 6.55485 11.5864C4.00645 9.03949 4.00645 4.89183 6.55485 2.33883C8.65245 0.244293 12.0687 0.238159 14.1694 2.33883C15.0127 3.18369 15.4773 4.30456 15.4773 5.49749C15.4773 6.69042 15.0127 7.80823 14.1694 8.65003C12.7649 10.0546 10.31 10.0576 8.90545 8.65003C8.60645 8.35103 8.60645 7.86496 8.90545 7.56596C9.20445 7.26696 9.69052 7.26696 9.98952 7.56596C10.816 8.39703 12.2589 8.39396 13.0853 7.56596C13.6389 7.01396 13.944 6.27949 13.944 5.49749C13.944 4.71396 13.6389 3.97796 13.0853 3.42289C11.5842 1.92176 9.14006 1.92329 7.63892 3.42289C5.68852 5.37636 5.68852 8.55343 7.63892 10.5023C7.93792 10.8013 7.93792 11.2874 7.63892 11.5864C7.49019 11.7351 7.29392 11.8102 7.09765 11.8102Z" fill="#05A845"></path>
</svg>