<svg width="38" height="38" viewBox="0 0 38 38" fill="none" xmlns="http://www.w3.org/2000/svg">
<path d="M3.15542 24.2624C1.47795 24.2624 0.113281 22.8947 0.113281 21.2157V12.3714C0.113281 11.9482 0.456748 11.6047 0.879948 11.6047C1.30315 11.6047 1.64661 11.9482 1.64661 12.3714V21.2157C1.64661 22.0498 2.32282 22.7291 3.15542 22.7291C3.98802 22.7291 4.66575 22.0498 4.66575 21.2157V17.804C4.66575 16.1265 6.03195 14.7619 7.70788 14.7619C9.38842 14.7619 10.7531 16.1265 10.7531 17.804V19.1104C10.7531 19.943 11.4293 20.6192 12.2619 20.6192C13.096 20.6192 13.7738 19.943 13.7738 19.1104V17.804C13.7738 16.1265 15.1384 14.7619 16.8144 14.7619C18.4949 14.7619 19.8596 16.1265 19.8596 17.804V20.5349C19.8596 20.9581 19.5161 21.3015 19.0929 21.3015C18.6697 21.3015 18.3262 20.9581 18.3262 20.5349V17.804C18.3262 16.9714 17.6485 16.2952 16.8144 16.2952C15.9833 16.2952 15.3071 16.9714 15.3071 17.804V19.1104C15.3071 20.7879 13.9409 22.1525 12.2619 22.1525C10.5844 22.1525 9.21975 20.7879 9.21975 19.1104V17.804C9.21975 16.9714 8.54202 16.2952 7.70788 16.2952C6.87528 16.2952 6.19908 16.9714 6.19908 17.804V21.2157C6.19908 22.8947 4.83442 24.2624 3.15542 24.2624Z" fill="#05A845"></path>
<path d="M15.8039 29.3501H4.19655C1.94408 29.3501 0.113281 27.5177 0.113281 25.2668V10.5115C0.113281 5.05898 4.54921 0.623047 10.0002 0.623047C15.4512 0.623047 19.8871 5.05898 19.8871 10.5115V25.2668C19.8871 27.5177 18.0563 29.3501 15.8039 29.3501ZM10.0002 2.15638C5.39408 2.15638 1.64661 5.90385 1.64661 10.5115V25.2668C1.64661 26.6729 2.79048 27.8167 4.19655 27.8167H15.8039C17.2099 27.8167 18.3538 26.6729 18.3538 25.2668V10.5115C18.3538 5.90385 14.6063 2.15638 10.0002 2.15638Z" fill="#05A845"></path>
<path d="M9.99988 37.377C8.24268 37.377 6.81055 35.9464 6.81055 34.1877V28.5833C6.81055 28.1601 7.15401 27.8167 7.57721 27.8167H12.4225C12.8457 27.8167 13.1892 28.1601 13.1892 28.5833V34.1877C13.1892 35.9464 11.7571 37.377 9.99988 37.377ZM8.34388 29.35V34.1877C8.34388 35.1015 9.08601 35.8437 9.99988 35.8437C10.9137 35.8437 11.6559 35.1015 11.6559 34.1877V29.35H8.34388Z" fill="#05A845"></path>
</svg>