<svg width="38" height="38" viewBox="0 0 38 38" fill="none" xmlns="http://www.w3.org/2000/svg">
<path d="M16.6971 37.2804C7.88806 37.2804 0.719727 30.1151 0.719727 21.3061C0.719727 12.5324 7.85739 5.36558 16.6311 5.33185C16.8197 5.36098 17.0298 5.41158 17.1739 5.55571C17.3196 5.69985 17.3993 5.89611 17.3993 6.09851V20.6974H31.8939C32.0994 20.6974 32.2957 20.7786 32.4383 20.9243C32.5824 21.07 32.6621 21.2662 32.6606 21.4717C32.5717 30.1902 25.4095 37.2804 16.6971 37.2804ZM15.8675 6.88972C8.29286 7.32058 2.25306 13.6333 2.25306 21.3076C2.25306 29.2702 8.73293 35.7486 16.6971 35.7486C24.3131 35.7486 30.6182 29.7548 31.1012 22.2338H16.6342C16.211 22.2338 15.8675 21.8903 15.8675 21.4671V6.88972Z" fill="#05A845"></path>
<path d="M16.6938 32.6727C10.4256 32.6727 5.32568 27.5744 5.32568 21.3076C5.32568 15.0654 10.4041 9.9671 16.6494 9.94257C16.8196 9.9441 17.048 10.0223 17.1922 10.1664C17.3378 10.3106 17.4176 10.5053 17.4176 10.7092V20.6514H27.2892C27.4946 20.6514 27.6909 20.7326 27.8335 20.8783C27.9776 21.024 28.0574 21.2202 28.0558 21.4257C27.9914 27.6265 22.8946 32.6727 16.6938 32.6727ZM15.8858 11.5081C10.8426 11.9221 6.85902 16.1664 6.85902 21.3076C6.85902 26.7295 11.2704 31.1394 16.6938 31.1394C21.7968 31.1394 26.0364 27.1895 26.4842 22.1847H16.6524C16.2292 22.1847 15.8858 21.8412 15.8858 21.418V11.5081Z" fill="#05A845"></path>
<path d="M36.5079 17.623H34.1926C33.7694 17.623 33.4259 17.2796 33.4259 16.8564C33.4259 16.4332 33.7694 16.0897 34.1926 16.0897H35.7351C35.4269 8.64078 29.4469 2.63012 22.0133 2.26978V16.8564C22.0133 17.2796 21.6698 17.623 21.2466 17.623C20.8234 17.623 20.48 17.2796 20.48 16.8564V1.49085C20.48 1.06765 20.8234 0.724182 21.2466 0.724182C21.2497 0.724182 21.2528 0.724182 21.2558 0.724182C30.1185 0.724182 37.2807 7.88945 37.2807 16.6954C37.2807 16.6969 37.2746 16.8548 37.2746 16.8564C37.2715 17.278 36.9296 17.623 36.5079 17.623Z" fill="#05A845"></path>
<path d="M21.2466 17.6476C20.8234 17.6476 20.48 17.3041 20.48 16.8809V6.45734C20.48 6.03414 20.8234 5.69067 21.2466 5.69067C21.2482 5.69067 21.2482 5.69067 21.2497 5.69067C27.4014 5.69067 32.3695 10.6602 32.3695 16.7705C32.3695 17.1937 32.0229 17.5924 31.5997 17.5924C31.1765 17.5924 30.83 17.3041 30.83 16.8809C30.83 16.861 30.8346 16.7828 30.8361 16.7613C30.8361 11.7489 26.9399 7.62114 22.0133 7.24854V16.8794C22.0133 17.3041 21.6698 17.6476 21.2466 17.6476Z" fill="#05A845"></path>
<path d="M22.5408 21.2586C21.4046 21.2586 20.48 20.334 20.48 19.1978V12.3882C20.48 11.965 20.8234 11.6216 21.2466 11.6216C21.6698 11.6216 22.0133 11.965 22.0133 12.3882V19.1978C22.0133 19.4876 22.2494 19.7253 22.5408 19.7253C22.8321 19.7253 23.0682 19.4891 23.0682 19.1978V17.2566C23.0682 16.1189 23.9928 15.1927 25.129 15.1927C26.2668 15.1927 27.1929 16.1189 27.1929 17.2566V17.9957C27.1929 18.2885 27.429 18.5277 27.7204 18.5277C28.0117 18.5277 28.2478 18.2885 28.2478 17.9957V17.2566C28.2478 16.1189 29.1724 15.1927 30.3086 15.1927C31.4464 15.1927 32.3725 16.1189 32.3725 17.2566V18.8083C32.3725 19.0997 32.6086 19.3389 32.9 19.3389C33.1913 19.3389 33.4305 19.1012 33.4305 18.8083V15.4871C33.4305 15.0639 33.774 14.7204 34.1972 14.7204C34.6204 14.7204 34.9638 15.0639 34.9638 15.4871V18.8083C34.9638 19.9461 34.0377 20.8722 32.9 20.8722C31.7638 20.8722 30.8392 19.9461 30.8392 18.8083V17.2566C30.8392 16.9653 30.6015 16.7261 30.3086 16.7261C30.0188 16.7261 29.7812 16.9637 29.7812 17.2566V17.9957C29.7812 19.1349 28.8566 20.0611 27.7204 20.0611C26.5842 20.0611 25.6596 19.1349 25.6596 17.9957V17.2566C25.6596 16.9653 25.4219 16.7261 25.129 16.7261C24.8392 16.7261 24.6016 16.9637 24.6016 17.2566V19.1978C24.6 20.334 23.677 21.2586 22.5408 21.2586Z" fill="#05A845"></path>
<path d="M9.39847 21.2586C9.93621 21.2586 10.3721 20.8227 10.3721 20.2849C10.3721 19.7472 9.93621 19.3113 9.39847 19.3113C8.86073 19.3113 8.4248 19.7472 8.4248 20.2849C8.4248 20.8227 8.86073 21.2586 9.39847 21.2586Z" fill="#05A845"></path>
<path d="M13.3037 21.2586C13.8415 21.2586 14.2774 20.8227 14.2774 20.2849C14.2774 19.7472 13.8415 19.3113 13.3037 19.3113C12.766 19.3113 12.3301 19.7472 12.3301 20.2849C12.3301 20.8227 12.766 21.2586 13.3037 21.2586Z" fill="#05A845"></path>
<path d="M17.2338 25.9322C17.7707 25.9322 18.206 25.4969 18.206 24.96C18.206 24.4232 17.7707 23.9879 17.2338 23.9879C16.697 23.9879 16.2617 24.4232 16.2617 24.96C16.2617 25.4969 16.697 25.9322 17.2338 25.9322Z" fill="#05A845"></path>
<path d="M24.2622 24.8573C24.8 24.8573 25.2359 24.4214 25.2359 23.8836C25.2359 23.3459 24.8 22.91 24.2622 22.91C23.7245 22.91 23.2886 23.3459 23.2886 23.8836C23.2886 24.4214 23.7245 24.8573 24.2622 24.8573Z" fill="#05A845"></path>
<path d="M16.4273 29.1583C16.965 29.1583 17.4009 28.7224 17.4009 28.1847C17.4009 27.6469 16.965 27.211 16.4273 27.211C15.8895 27.211 15.4536 27.6469 15.4536 28.1847C15.4536 28.7224 15.8895 29.1583 16.4273 29.1583Z" fill="#05A845"></path>
<path d="M13.5108 17.0419C14.0485 17.0419 14.4844 16.606 14.4844 16.0683C14.4844 15.5305 14.0485 15.0946 13.5108 15.0946C12.973 15.0946 12.5371 15.5305 12.5371 16.0683C12.5371 16.606 12.973 17.0419 13.5108 17.0419Z" fill="#05A845"></path>
<path d="M12.229 24.4433C12.7668 24.4433 13.2027 24.0074 13.2027 23.4696C13.2027 22.9319 12.7668 22.496 12.229 22.496C11.6913 22.496 11.2554 22.9319 11.2554 23.4696C11.2554 24.0074 11.6913 24.4433 12.229 24.4433Z" fill="#05A845"></path>
<path d="M12.022 27.9592C12.5597 27.9592 12.9957 27.5233 12.9957 26.9856C12.9957 26.4478 12.5597 26.0119 12.022 26.0119C11.4843 26.0119 11.0483 26.4478 11.0483 26.9856C11.0483 27.5233 11.4843 27.9592 12.022 27.9592Z" fill="#05A845"></path>
<path d="M21.4536 27.007C21.9914 27.007 22.4273 26.5711 22.4273 26.0334C22.4273 25.4956 21.9914 25.0597 21.4536 25.0597C20.9159 25.0597 20.48 25.4956 20.48 26.0334C20.48 26.5711 20.9159 27.007 21.4536 27.007Z" fill="#05A845"></path>
</svg>