<svg width="38" height="38" viewBox="0 0 38 38" fill="none" xmlns="http://www.w3.org/2000/svg">
<path d="M19.5199 27.3413C17.0865 27.3413 14.7236 26.8583 12.4957 25.9046C12.3148 25.8264 12.1706 25.6807 12.0924 25.4998C9.21435 18.7684 10.6925 11.0818 15.8614 5.91605C19.2148 2.56111 23.6783 0.711914 28.427 0.711914C30.8573 0.711914 33.2202 1.19338 35.4481 2.14711C35.6291 2.22531 35.7732 2.36945 35.8514 2.55191C38.7295 9.28018 37.2513 16.9683 32.0825 22.1387C28.7291 25.4936 24.2686 27.3413 19.5199 27.3413ZM13.385 24.6135C15.337 25.4062 17.3993 25.808 19.5199 25.808C23.8577 25.808 27.9348 24.1198 30.9984 21.0546C35.6475 16.4025 37.0305 9.51938 34.5603 3.43971C32.6084 2.64698 30.5461 2.24678 28.427 2.24678C24.0862 2.24678 20.009 3.93498 16.9454 7.00165C12.2964 11.6492 10.9148 18.5308 13.385 24.6135Z" fill="#05A845"></path>
<path d="M7.14125 29.2948C7.13972 29.2948 7.13972 29.2948 7.14125 29.2948C5.43158 29.2948 3.82465 28.6293 2.61485 27.4226L0.937385 25.742C0.638385 25.443 0.638385 24.957 0.937385 24.658L2.61485 22.9774C3.82312 21.7692 5.43005 21.1037 7.13972 21.1037C8.84938 21.1037 10.4563 21.7692 11.6631 22.9774L13.342 24.658C13.6411 24.957 13.6411 25.443 13.342 25.742L11.6631 27.4226C10.4548 28.6293 8.84938 29.2948 7.14125 29.2948ZM2.56272 25.2008L3.69892 26.3385C4.61738 27.257 5.83945 27.7614 7.13972 27.7614C8.43845 27.7614 9.65898 27.257 10.5775 26.3385L11.7137 25.2008L10.5775 24.063C8.74205 22.2276 5.53585 22.2292 3.69892 24.063L2.56272 25.2008Z" fill="#05A845"></path>
<path d="M12.7991 37.288C12.5952 37.288 12.4005 37.2068 12.2563 37.0642L10.5773 35.3836C8.08413 32.8889 8.08567 28.8332 10.5773 26.34L12.2563 24.6595C12.5446 24.3712 13.0537 24.3712 13.3404 24.6595L15.0194 26.34C16.2277 27.5452 16.8931 29.1522 16.8931 30.8603C16.8931 32.5684 16.2277 34.1754 15.0194 35.3836L13.3404 37.0642C13.1963 37.2068 13.0015 37.288 12.7991 37.288ZM12.7991 26.2848L11.6629 27.4226C9.76773 29.3178 9.76773 32.4028 11.6629 34.298L12.7991 35.4358L13.9353 34.298C14.8538 33.378 15.3598 32.1575 15.3598 30.8588C15.3598 29.5585 14.8538 28.3395 13.9353 27.4226L12.7991 26.2848Z" fill="#05A845"></path>
<path d="M20.5564 19.2239C20.5548 19.2239 20.5548 19.2239 20.5564 19.2239L18.1812 19.2208C17.758 19.2208 17.4146 18.8773 17.4146 18.4541V16.079C17.4146 14.7956 17.7887 13.5291 18.4695 12.5125C19.181 11.4499 20.1163 10.8396 21.0348 10.8396C21.481 10.8396 22.1296 10.9837 22.6938 11.6737L25.0168 13.9921C25.7283 14.5687 25.9828 15.4488 25.6593 16.3581C25.0874 17.9619 22.8456 19.2223 20.5564 19.2239ZM18.9479 17.689L20.5548 17.6905C22.3243 17.689 23.9052 16.7153 24.2149 15.8429C24.3192 15.5515 24.2532 15.3445 23.9895 15.1268L21.5592 12.7011C21.3077 12.4021 21.1436 12.3729 21.0348 12.3729C20.6545 12.3729 20.147 12.7624 19.7437 13.3635C19.2362 14.1209 18.9464 15.1099 18.9464 16.079V17.689H18.9479Z" fill="#05A845"></path>
<path d="M28.68 6.76093C28.3273 6.76093 27.9961 6.62293 27.7462 6.37299C27.2356 5.85473 27.2356 5.01753 27.7446 4.50539C28.243 4.00399 29.1139 4.00093 29.6168 4.50233C30.1336 5.02673 30.129 5.86546 29.6122 6.37759C29.3638 6.62293 29.0326 6.76093 28.68 6.76093Z" fill="#05A845"></path>
<path d="M31.2822 12.3147C30.5431 12.3147 29.847 12.0264 29.3241 11.502C29.0251 11.203 29.0251 10.7169 29.3241 10.4179C29.6231 10.1189 30.1092 10.1189 30.4082 10.4179C30.6428 10.6525 30.9525 10.7813 31.2822 10.7813H31.2837C31.6118 10.7813 31.9216 10.6525 32.1546 10.4195L35.5862 6.98786C35.8852 6.68886 36.3713 6.68886 36.6703 6.98786C36.9693 7.28686 36.9693 7.77293 36.6703 8.07193L33.2402 11.502C32.7189 12.0249 32.0258 12.3147 31.2868 12.3147C31.2852 12.3147 31.2837 12.3147 31.2822 12.3147Z" fill="#05A845"></path>
</svg>