<svg width="32" height="38" viewBox="0 0 32 38" fill="none" xmlns="http://www.w3.org/2000/svg">
<path d="M20.3073 37.357C18.8245 37.357 17.3771 36.9997 16.0001 36.2928C14.6247 36.9997 13.1757 37.357 11.693 37.357C5.39254 37.357 0.266602 30.8955 0.266602 22.9544C0.266602 15.0132 5.39254 8.55176 11.693 8.55176C13.1788 8.55176 14.6247 8.90902 16.0001 9.61436C17.374 8.90902 18.8215 8.55176 20.3073 8.55176C26.6077 8.55176 31.7337 15.0132 31.7337 22.9544C31.7337 30.8955 26.6077 37.357 20.3073 37.357ZM16.0001 34.6552C16.1305 34.6552 16.2608 34.6874 16.3773 34.7534C17.6316 35.4633 18.9549 35.8221 20.3057 35.8221C25.7613 35.8221 30.1988 30.0491 30.1988 22.9528C30.1988 15.8566 25.7598 10.0836 20.3057 10.0836C18.9518 10.0836 17.6301 10.4424 16.3773 11.1523C16.1443 11.2842 15.856 11.2842 15.6229 11.1523C14.3702 10.4424 13.0469 10.0836 11.6945 10.0836C6.23894 10.0836 1.80147 15.8566 1.80147 22.9528C1.80147 30.0491 6.24047 35.8221 11.6945 35.8221C13.0469 35.8221 14.3687 35.4633 15.6229 34.7534C15.7395 34.6874 15.8698 34.6552 16.0001 34.6552Z" fill="#05A845"></path>
<path d="M16.0001 11.2535C15.5769 11.2535 15.2334 10.91 15.2334 10.4868V6.71329C15.2334 4.21089 13.1987 2.17615 10.6978 2.17615C10.2746 2.17615 9.93115 1.83269 9.93115 1.40949C9.93115 0.986289 10.2746 0.642822 10.6978 0.642822C14.0451 0.642822 16.7668 3.36602 16.7668 6.71329V10.4868C16.7668 10.9116 16.4233 11.2535 16.0001 11.2535Z" fill="#05A845"></path>
<path d="M17.9551 10.3073H16.0031C15.5815 10.3073 15.2365 9.96387 15.2365 9.54221L15.2334 7.59027C15.2334 4.61407 17.653 2.19141 20.6261 2.19141H22.5857C23.0089 2.19141 23.3524 2.53487 23.3524 2.95807V4.91001C23.3524 7.88621 20.9313 10.3073 17.9551 10.3073ZM16.7683 8.77401H17.9551C20.0864 8.77401 21.8191 7.04134 21.8191 4.91001V3.72474H20.6323C18.4979 3.72474 16.7667 5.45741 16.7667 7.58874L16.7683 8.77401Z" fill="#05A845"></path>
<path d="M11.7206 25.7971C11.5243 25.7971 11.3296 25.722 11.1793 25.5732L10.5629 24.9599C9.45585 23.8528 9.45585 22.0558 10.5614 20.9518L11.1778 20.3369C11.3219 20.1928 11.5166 20.113 11.7206 20.113H11.7221C11.926 20.113 12.1208 20.1958 12.2649 20.3384L12.8782 20.9548C13.4134 21.4869 13.7078 22.1999 13.7078 22.9574C13.7078 23.7133 13.4134 24.4263 12.8752 24.9614L12.2634 25.5732C12.1131 25.722 11.9168 25.7971 11.7206 25.7971ZM11.719 21.9638L11.6454 22.0358C11.1394 22.5434 11.1394 23.3668 11.6454 23.8743L11.719 23.9479L11.7926 23.8743C12.0395 23.629 12.1744 23.3024 12.1744 22.9558C12.1744 22.6078 12.0395 22.2827 11.7942 22.0374L11.719 21.9638Z" fill="#05A845"></path>
<path d="M20.2796 25.7971C20.0833 25.7971 19.8871 25.722 19.7368 25.5732L19.1235 24.9599C18.5883 24.4248 18.2939 23.7148 18.2939 22.9558C18.2939 22.1968 18.5883 21.4869 19.1235 20.9518L19.7368 20.3369C19.8794 20.1928 20.0757 20.113 20.2796 20.113C20.4835 20.113 20.6783 20.1943 20.8224 20.3369L21.4388 20.9533C21.9739 21.4869 22.2683 22.1984 22.2699 22.9543C22.2699 23.7118 21.9755 24.4248 21.4388 24.9599L20.8209 25.5748C20.6706 25.722 20.4759 25.7971 20.2796 25.7971ZM20.2796 21.9638L20.2075 22.0358C19.9622 22.2812 19.8273 22.6078 19.8273 22.9558C19.8273 23.3039 19.9622 23.629 20.2075 23.8758L20.2811 23.9494L20.3563 23.8743C20.6001 23.6305 20.7365 23.3039 20.7365 22.9558C20.7365 22.6078 20.6001 22.2827 20.3563 22.0374L20.2796 21.9638Z" fill="#05A845"></path>
</svg>