<svg width="34" height="38" viewBox="0 0 34 38" fill="none" xmlns="http://www.w3.org/2000/svg">
<path d="M17.0553 28.4683C16.4742 28.4683 15.8915 28.4147 15.315 28.3058C14.8995 28.2261 14.6265 27.8259 14.7063 27.4088C14.786 26.9933 15.1785 26.7219 15.6033 26.8001C17.0323 27.0699 18.5105 26.9365 19.8782 26.4106C23.7882 24.9079 31.5637 18.5783 31.7063 14.4905C31.7094 14.4261 31.7201 14.3632 31.7385 14.3003C32.5696 11.4805 31.1681 8.45374 28.4771 7.25775C23.8173 5.18621 4.71507 0.383812 3.69234 2.69148C3.42554 3.28948 4.97267 5.85628 12.7283 11.2827C12.9353 11.4284 13.0579 11.6661 13.0549 11.9206C13.0518 12.1736 12.923 12.4097 12.7114 12.5493C9.67694 14.5625 8.42267 18.494 9.73367 21.8995C9.82107 22.1249 9.91767 22.3457 10.0219 22.5589C10.209 22.9391 10.0541 23.3991 9.67387 23.5862C9.29514 23.7748 8.83361 23.6184 8.64654 23.2381C8.52081 22.9836 8.40581 22.7214 8.30001 22.45C6.86634 18.724 8.00101 14.469 10.9864 11.9298C1.05961 4.84121 1.95047 2.83715 2.29087 2.06895C2.62821 1.31301 3.51601 -0.689521 15.3533 1.89721C21.2582 3.18828 27.3379 5.07121 29.0997 5.85475C32.4607 7.34821 34.2271 11.1125 33.2351 14.6407C32.956 19.5336 24.6852 26.2036 20.4287 27.8397C19.3446 28.2567 18.2023 28.4683 17.0553 28.4683Z" fill="#05A845"></path>
<path d="M9.01759 22.9422C8.70939 22.9422 8.41805 22.7551 8.30152 22.4515C7.40145 20.1117 7.46739 17.5633 8.48552 15.2725C9.50212 12.9817 11.3513 11.2245 13.6912 10.326C14.0899 10.1742 14.5315 10.3719 14.6817 10.7675C14.832 11.1631 14.6373 11.6063 14.2417 11.7581C12.2851 12.5094 10.738 13.9799 9.88545 15.895C9.03292 17.8117 8.97925 19.9445 9.73212 21.9011C9.88392 22.2967 9.68765 22.7398 9.29205 22.8916C9.20159 22.9269 9.10959 22.9422 9.01759 22.9422Z" fill="#05A845"></path>
<path d="M11.7525 12.3007C11.5976 12.3007 11.4443 12.2547 11.3093 12.1597C1.04061 4.88093 1.94987 2.83853 2.29027 2.0688C2.62607 1.3144 3.50927 -0.689671 15.3527 1.89706C21.2576 3.18813 27.3373 5.07106 29.0991 5.8546C29.4855 6.02633 29.6603 6.4802 29.4885 6.8666C29.3168 7.253 28.8629 7.42626 28.4765 7.25606C23.8167 5.18606 4.71447 0.383663 3.69174 2.69133C3.43567 3.26786 4.88467 5.7258 12.1956 10.9085C12.5421 11.1538 12.6219 11.6322 12.3781 11.9772C12.2293 12.1888 11.9917 12.3007 11.7525 12.3007Z" fill="#05A845"></path>
<path d="M8.96694 37.3908C8.19567 37.3908 7.47041 37.0887 6.92607 36.5413L5.43107 35.0509C4.95267 34.5679 4.66594 33.9392 4.60154 33.2845C3.94221 33.2232 3.31354 32.9334 2.83514 32.4535L1.33707 30.9554C0.21314 29.8315 0.211607 28.0022 1.33401 26.8783L2.83514 25.3771C3.95447 24.2578 5.77607 24.2547 6.90461 25.3679L12.5473 19.7206C12.8463 19.4216 13.3323 19.4216 13.6313 19.7206C13.9303 20.0196 13.9303 20.5057 13.6313 20.8047L7.44587 26.9948C7.30174 27.1389 7.10701 27.2187 6.90307 27.2187C6.90307 27.2187 6.90307 27.2187 6.90154 27.2187C6.69761 27.2187 6.50287 27.1374 6.35874 26.9932L5.82974 26.4612C5.30381 25.9352 4.44667 25.9337 3.91767 26.4596L2.41807 27.9639C1.89367 28.4898 1.89367 29.3454 2.42114 29.8728L3.92227 31.3724C4.25961 31.7144 4.75794 31.8462 5.23021 31.7205C5.49241 31.65 5.77607 31.7251 5.97081 31.9183C6.16554 32.113 6.24067 32.3967 6.16861 32.6605C6.04134 33.1327 6.17167 33.6219 6.51667 33.9699L8.01167 35.4603C8.26927 35.7179 8.60814 35.8605 8.96847 35.8605C9.32727 35.8605 9.66614 35.7195 9.92067 35.4649L11.4203 33.9684C11.9462 33.4409 11.9462 32.5823 11.4187 32.0533L10.8897 31.5242C10.7456 31.3801 10.6659 31.1854 10.6659 30.9814C10.6659 30.7775 10.7471 30.5828 10.8897 30.4386L17.0783 24.2547C17.3773 23.9557 17.8633 23.9557 18.1623 24.2547C18.4613 24.5537 18.4613 25.0398 18.1623 25.3388L12.5151 30.9814C13.6267 32.1084 13.6221 33.9316 12.5028 35.0509L11.0032 36.5475C10.4589 37.0903 9.73667 37.3908 8.96694 37.3908Z" fill="#05A845"></path>
<path d="M17.618 25.5627C17.4233 25.5627 17.2286 25.4891 17.0783 25.3403C16.7778 25.0429 16.7747 24.5568 17.0722 24.2563C17.1212 24.0922 16.859 23.1431 15.7995 22.0835C14.7446 21.0255 13.7939 20.7587 13.5961 20.8323C13.2956 21.1313 12.8279 21.1191 12.5304 20.8201C12.2314 20.5211 12.2483 20.0227 12.5473 19.7237C12.7451 19.5275 13.0993 19.2913 13.6728 19.2913C14.6004 19.2913 15.8317 19.9461 16.8836 20.9995C18.2743 22.3902 19.159 24.3253 18.1624 25.3342C18.0136 25.486 17.8158 25.5627 17.618 25.5627Z" fill="#05A845"></path>
<path d="M18.2558 15.9901C17.9752 15.7033 17.3082 15.6941 17.0153 15.9594C16.8559 16.1035 16.7271 16.3887 16.7271 16.6019C16.7255 16.7981 16.8359 17.0741 16.9709 17.2183C17.1165 17.3731 17.4048 17.4973 17.6164 17.4973C17.8203 17.4973 18.1025 17.3808 18.2466 17.2367C18.5931 16.8901 18.5931 16.3274 18.2558 15.9901Z" fill="#05A845"></path>
<path d="M14.6049 5.83787C14.4608 5.68913 14.2155 5.6186 13.9701 5.61707C13.9686 5.61707 13.9671 5.61707 13.9655 5.61707C13.9563 5.61707 13.9502 5.62167 13.9425 5.62167C13.7187 5.62627 13.5009 5.68453 13.3645 5.80873C13.205 5.95286 13.0762 6.23806 13.0762 6.4512C13.0747 6.64746 13.1851 6.92346 13.32 7.0676C13.4657 7.22246 13.7539 7.34666 13.9655 7.34666C14.1695 7.34666 14.4516 7.23013 14.5957 7.086C14.9423 6.73793 14.9423 6.1752 14.6049 5.83787Z" fill="#05A845"></path>
<path d="M23.572 8.67608C23.4907 8.59328 23.3757 8.54115 23.25 8.50435C23.1549 8.45681 23.0414 8.42615 22.9096 8.42615C22.7409 8.42615 22.6121 8.48135 22.5002 8.55495C22.4404 8.58255 22.376 8.60401 22.3315 8.64541C22.172 8.78955 22.0432 9.07475 22.0432 9.28788C22.0417 9.48415 22.1521 9.76015 22.287 9.90428C22.4327 10.0591 22.721 10.1833 22.9326 10.1833C23.1365 10.1833 23.4186 10.0668 23.5628 9.92268C23.9093 9.57615 23.9093 9.01341 23.572 8.67608Z" fill="#05A845"></path>
<path d="M20.7936 10.9147C20.513 10.6265 19.846 10.6173 19.5532 10.8841C19.3937 11.0282 19.2649 11.3134 19.2649 11.5265C19.2634 11.7228 19.3738 11.9988 19.5087 12.1429C19.6544 12.2978 19.9426 12.422 20.1542 12.422C20.3582 12.422 20.6403 12.3055 20.7844 12.1613C21.1294 11.8148 21.1294 11.2521 20.7936 10.9147Z" fill="#05A845"></path>
<path d="M28.0768 14.0427C27.7962 13.7545 27.1292 13.7468 26.8364 14.0121C26.6769 14.1562 26.5481 14.4414 26.5481 14.6545C26.5466 14.8508 26.657 15.1268 26.7919 15.2709C26.9376 15.4258 27.2258 15.55 27.4374 15.55C27.6414 15.55 27.9235 15.4335 28.0676 15.2893C28.4126 14.9428 28.4126 14.3801 28.0768 14.0427Z" fill="#05A845"></path>
</svg>