<svg class="w100" width="99" height="26" viewBox="0 0 99 26" fill="none" xmlns="http://www.w3.org/2000/svg">
<path d="M15.9798 17.8997C15.9798 18.6251 15.8159 19.2685 15.4881 19.8301C13.9194 22.6379 11.2268 24.0418 7.4104 24.0418C6.21631 24.0418 4.70613 23.8078 2.87987 23.3398C2.87987 23.3866 2.86817 23.4334 2.84475 23.4802C2.84475 23.5504 2.89158 23.7727 2.98523 24.1471C2.89158 24.4279 2.71598 24.6033 2.45843 24.6735L2.17746 24.5331C1.73261 24.5799 1.47506 24.346 1.40482 23.8312C1.33457 23.0825 1.26433 22.673 1.19409 22.6028C1.14727 22.5326 0.91313 22.4039 0.491686 22.2167C0.163895 22.0763 0 21.8657 0 21.585C0 21.234 0.163895 21.0468 0.491686 21.0234C0.842889 20.9766 1.0302 20.8947 1.05361 20.7777C1.05361 20.8011 1.05361 20.6139 1.05361 20.2162C1.05361 19.8184 1.06532 19.1866 1.08873 18.3209C1.13556 17.4552 1.15897 16.8 1.15897 16.3554L1.12385 15.127C0.632167 14.9632 0.386324 14.7409 0.386324 14.4602C0.386324 14.1092 0.608754 13.8167 1.05361 13.5827V1.86017C1.05361 1.67298 1.18239 1.439 1.43994 1.15822C1.7209 0.877436 1.95504 0.737046 2.14234 0.737046C2.51696 0.737046 2.72768 0.772144 2.77451 0.842339C2.91499 0.982729 3.04377 1.13482 3.16084 1.29861C2.78622 3.45125 2.59891 4.99554 2.59891 5.93148C2.59891 5.93148 2.61062 6.00167 2.63403 6.14206C4.22615 2.04735 6.60263 0 9.76347 0C11.5897 0 12.9828 0.70195 13.9428 2.10585C14.8091 3.34596 15.2422 4.90195 15.2422 6.77382C15.2422 8.17772 14.9145 9.55822 14.2589 10.9153C13.5096 12.5064 12.5497 13.4891 11.379 13.8635C14.4462 14.2379 15.9798 15.5833 15.9798 17.8997ZM13.4511 6.63343C13.4511 3.12368 12.1751 1.3688 9.62299 1.3688C7.89038 1.3688 6.30996 2.50362 4.88173 4.77326C3.59399 6.80891 2.95011 8.73928 2.95011 10.5643V13.6529C2.85646 13.6529 3.72276 13.6529 5.54902 13.6529C8.24158 13.6529 10.1966 13.1733 11.4141 12.2139C12.7721 11.1142 13.4511 9.25404 13.4511 6.63343ZM14.1886 17.6891C14.1886 16.4022 12.9477 15.5716 10.4659 15.1972C9.45909 15.0334 7.70307 14.9515 5.19782 14.9515C4.21445 14.9515 3.43009 15.0217 2.84475 15.1621C2.82134 15.9343 2.80963 17.5371 2.80963 19.9705C2.80963 20.5788 2.83305 21.1287 2.87987 21.6201C4.00372 22.2752 5.49049 22.6028 7.34016 22.6028C8.83863 22.6028 10.302 22.1582 11.7302 21.2691C13.3692 20.2864 14.1886 19.093 14.1886 17.6891Z" fill="#333333"></path>
<path d="M28.1907 20.6724C28.1907 21.702 27.5 22.6262 26.1186 23.4451C24.8777 24.1939 23.707 24.5682 22.6066 24.5682C19.4691 24.5682 17.9004 22.5794 17.9004 18.6017C17.9004 16.8468 18.2165 14.9632 18.8487 12.951C19.6916 10.3304 20.7686 9.02006 22.0798 9.02006C23.2036 9.02006 24.4328 9.59332 25.7674 10.7398C27.102 11.863 27.7693 12.9861 27.7693 14.1092C27.7693 15.5599 27.1839 16.8234 26.0132 17.8997C24.8426 18.976 23.5197 19.5142 22.0446 19.5142C21.9041 19.5142 21.5998 19.3972 21.1315 19.1632C20.6866 18.9293 20.3823 18.8123 20.2184 18.8123C19.914 18.8123 19.7618 18.9059 19.7618 19.093C19.7618 21.7838 20.6515 23.1292 22.431 23.1292C23.3441 23.1292 24.187 22.8251 24.9596 22.2167C25.4279 21.8657 25.943 21.3159 26.5049 20.5671C26.9498 19.9822 27.2424 19.6897 27.3829 19.6897C27.9214 19.6897 28.1907 20.0173 28.1907 20.6724ZM25.7674 14.2145C25.7674 13.3955 25.5333 12.6351 25.065 11.9331C24.5967 11.2078 23.9763 10.8451 23.2036 10.8451C22.2671 10.8451 21.5061 11.4301 20.9208 12.6C20.4291 13.5827 20.1832 14.6006 20.1832 15.6535C20.1832 16.332 20.394 16.9053 20.8154 17.3733C21.2603 17.8178 21.8222 18.0401 22.5012 18.0401C23.4612 18.0401 24.2572 17.6306 24.8894 16.8117C25.4747 16.063 25.7674 15.1972 25.7674 14.2145Z" fill="#333333"></path>
<path d="M40.0142 22.0763C40.0142 22.8953 39.3937 23.5855 38.1528 24.1471C37.1226 24.5916 36.1275 24.8139 35.1676 24.8139C34.5354 24.8139 33.8096 24.6618 32.9901 24.3577C32.5453 24.1705 31.8311 23.6791 30.8478 22.8836C29.7708 22.0178 29.2322 21.4212 29.2322 21.0936C29.2322 20.3682 29.6654 20.0407 30.5317 20.1109H30.7424C30.7892 20.8128 31.5385 21.5733 32.9901 22.3922C34.3013 23.1409 35.3549 23.5153 36.151 23.5153C37.1812 23.5153 37.6963 23.1643 37.6963 22.4624C37.6963 22.0412 37.0641 21.4563 35.7998 20.7075C34.0671 19.7014 32.8848 18.8942 32.2526 18.2858C30.9648 17.0457 30.321 15.6184 30.321 14.0039C30.321 12.7872 30.6371 11.629 31.2692 10.5292C31.995 9.21894 32.9082 8.56379 34.0086 8.56379C34.8047 8.56379 35.7646 8.93816 36.8885 9.68691C38.0123 10.4123 38.6679 11.1493 38.8552 11.8981C39.0425 12.5298 39.1362 13.2669 39.1362 14.1092C39.1362 15.0217 38.9723 16.0162 38.6445 17.0925C38.4338 17.2563 38.1879 17.3382 37.907 17.3382C37.7431 17.3382 37.4855 17.2797 37.1343 17.1627C36.7831 17.0223 36.6075 16.8819 36.6075 16.7415C36.6075 16.8351 36.7363 16.5777 36.9938 15.9694C37.1812 15.5716 37.2748 14.8462 37.2748 13.7933C37.2748 11.2897 36.4905 10.0379 34.9217 10.0379C34.1023 10.0379 33.4467 10.5877 32.955 11.6875C32.5336 12.5766 32.3228 13.4774 32.3228 14.39C32.3228 15.5365 32.9901 16.6479 34.3247 17.7242C34.7696 18.0986 35.9988 18.9058 38.0123 20.146C39.3469 20.9649 40.0142 21.6084 40.0142 22.0763Z" fill="#333333"></path>
<path d="M47.6024 13.0914C47.4151 13.2318 46.9702 13.3487 46.2678 13.4423C45.4952 13.5359 45.0503 13.6178 44.9332 13.688C44.9098 13.9454 44.8981 15.244 44.8981 17.5838C44.8981 19.4089 44.9215 20.6373 44.9684 21.2691C44.9684 21.5265 45.0269 21.9359 45.144 22.4975C45.261 23.0591 45.3196 23.4919 45.3196 23.7961C45.3196 23.9833 45.2025 24.1705 44.9684 24.3577C44.7342 24.5448 44.5235 24.6384 44.3362 24.6384C43.8679 24.6384 43.4933 24.1588 43.2123 23.1994C43.025 22.4975 42.9314 21.8306 42.9314 21.1989C42.9314 17.8997 42.9548 15.4663 43.0016 13.8986C42.8611 13.7816 42.3226 13.7816 41.3861 13.8986C40.6369 13.9922 40.2622 13.7231 40.2622 13.0914C40.2622 12.2022 41.2105 11.7928 43.107 11.863L43.5636 5.51031C43.5636 5.44011 43.5284 5.33482 43.4582 5.19443C43.4114 5.03064 43.388 4.91365 43.388 4.84345C43.388 4.70306 43.4816 4.57437 43.6689 4.45738C43.8562 4.31699 44.0787 4.2585 44.3362 4.28189C45.1557 4.35209 45.5654 4.76156 45.5654 5.51031C45.5654 6.09527 45.4835 6.9727 45.3196 8.14262C45.1557 9.31254 45.0737 10.1783 45.0737 10.7398C45.0737 11.0206 45.0971 11.2897 45.144 11.5471L47.0756 11.4418C47.7312 11.4418 48.059 11.6992 48.059 12.2139C48.059 12.5883 47.9068 12.8808 47.6024 13.0914Z" fill="#333333"></path>
<path d="M63.5778 1.86017C63.3202 2.11755 63.0276 2.24624 62.6998 2.24624C62.5593 2.24624 62.3486 2.23454 62.0676 2.21114C61.7866 2.16434 61.5642 2.14095 61.4003 2.14095C60.417 2.14095 59.1058 2.33983 57.4668 2.7376C55.5235 3.22897 54.2123 3.50975 53.5334 3.57995L52.7958 10.1783C52.749 10.6462 52.7256 11.044 52.7256 11.3716C52.7256 11.8864 52.9012 12.1437 53.2524 12.1437C53.346 12.1437 53.4514 12.132 53.5685 12.1086C55.8162 11.5471 57.4434 11.2663 58.4502 11.2663C59.9019 11.2663 60.3935 11.2429 59.9253 11.1961C60.3935 11.2429 60.7682 11.4769 61.0491 11.8981L61.1545 12.7755C61.0842 12.9393 60.9672 13.0212 60.8033 13.0212C60.6394 13.0212 60.417 13.0446 60.136 13.0914C59.8784 13.1382 59.6794 13.1616 59.5389 13.1616C57.5254 13.1616 55.2543 13.5476 52.7256 14.3198C52.5617 15.0919 52.4797 16.8117 52.4797 19.4791C52.4797 21.6786 52.5617 22.907 52.7256 23.1643C52.8192 23.3047 52.9246 23.4451 53.0417 23.5855C53.1822 23.7259 53.2524 23.8429 53.2524 23.9365C53.2524 24.1003 53.1236 24.2758 52.8661 24.463C52.6085 24.6735 52.4095 24.7788 52.269 24.7788C52.2456 24.7788 51.8944 24.5916 51.2154 24.2173C50.7237 22.9304 50.4779 21.234 50.4779 19.1281C50.4779 17.4669 50.6067 15.01 50.8642 11.7577C51.1452 8.4819 51.2857 6.01337 51.2857 4.35209C51.2857 4.00111 51.1218 3.80223 50.794 3.75543C50.2789 3.66184 49.9745 3.57994 49.8808 3.50975C49.5296 3.27577 49.354 3.06518 49.354 2.87799C49.354 2.64401 49.4594 2.41003 49.6701 2.17604C49.7638 2.12925 50.0564 2.09415 50.5481 2.07075C50.9462 2.04735 51.2154 1.95376 51.3559 1.78997C51.4027 1.60278 51.4261 1.4273 51.4261 1.26351C51.4261 0.912534 51.6603 0.596657 52.1285 0.315877C52.5032 0.105293 52.8192 0 53.0768 0C53.3109 0 53.4397 0.152089 53.4631 0.456266C53.4631 0.690251 53.4631 0.935934 53.4631 1.19331C53.5099 1.3571 53.5919 1.47409 53.709 1.54429C54.8094 1.31031 55.9215 1.07632 57.0454 0.842339C58.38 0.584957 59.5038 0.456266 60.417 0.456266C61.7515 0.456266 62.8051 0.924233 63.5778 1.86017Z" fill="#333333"></path>
<path d="M73.2085 17.2329C73.2085 19.2451 72.7636 21 71.8739 22.4975C70.8203 24.2992 69.3569 25.2 67.4838 25.2C65.5873 25.2 64.1708 24.463 63.2343 22.9889C62.4616 21.7721 62.0753 20.1577 62.0753 18.1454C62.0753 16.1565 62.5202 14.2028 63.4099 12.2841C64.5337 9.92089 65.962 8.73928 67.6946 8.73928C68.1394 8.73928 68.7716 8.99666 69.5911 9.51142C72.0027 11.0089 73.2085 13.5827 73.2085 17.2329ZM71.5227 17.1978C71.5227 15.7003 71.3237 14.3549 70.9256 13.1616C70.3403 11.5003 69.4389 10.6696 68.2214 10.6696C66.8166 10.6696 65.7161 11.5939 64.92 13.4423C64.3113 14.8696 64.0069 16.4022 64.0069 18.0401C64.0069 19.5142 64.2176 20.7543 64.6391 21.7604C65.2478 23.1409 66.1961 23.8312 67.4838 23.8312C68.8886 23.8312 69.954 23.0357 70.6798 21.4446C71.2417 20.2045 71.5227 18.7889 71.5227 17.1978Z" fill="#333333"></path>
<path d="M86.1042 17.2329C86.1042 19.2451 85.6594 21 84.7697 22.4975C83.716 24.2992 82.2527 25.2 80.3796 25.2C78.4831 25.2 77.0666 24.463 76.13 22.9889C75.3574 21.7721 74.9711 20.1577 74.9711 18.1454C74.9711 16.1565 75.4159 14.2028 76.3056 12.2841C77.4295 9.92089 78.8577 8.73928 80.5903 8.73928C81.0352 8.73928 81.6674 8.99666 82.4868 9.51142C84.8984 11.0089 86.1042 13.5827 86.1042 17.2329ZM84.4184 17.1978C84.4184 15.7003 84.2194 14.3549 83.8214 13.1616C83.2361 11.5003 82.3346 10.6696 81.1171 10.6696C79.7123 10.6696 78.6119 11.5939 77.8158 13.4423C77.2071 14.8696 76.9027 16.4022 76.9027 18.0401C76.9027 19.5142 77.1134 20.7543 77.5349 21.7604C78.1436 23.1409 79.0919 23.8312 80.3796 23.8312C81.7844 23.8312 82.8497 23.0357 83.5756 21.4446C84.1375 20.2045 84.4184 18.7889 84.4184 17.1978Z" fill="#333333"></path>
<path d="M99 1.86017C99 2.39833 98.9298 3.08858 98.7893 3.93092C98.6254 5.03064 98.52 5.72089 98.4732 6.00167C98.403 6.72702 98.2859 9.13705 98.122 13.2318C97.9815 16.9755 97.9113 19.0462 97.9113 19.444C97.9113 21.9476 98.1337 23.7142 98.5786 24.7437C98.4147 25.0011 98.2039 25.1298 97.9464 25.1298C97.7122 25.1298 97.443 25.0128 97.1386 24.7788C96.8577 24.5448 96.6821 24.3109 96.6118 24.0769C96.6118 23.6089 96.5416 22.8953 96.4011 21.9359C95.0197 23.6908 93.6968 24.5682 92.4325 24.5682C90.9106 24.5682 89.7399 23.995 88.9204 22.8485C88.218 21.8657 87.8668 20.5671 87.8668 18.9526C87.8668 16.9872 88.2297 14.9515 88.9556 12.8457C89.8921 10.0847 91.133 8.70418 92.6783 8.70418C93.3339 8.70418 94.0012 8.94986 94.6802 9.44123C94.8207 9.53482 95.3709 10.0262 96.3308 10.9153C96.565 9.32423 96.6821 5.83788 96.6821 0.456266C96.846 0.292479 97.0684 0.210585 97.3493 0.210585C97.7942 0.210585 98.1805 0.374373 98.5083 0.70195C98.8361 1.02953 99 1.4156 99 1.86017ZM96.366 14.8111C96.366 13.7816 96.1318 12.8574 95.6636 12.0384C95.1016 11.0557 94.3407 10.5643 93.3807 10.5643C92.2101 10.5643 91.2735 11.7577 90.5711 14.1443C90.0092 15.946 89.7282 17.6423 89.7282 19.2334C89.7282 20.263 89.8921 21.1521 90.2199 21.9008C90.6648 22.8836 91.332 23.3749 92.2218 23.3749C93.6734 23.3749 94.7738 22.2518 95.5231 20.0056C96.085 18.3911 96.366 16.6596 96.366 14.8111Z" fill="#333333"></path>
</svg>