<svg class="w100" width="114" height="23" viewBox="0 0 114 23" fill="none" xmlns="http://www.w3.org/2000/svg">
<path d="M11.9758 7.93799C12.8833 7.57092 13.6787 7.19364 14.3618 6.80618C15.045 6.41871 15.616 6.03634 16.0748 5.65906C16.5337 5.2716 16.8804 4.89942 17.1149 4.54254C17.3494 4.18566 17.4667 3.85938 17.4667 3.56368C17.4667 3.46171 17.4157 3.34445 17.3137 3.21189C17.2118 3.07934 17.0537 2.95698 16.8396 2.84482C16.6357 2.73266 16.3756 2.64089 16.0596 2.56951C15.7435 2.48794 15.3764 2.44715 14.9583 2.44715C13.8367 2.44715 12.7967 2.58481 11.8382 2.86011C10.8797 3.12522 10.0079 3.45151 9.22277 3.83898C8.43764 4.22645 7.74427 4.63431 7.14268 5.06257C6.54108 5.48063 6.03635 5.8477 5.62849 6.16379C5.37358 6.35753 5.14925 6.55126 4.95552 6.745C4.77198 6.92853 4.58844 7.09678 4.40491 7.24972C4.23156 7.39248 4.04293 7.50974 3.839 7.60151C3.63507 7.69327 3.39035 7.73916 3.10485 7.73916C2.67659 7.73916 2.34011 7.63719 2.09539 7.43326C1.86087 7.22933 1.74361 6.94383 1.74361 6.57675C1.74361 6.1383 1.91695 5.67436 2.26363 5.18493C2.61031 4.6853 3.08955 4.19076 3.70134 3.70133C4.31314 3.21189 5.03199 2.74795 5.85791 2.3095C6.68383 1.86085 7.57093 1.46829 8.51921 1.1318C9.47768 0.795315 10.4718 0.525107 11.5017 0.321176C12.5417 0.117245 13.5818 0.0152796 14.6218 0.0152796C15.6925 0.0152796 16.6153 0.10195 17.3902 0.275291C18.1651 0.448633 18.7973 0.688251 19.2868 0.994147C19.7864 1.30004 20.1535 1.66202 20.388 2.08008C20.6327 2.49814 20.7551 2.95188 20.7551 3.44132C20.7551 3.93075 20.5919 4.44058 20.2656 4.9708C19.9393 5.50102 19.4703 6.03124 18.8585 6.56146C18.2569 7.09168 17.5177 7.60151 16.6408 8.09094C15.774 8.57018 14.7952 9.00863 13.7042 9.40629C14.785 9.76317 15.6619 10.1404 16.3349 10.5381C17.018 10.9256 17.5482 11.3334 17.9255 11.7617C18.313 12.1798 18.573 12.6182 18.7056 13.077C18.8381 13.5257 18.9044 13.9896 18.9044 14.4689C18.9044 15.1724 18.7107 15.8658 18.3232 16.549C17.9357 17.2321 17.3953 17.8796 16.7019 18.4914C16.0188 19.093 15.203 19.6538 14.2548 20.1738C13.3167 20.6837 12.2919 21.1272 11.1805 21.5045C10.0691 21.8716 8.89648 22.1571 7.6627 22.361C6.42892 22.5751 5.17984 22.6822 3.91547 22.6822C3.46682 22.6822 3.01308 22.6567 2.55423 22.6057C2.09539 22.5547 1.67223 22.463 1.28476 22.3304C0.907492 22.1979 0.596498 22.0194 0.351781 21.7951C0.11726 21.5708 0 21.2802 0 20.9233C0 20.8825 0 20.8468 0 20.8162C0.0101965 20.7754 0.0203931 20.7296 0.0305896 20.6786C0.0713758 20.597 0.11726 20.5001 0.168243 20.388C0.219226 20.2656 0.336486 20.1483 0.520024 20.0362C0.703561 19.924 0.989064 19.8323 1.37653 19.7609C1.7742 19.6793 2.34011 19.6385 3.07426 19.6385C4.34882 17.3035 5.39907 15.2948 6.22499 13.6124C7.0611 11.9197 7.75957 10.5279 8.32038 9.43688C8.88119 8.34585 9.35023 7.54033 9.7275 7.0203C10.115 6.50028 10.4922 6.24027 10.8593 6.24027C11.0225 6.24027 11.1805 6.26576 11.3335 6.31674C11.4864 6.36772 11.619 6.4391 11.7311 6.53087C11.8535 6.61244 11.9503 6.7195 12.0217 6.85206C12.0931 6.97442 12.1288 7.11207 12.1288 7.26502C12.0472 7.36698 12.0013 7.47405 11.9911 7.58621C11.9809 7.68818 11.9758 7.80544 11.9758 7.93799ZM11.1346 10.8593C10.6758 11.8993 10.2424 12.8323 9.83456 13.6582C9.4369 14.4842 9.05963 15.2438 8.70275 15.9372C8.34587 16.6203 8.00428 17.2627 7.67799 17.8643C7.3619 18.4557 7.05091 19.0369 6.74501 19.6079C7.92781 19.506 9.02904 19.302 10.0487 18.9961C11.0785 18.68 11.9707 18.2926 12.7253 17.8337C13.49 17.3749 14.0865 16.86 14.5148 16.289C14.9532 15.718 15.1725 15.1164 15.1725 14.4842C15.1725 14.1987 15.1062 13.8979 14.9736 13.5818C14.8513 13.2657 14.6371 12.9496 14.3312 12.6335C14.0253 12.3174 13.6124 12.0064 13.0924 11.7005C12.5723 11.3946 11.9198 11.1142 11.1346 10.8593Z" fill="#333333"></path>
<path d="M26.3224 13.0465C26.2714 13.0363 26.2255 13.0312 26.1847 13.0312C26.1439 13.0312 26.098 13.0312 26.0471 13.0312C25.6596 13.0312 25.2976 13.1076 24.9611 13.2606C24.6246 13.4135 24.3137 13.6175 24.0281 13.8724C23.7528 14.1171 23.503 14.3975 23.2787 14.7136C23.0646 15.0297 22.8708 15.3458 22.6975 15.6619C22.5242 15.9678 22.3763 16.2635 22.2539 16.549C22.1418 16.8345 22.0551 17.0741 21.9939 17.2678C22.3508 17.0843 22.7179 16.8753 23.0952 16.6407C23.4826 16.4062 23.8446 16.1819 24.1811 15.9678C24.5176 15.7536 24.8082 15.5599 25.0529 15.3866C25.3078 15.2132 25.4863 15.096 25.5882 15.0348C26.0471 14.7493 26.3632 14.4842 26.5365 14.2395C26.7098 13.9845 26.7965 13.7653 26.7965 13.5818C26.7965 13.4288 26.7455 13.3065 26.6436 13.2147C26.5518 13.1229 26.4447 13.0669 26.3224 13.0465ZM26.873 10.9358C27.7193 10.9358 28.3515 11.1397 28.7695 11.5476C29.1876 11.9554 29.3966 12.5213 29.3966 13.2453C29.3966 13.6735 29.2845 14.1222 29.0601 14.5912C28.8358 15.0603 28.4483 15.5395 27.8977 16.0289C27.3471 16.5082 26.6079 17.0027 25.68 17.5125C24.7623 18.0122 23.6101 18.5169 22.2234 19.0267C22.2743 19.3224 22.4324 19.5569 22.6975 19.7303C22.9626 19.8934 23.3144 19.975 23.7528 19.975C24.2219 19.975 24.7215 19.9087 25.2517 19.7762C25.7921 19.6334 26.3224 19.455 26.8424 19.2409C27.3726 19.0267 27.8875 18.7973 28.3872 18.5526C28.8868 18.2977 29.3354 18.0581 29.7331 17.8337C30.141 17.6094 30.4775 17.4157 30.7426 17.2525C31.0179 17.0894 31.2014 16.9874 31.2932 16.9466C31.385 16.8855 31.4665 16.8498 31.5379 16.8396C31.6195 16.8294 31.6908 16.8243 31.752 16.8243C31.8744 16.8243 31.9763 16.8549 32.0579 16.916C32.1395 16.967 32.2058 17.0333 32.2568 17.1149C32.3179 17.1863 32.3587 17.2678 32.3791 17.3596C32.3995 17.4412 32.4097 17.5125 32.4097 17.5737C32.4097 17.6655 32.3995 17.7777 32.3791 17.9102C32.3587 18.0326 32.2822 18.1753 32.1497 18.3385C32.0987 18.3894 31.9254 18.5271 31.6297 18.7514C31.3442 18.9757 30.972 19.2409 30.5131 19.5468C30.0543 19.8526 29.519 20.1789 28.9072 20.5256C28.3056 20.8621 27.6632 21.1731 26.98 21.4586C26.3071 21.7441 25.6035 21.9786 24.8694 22.1622C24.1352 22.3559 23.4113 22.4528 22.6975 22.4528C22.0857 22.4528 21.5402 22.3355 21.061 22.101C20.5919 21.8665 20.1891 21.5504 19.8527 21.1527C19.5264 20.755 19.2766 20.2962 19.1032 19.7762C18.9299 19.2562 18.8432 18.7106 18.8432 18.1396C18.8432 17.7012 18.9299 17.2219 19.1032 16.7019C19.2766 16.1717 19.5264 15.6415 19.8527 15.1113C20.179 14.581 20.5766 14.0661 21.0457 13.5665C21.5249 13.0567 22.0602 12.608 22.6516 12.2205C23.243 11.8331 23.8905 11.5221 24.5941 11.2876C25.3078 11.053 26.0675 10.9358 26.873 10.9358Z" fill="#333333"></path>
<path d="M35.1628 13.4594C35.7848 13.7857 36.3405 14.1579 36.8299 14.5759C37.3193 14.994 37.7323 15.4375 38.0688 15.9066C38.4155 16.3654 38.6755 16.8345 38.8488 17.3137C39.0324 17.7929 39.1241 18.262 39.1241 18.7208C39.1241 19.302 38.9559 19.8272 38.6194 20.2962C38.2931 20.755 37.8598 21.1476 37.3193 21.4739C36.7891 21.79 36.1773 22.0296 35.484 22.1928C34.8008 22.3661 34.1074 22.4528 33.4039 22.4528C32.8736 22.4528 32.3587 22.3916 31.8591 22.2692C31.3595 22.1571 30.9006 21.9786 30.4826 21.7339C30.0747 21.4892 29.7229 21.1782 29.4272 20.8009C29.1315 20.4135 28.9225 19.9546 28.8001 19.4244C28.7797 19.3428 28.7695 19.2765 28.7695 19.2256C28.7695 18.9503 28.8664 18.7157 29.0601 18.522C29.2539 18.3181 29.468 18.2161 29.7025 18.2161C29.8147 18.2161 29.937 18.2365 30.0696 18.2773C30.2123 18.3181 30.3194 18.4098 30.3908 18.5526C30.5233 18.7973 30.7069 19.0165 30.9414 19.2103C31.1861 19.404 31.4563 19.5722 31.752 19.715C32.0477 19.8475 32.3587 19.9546 32.685 20.0362C33.0215 20.1076 33.3478 20.1432 33.6639 20.1432C33.9902 20.1432 34.3012 20.1127 34.5969 20.0515C34.9028 19.9903 35.1679 19.8934 35.3922 19.7609C35.6267 19.6283 35.8102 19.4601 35.9428 19.2562C36.0754 19.0522 36.1416 18.8024 36.1416 18.5067C36.1416 17.9867 36.0244 17.5074 35.7899 17.069C35.5553 16.6305 35.2494 16.2278 34.8722 15.8607C34.5051 15.4834 34.0819 15.1367 33.6027 14.8207C33.1337 14.4944 32.6646 14.1834 32.1956 13.8877C32.1446 13.8571 32.0681 13.7704 31.9662 13.6277C31.8642 13.4747 31.8132 13.3218 31.8132 13.1688C31.8132 13.0465 31.8438 12.9496 31.905 12.8782C32.0681 12.6641 32.2568 12.4449 32.4709 12.2205C32.685 11.9962 32.9144 11.7923 33.1591 11.6087C33.4039 11.415 33.669 11.2621 33.9545 11.1499C34.24 11.0275 34.5357 10.9664 34.8416 10.9664C35.0659 10.9664 35.2749 10.997 35.4687 11.0581C35.6624 11.1193 35.8255 11.2009 35.9581 11.3028C36.0907 11.3946 36.1926 11.5017 36.264 11.624C36.3456 11.7362 36.3864 11.8433 36.3864 11.9452C36.3864 12.088 36.3507 12.2256 36.2793 12.3582C36.2079 12.4907 36.111 12.6182 35.9887 12.7406C35.8765 12.8629 35.744 12.9853 35.591 13.1076C35.4483 13.23 35.3055 13.3473 35.1628 13.4594Z" fill="#333333"></path>
<path d="M44.6914 13.5665C44.3142 14.3006 43.9573 15.0195 43.6208 15.723C43.2843 16.4164 42.9682 17.0588 42.6725 17.6502C42.5502 17.8949 42.4278 18.1804 42.3054 18.5067C42.1933 18.8228 42.1372 19.1032 42.1372 19.3479C42.1372 19.4907 42.1678 19.6028 42.229 19.6844C42.3003 19.766 42.4125 19.8068 42.5655 19.8068C42.7796 19.8068 43.0498 19.7456 43.3761 19.6232C43.7024 19.4907 44.0541 19.3224 44.4314 19.1185C44.8087 18.9044 45.2064 18.6648 45.6244 18.3996C46.0425 18.1243 46.4503 17.8439 46.848 17.5584C47.2559 17.2627 47.6433 16.9721 48.0104 16.6866C48.3775 16.3909 48.7038 16.1207 48.9893 15.876C49.1524 15.7638 49.3054 15.7078 49.4481 15.7078C49.6215 15.7078 49.7642 15.7842 49.8764 15.9372C49.9885 16.0901 50.0446 16.2839 50.0446 16.5184C50.0446 16.7529 49.9885 16.9925 49.8764 17.2372C49.7642 17.482 49.5603 17.7216 49.2646 17.9561C48.6018 18.5577 47.9288 19.1287 47.2457 19.6691C46.5727 20.2095 45.8997 20.6888 45.2268 21.1068C44.564 21.5147 43.9063 21.841 43.2537 22.0857C42.6011 22.3304 41.969 22.4528 41.3572 22.4528C40.9493 22.4528 40.6077 22.3967 40.3324 22.2845C40.0571 22.1826 39.8328 22.0398 39.6594 21.8563C39.4963 21.6625 39.379 21.4433 39.3077 21.1986C39.2363 20.9437 39.2006 20.6735 39.2006 20.388C39.2006 19.8781 39.2873 19.3479 39.4606 18.7973C39.6339 18.2467 39.8277 17.7522 40.0418 17.3137C40.3477 16.6815 40.6485 16.0544 40.9442 15.4324C41.2501 14.8105 41.5458 14.214 41.8313 13.643H41.1736C40.6026 13.643 40.2101 13.5512 39.9959 13.3676C39.7818 13.1841 39.6747 12.9751 39.6747 12.7406C39.6747 12.6386 39.7053 12.5162 39.7665 12.3735C39.8379 12.2205 39.9347 12.0829 40.0571 11.9605C40.1897 11.828 40.3477 11.7158 40.5312 11.624C40.7148 11.5323 40.9238 11.4864 41.1583 11.4864H42.8102L46.0374 5.07786C46.2413 4.69039 46.4911 4.41509 46.7868 4.25194C47.0927 4.0786 47.4088 3.99193 47.7351 3.99193C48.041 3.99193 48.3214 4.0735 48.5763 4.23665C48.8312 4.39979 48.9587 4.67 48.9587 5.04727C48.9587 5.24101 48.9128 5.43984 48.821 5.64377C48.7395 5.8375 48.6273 6.06693 48.4845 6.33204C48.3928 6.50538 48.2806 6.71441 48.1481 6.95912C48.0155 7.19364 47.8728 7.44856 47.7198 7.72386C47.5771 7.98897 47.4241 8.26938 47.261 8.56508C47.108 8.86078 46.9551 9.14628 46.8021 9.42159C46.4554 10.0742 46.0884 10.7624 45.7009 11.4864H50.687C50.9317 11.4864 51.156 11.5017 51.36 11.5323C51.5639 11.5527 51.7372 11.6036 51.88 11.6852C52.0329 11.7566 52.1502 11.8586 52.2318 11.9911C52.3133 12.1237 52.3541 12.3021 52.3541 12.5264C52.3541 12.6386 52.3337 12.7508 52.293 12.8629C52.2624 12.9751 52.1961 13.077 52.0941 13.1688C52.0024 13.2606 51.8698 13.3371 51.6965 13.3982C51.5333 13.4594 51.3192 13.5002 51.0541 13.5206L44.6914 13.5665Z" fill="#333333"></path>
<path d="M74.8069 2.75305C74.8069 3.02836 74.761 3.35974 74.6693 3.74721C74.5877 4.13468 74.4653 4.53745 74.3022 4.9555C74.139 5.37356 73.9402 5.79162 73.7057 6.20968C73.4814 6.61754 73.2214 6.98971 72.9257 7.3262C72.63 7.65249 72.3088 7.9176 71.9621 8.12153C71.6154 8.32546 71.2432 8.42743 70.8456 8.42743C70.7538 8.42743 70.6314 8.42233 70.4785 8.41213C70.3357 8.39174 70.1879 8.35605 70.0349 8.30507C69.8922 8.24389 69.7647 8.15722 69.6526 8.04505C69.5506 7.93289 69.4996 7.78504 69.4996 7.60151C69.4996 7.47915 69.5302 7.3364 69.5914 7.17325C69.6628 7.01011 69.7851 6.82147 69.9585 6.60734C70.142 6.40341 70.3408 6.16379 70.555 5.88849C70.7691 5.60298 70.9628 5.30728 71.1362 5.00139C71.3095 4.69549 71.4523 4.39469 71.5644 4.09899C71.6868 3.80329 71.748 3.53818 71.748 3.30366C71.748 3.00796 71.6766 2.77344 71.5338 2.6001C71.4013 2.41656 71.1667 2.3248 70.8303 2.3248C70.3918 2.3248 69.8973 2.46755 69.3467 2.75305C68.7961 3.03855 68.2199 3.43112 67.6184 3.93075C67.0168 4.43038 66.405 5.01668 65.783 5.68965C65.161 6.35243 64.5594 7.06619 63.9782 7.83093C63.397 8.58547 62.8464 9.3757 62.3264 10.2016C61.8165 11.0173 61.3679 11.828 60.9804 12.6335C60.6031 13.4288 60.3023 14.1987 60.078 14.943C59.8639 15.6772 59.7568 16.345 59.7568 16.9466C59.7568 17.691 59.9557 18.2875 60.3533 18.7361C60.751 19.1848 61.4087 19.4091 62.3264 19.4091C62.7546 19.4091 63.3919 19.246 64.2382 18.9197C65.0845 18.5832 65.7881 18.2518 66.3489 17.9255C66.9199 17.589 67.4909 17.2219 68.0619 16.8243C68.6431 16.4164 69.1937 16.0289 69.7137 15.6619C70.2338 15.2846 70.7079 14.9481 71.1362 14.6524C71.5644 14.3465 71.9162 14.1324 72.1915 14.01C72.2425 13.9692 72.3037 13.9489 72.375 13.9489C72.528 13.9489 72.63 14.0763 72.6809 14.3312C72.7421 14.5759 72.7727 14.8563 72.7727 15.1724C72.7727 15.3458 72.7472 15.5599 72.6962 15.8148C72.6554 16.0595 72.5127 16.345 72.268 16.6713C72.1558 16.8039 71.9468 17.0282 71.6409 17.3443C71.335 17.6604 70.9526 18.0173 70.4938 18.4149C70.0349 18.8126 69.5098 19.2256 68.9184 19.6538C68.327 20.0821 67.6846 20.4746 66.9913 20.8315C66.3081 21.1884 65.421 21.5402 64.33 21.8869C63.2491 22.2335 62.306 22.4069 61.5004 22.4069C60.5522 22.4069 59.7415 22.2947 59.0686 22.0704C58.3956 21.8359 57.845 21.5147 57.4167 21.1068C56.9885 20.699 56.6724 20.2146 56.4684 19.6538C56.2747 19.0828 56.1778 18.4608 56.1778 17.7878C56.1778 16.9517 56.3053 16.0544 56.5602 15.096C56.8151 14.1375 57.1669 13.1637 57.6156 12.1747C58.0744 11.1856 58.6148 10.1965 59.2368 9.20746C59.869 8.2184 60.5573 7.27522 61.3016 6.37792C62.0561 5.47043 62.8566 4.62921 63.7029 3.85428C64.5492 3.07934 65.4159 2.40637 66.303 1.83536C67.1901 1.26436 68.0823 0.815708 68.9796 0.489419C69.8769 0.163129 70.7589 -1.52588e-05 71.6256 -1.52588e-05C72.0538 -1.52588e-05 72.4617 0.0509674 72.8492 0.152933C73.2366 0.244702 73.5731 0.39765 73.8586 0.611777C74.1543 0.825904 74.3838 1.11141 74.5469 1.46829C74.7202 1.81497 74.8069 2.24322 74.8069 2.75305Z" fill="#333333"></path>
<path d="M77.3153 13.643C76.836 13.643 76.3721 13.7653 75.9234 14.01C75.485 14.2446 75.0924 14.5606 74.7457 14.9583C74.4092 15.3458 74.139 15.7893 73.9351 16.289C73.7312 16.7784 73.6292 17.2831 73.6292 17.8031C73.6292 17.9969 73.6445 18.211 73.6751 18.4455C73.7057 18.6698 73.7669 18.884 73.8586 19.0879C73.9606 19.2816 74.1034 19.4448 74.2869 19.5773C74.4704 19.7099 74.7151 19.7762 75.021 19.7762C75.4901 19.7762 75.9438 19.6538 76.3823 19.4091C76.8309 19.1542 77.2286 18.8279 77.5753 18.4302C77.922 18.0224 78.1973 17.5635 78.4012 17.0537C78.6051 16.5439 78.7071 16.0289 78.7071 15.5089C78.7071 15.305 78.6918 15.096 78.6612 14.8818C78.6408 14.6575 78.5796 14.4536 78.4777 14.27C78.3859 14.0865 78.2482 13.9387 78.0647 13.8265C77.8812 13.7041 77.6314 13.643 77.3153 13.643ZM78.1106 10.9511C78.4981 10.9511 78.911 11.0021 79.3495 11.104C79.7981 11.206 80.2111 11.3793 80.5884 11.624C80.9656 11.8688 81.2766 12.195 81.5213 12.6029C81.7763 13.0006 81.9037 13.4951 81.9037 14.0865C81.9037 14.3924 81.8629 14.7442 81.7813 15.1418C81.6998 15.5293 81.5774 15.9372 81.4143 16.3654C81.5162 16.4878 81.6335 16.5745 81.7661 16.6254C81.8986 16.6764 82.0414 16.7019 82.1943 16.7019C82.4084 16.7019 82.643 16.6407 82.8979 16.5184C83.163 16.396 83.4332 16.238 83.7085 16.0442C83.9838 15.8505 84.2591 15.6313 84.5344 15.3866C84.8097 15.1418 85.0697 14.8971 85.3145 14.6524C85.5592 14.4077 85.7784 14.1783 85.9721 13.9641C86.1761 13.7398 86.3443 13.5512 86.4769 13.3982C86.5482 13.3269 86.6349 13.2912 86.7369 13.2912C86.8796 13.2912 87.0071 13.3676 87.1192 13.5206C87.2314 13.6633 87.2875 13.8673 87.2875 14.1324C87.2875 14.3975 87.2059 14.7034 87.0428 15.0501C86.8898 15.3968 86.5992 15.7587 86.171 16.136C85.9262 16.4011 85.6458 16.707 85.3297 17.0537C85.0136 17.4004 84.6772 17.7267 84.3203 18.0326C83.9634 18.3385 83.5912 18.5985 83.2038 18.8126C82.8163 19.0267 82.4288 19.1338 82.0414 19.1338C81.7763 19.1338 81.5162 19.093 81.2613 19.0114C81.0166 18.9299 80.7668 18.7973 80.5119 18.6138C80.1448 19.1848 79.7267 19.7048 79.2577 20.1738C78.7887 20.6429 78.2635 21.0456 77.6823 21.3821C77.1113 21.7186 76.4893 21.9786 75.8164 22.1622C75.1536 22.3559 74.4449 22.4528 73.6904 22.4528C73.4049 22.4528 73.0735 22.3967 72.6962 22.2845C72.319 22.1724 71.957 21.9888 71.6103 21.7339C71.2738 21.4688 70.9883 21.1272 70.7538 20.7092C70.5193 20.2911 70.402 19.7813 70.402 19.1797C70.402 18.7718 70.4683 18.2824 70.6008 17.7114C70.7334 17.1404 70.9322 16.5541 71.1973 15.9525C71.4726 15.3407 71.8142 14.7391 72.2221 14.1477C72.6402 13.5461 73.1347 13.0108 73.7057 12.5417C74.2767 12.0625 74.9293 11.6801 75.6634 11.3946C76.3976 11.0989 77.2133 10.9511 78.1106 10.9511Z" fill="#333333"></path>
<path d="M90.2853 13.643C89.806 13.643 89.3421 13.7653 88.8934 14.01C88.455 14.2446 88.0624 14.5606 87.7157 14.9583C87.3792 15.3458 87.109 15.7893 86.9051 16.289C86.7012 16.7784 86.5992 17.2831 86.5992 17.8031C86.5992 17.9969 86.6145 18.211 86.6451 18.4455C86.6757 18.6698 86.7369 18.884 86.8286 19.0879C86.9306 19.2816 87.0734 19.4448 87.2569 19.5773C87.4404 19.7099 87.6851 19.7762 87.991 19.7762C88.4601 19.7762 88.9138 19.6538 89.3523 19.4091C89.8009 19.1542 90.1986 18.8279 90.5453 18.4302C90.892 18.0224 91.1673 17.5635 91.3712 17.0537C91.5751 16.5439 91.6771 16.0289 91.6771 15.5089C91.6771 15.305 91.6618 15.096 91.6312 14.8818C91.6108 14.6575 91.5496 14.4536 91.4477 14.27C91.3559 14.0865 91.2182 13.9387 91.0347 13.8265C90.8512 13.7041 90.6014 13.643 90.2853 13.643ZM91.0806 10.9511C91.4681 10.9511 91.881 11.0021 92.3195 11.104C92.7681 11.206 93.1811 11.3793 93.5583 11.624C93.9356 11.8688 94.2466 12.195 94.4913 12.6029C94.7462 13.0006 94.8737 13.4951 94.8737 14.0865C94.8737 14.3924 94.8329 14.7442 94.7514 15.1418C94.6698 15.5293 94.5474 15.9372 94.3843 16.3654C94.4862 16.4878 94.6035 16.5745 94.7361 16.6254C94.8686 16.6764 95.0114 16.7019 95.1643 16.7019C95.3784 16.7019 95.613 16.6407 95.8679 16.5184C96.133 16.396 96.4032 16.238 96.6785 16.0442C96.9538 15.8505 97.2291 15.6313 97.5044 15.3866C97.7797 15.1418 98.0397 14.8971 98.2844 14.6524C98.5292 14.4077 98.7484 14.1783 98.9421 13.9641C99.1461 13.7398 99.3143 13.5512 99.4469 13.3982C99.5182 13.3269 99.6049 13.2912 99.7069 13.2912C99.8496 13.2912 99.9771 13.3676 100.089 13.5206C100.201 13.6633 100.257 13.8673 100.257 14.1324C100.257 14.3975 100.176 14.7034 100.013 15.0501C99.8598 15.3968 99.5692 15.7587 99.141 16.136C98.8962 16.4011 98.6158 16.707 98.2997 17.0537C97.9837 17.4004 97.6472 17.7267 97.2903 18.0326C96.9334 18.3385 96.5612 18.5985 96.1738 18.8126C95.7863 19.0267 95.3988 19.1338 95.0114 19.1338C94.7462 19.1338 94.4862 19.093 94.2313 19.0114C93.9866 18.9299 93.7368 18.7973 93.4819 18.6138C93.1148 19.1848 92.6967 19.7048 92.2277 20.1738C91.7587 20.6429 91.2335 21.0456 90.6523 21.3821C90.0813 21.7186 89.4593 21.9786 88.7864 22.1622C88.1236 22.3559 87.4149 22.4528 86.6604 22.4528C86.3749 22.4528 86.0435 22.3967 85.6662 22.2845C85.289 22.1724 84.927 21.9888 84.5803 21.7339C84.2438 21.4688 83.9583 21.1272 83.7238 20.7092C83.4893 20.2911 83.372 19.7813 83.372 19.1797C83.372 18.7718 83.4383 18.2824 83.5708 17.7114C83.7034 17.1404 83.9022 16.5541 84.1673 15.9525C84.4426 15.3407 84.7842 14.7391 85.1921 14.1477C85.6102 13.5461 86.1047 13.0108 86.6757 12.5417C87.2467 12.0625 87.8993 11.6801 88.6334 11.3946C89.3676 11.0989 90.1833 10.9511 91.0806 10.9511Z" fill="#333333"></path>
<path d="M101.527 14.2395C101.914 13.8418 102.322 13.4492 102.751 13.0618C103.189 12.6641 103.643 12.3123 104.112 12.0064C104.591 11.6903 105.091 11.4354 105.611 11.2417C106.131 11.0479 106.676 10.9511 107.247 10.9511C107.584 10.9511 107.93 10.9919 108.287 11.0734C108.644 11.1448 108.965 11.2672 109.251 11.4405C109.547 11.6138 109.786 11.8382 109.97 12.1135C110.153 12.3888 110.245 12.7253 110.245 13.1229C110.245 13.7755 110.092 14.3669 109.786 14.8971C109.49 15.4274 109.103 15.9015 108.624 16.3195C108.145 16.7376 107.609 17.1098 107.018 17.4361C106.437 17.7522 105.866 18.0224 105.305 18.2467C105.162 18.3079 105.029 18.3894 104.907 18.4914C104.785 18.5832 104.678 18.6851 104.586 18.7973C104.504 18.8993 104.438 19.0063 104.387 19.1185C104.336 19.2205 104.311 19.3071 104.311 19.3785C104.311 19.5009 104.346 19.6079 104.418 19.6997C104.499 19.7813 104.637 19.8221 104.831 19.8221C105.208 19.8221 105.636 19.7456 106.115 19.5926C106.595 19.4397 107.15 19.2103 107.783 18.9044C108.425 18.5883 109.154 18.1906 109.97 17.7114C110.796 17.2321 111.744 16.6662 112.815 16.0137C112.988 15.9117 113.151 15.8607 113.304 15.8607C113.498 15.8607 113.651 15.9321 113.763 16.0748C113.875 16.2176 113.931 16.4062 113.931 16.6407C113.931 16.9262 113.824 17.2525 113.61 17.6196C113.406 17.9765 113.059 18.3181 112.57 18.6444C111.887 19.0624 111.188 19.4958 110.474 19.9444C109.761 20.3931 109.027 20.806 108.272 21.1833C107.517 21.5504 106.742 21.8512 105.947 22.0857C105.152 22.3304 104.336 22.4528 103.5 22.4528C102.052 22.4528 101.328 21.8257 101.328 20.5715C101.328 19.9087 101.466 19.3275 101.741 18.8279C102.027 18.3181 102.368 17.8745 102.766 17.4972C103.174 17.12 103.597 16.7988 104.035 16.5337C104.474 16.2584 104.851 16.0137 105.167 15.7995C105.412 15.6568 105.641 15.5038 105.855 15.3407C106.07 15.1775 106.258 15.0093 106.421 14.836C106.595 14.6626 106.727 14.4893 106.819 14.3159C106.921 14.1324 106.972 13.9489 106.972 13.7653C106.972 13.4696 106.834 13.3218 106.559 13.3218C105.539 13.3218 104.112 14.3057 102.276 16.2737C101.858 16.7223 101.476 17.1608 101.129 17.589C100.783 18.0071 100.456 18.42 100.15 18.8279C99.8547 19.2358 99.5692 19.6334 99.2939 20.0209C99.0186 20.3982 98.7484 20.7601 98.4833 21.1068C97.688 22.0041 96.9793 22.4528 96.3573 22.4528C96.0616 22.4528 95.8475 22.3967 95.7149 22.2845C95.5824 22.1826 95.5161 21.9837 95.5161 21.688C95.5161 21.6472 95.5161 21.6065 95.5161 21.5657C95.5161 21.5249 95.5212 21.479 95.5314 21.428C95.5518 21.2241 95.6385 20.9131 95.7914 20.495C95.9443 20.077 96.133 19.6028 96.3573 19.0726C96.5918 18.5424 96.8467 17.9765 97.122 17.3749C97.4075 16.7733 97.688 16.187 97.9633 15.616C98.2386 15.0348 98.4986 14.4944 98.7433 13.9947C98.988 13.4849 99.1919 13.0618 99.3551 12.7253L104.188 2.86011C104.249 2.72756 104.341 2.6001 104.464 2.47774C104.596 2.35539 104.739 2.24832 104.892 2.15655C105.055 2.05459 105.223 1.97811 105.397 1.92713C105.58 1.86595 105.764 1.83536 105.947 1.83536C106.406 1.83536 106.722 1.92203 106.895 2.09537C107.079 2.26871 107.171 2.47774 107.171 2.72246C107.171 2.94678 107.115 3.18131 107.002 3.42602C106.901 3.67074 106.778 3.90016 106.635 4.11429C106.207 4.87903 105.779 5.69475 105.351 6.56146C104.933 7.41797 104.515 8.28977 104.096 9.17687C103.678 10.064 103.255 10.9409 102.827 11.8076C102.399 12.6641 101.965 13.4747 101.527 14.2395Z" fill="#333333"></path>
</svg>