<svg class="w100" width="102" height="33" viewBox="0 0 102 33" fill="none" xmlns="http://www.w3.org/2000/svg">
<path d="M7.02006 27.0163C5.42108 27.0163 4.16346 26.7019 3.24719 26.073C2.34889 25.4442 1.72008 24.5908 1.36076 23.5129C1.00144 22.417 0.821777 21.1593 0.821777 19.74V11.9517C0.821777 10.4606 1.00144 9.167 1.36076 8.07108C1.72008 6.97515 2.34889 6.13074 3.24719 5.53786C4.16346 4.94498 5.42108 4.64854 7.02006 4.64854C8.52921 4.64854 9.70598 4.90905 10.5504 5.43007C11.4128 5.93312 12.0236 6.66074 12.3829 7.61294C12.7422 8.56514 12.9219 9.67005 12.9219 10.9277V12.7602H9.09514V10.8738C9.09514 10.2629 9.05921 9.70599 8.98734 9.20294C8.93344 8.69989 8.76277 8.30463 8.47531 8.01718C8.20582 7.71176 7.72972 7.55904 7.04701 7.55904C6.3643 7.55904 5.86125 7.72074 5.53786 8.04413C5.23244 8.34955 5.03481 8.77175 4.94498 9.31073C4.85515 9.83175 4.81024 10.4246 4.81024 11.0894V20.5754C4.81024 21.3659 4.87312 22.0217 4.99888 22.5427C5.12464 23.0458 5.34922 23.432 5.67261 23.7015C6.01396 23.9531 6.4721 24.0788 7.04701 24.0788C7.71175 24.0788 8.17887 23.9261 8.44836 23.6207C8.73582 23.2973 8.91548 22.8751 8.98734 22.3541C9.05921 21.8331 9.09514 21.2492 9.09514 20.6024V18.6351H12.9219V20.3868C12.9219 21.6804 12.7512 22.8302 12.4099 23.8363C12.0685 24.8244 11.4667 25.6059 10.6043 26.1808C9.75988 26.7378 8.56514 27.0163 7.02006 27.0163Z" fill="#333333"></path>
<path d="M21.6275 27.0163C20.0824 27.0163 18.8517 26.7288 17.9355 26.1539C17.0192 25.579 16.3635 24.7525 15.9682 23.6746C15.5729 22.5966 15.3753 21.321 15.3753 19.8478V11.6823C15.3753 10.209 15.5729 8.95141 15.9682 7.90938C16.3635 6.84939 17.0192 6.04091 17.9355 5.48397C18.8517 4.92702 20.0824 4.64854 21.6275 4.64854C23.2085 4.64854 24.4482 4.92702 25.3465 5.48397C26.2627 6.04091 26.9185 6.84939 27.3138 7.90938C27.727 8.95141 27.9336 10.209 27.9336 11.6823V19.8748C27.9336 21.33 27.727 22.5966 27.3138 23.6746C26.9185 24.7346 26.2627 25.561 25.3465 26.1539C24.4482 26.7288 23.2085 27.0163 21.6275 27.0163ZM21.6275 24.0788C22.2922 24.0788 22.7773 23.9351 23.0828 23.6476C23.4061 23.3602 23.6217 22.9649 23.7295 22.4619C23.8373 21.9588 23.8912 21.4109 23.8912 20.818V10.766C23.8912 10.1551 23.8373 9.60717 23.7295 9.12209C23.6217 8.63701 23.4061 8.25972 23.0828 7.99023C22.7773 7.70277 22.2922 7.55904 21.6275 7.55904C20.9987 7.55904 20.5226 7.70277 20.1992 7.99023C19.8758 8.25972 19.6602 8.63701 19.5524 9.12209C19.4446 9.60717 19.3907 10.1551 19.3907 10.766V20.818C19.3907 21.4109 19.4356 21.9588 19.5255 22.4619C19.6333 22.9649 19.8489 23.3602 20.1723 23.6476C20.4956 23.9351 20.9807 24.0788 21.6275 24.0788Z" fill="#333333"></path>
<path d="M30.8839 26.7198V4.89109H34.8723V23.971H40.1543V26.7198H30.8839Z" fill="#333333"></path>
<path d="M41.1218 26.7198L45.4875 4.89109H49.7455L54.1112 26.7198H50.4192L49.5568 21.6804H45.757L44.8677 26.7198H41.1218ZM46.1613 19.1471H49.1256L47.6435 9.98446L46.1613 19.1471Z" fill="#333333"></path>
<path d="M61.6989 27.0163C60.3873 27.0163 59.2914 26.7647 58.4111 26.2617C57.5307 25.7407 56.866 24.9861 56.4168 23.998C55.9677 23.0098 55.7162 21.7971 55.6623 20.3598L59.0848 19.6861C59.1207 20.5305 59.2195 21.2761 59.3812 21.9229C59.5609 22.5697 59.8214 23.0727 60.1628 23.432C60.5221 23.7734 60.9892 23.9441 61.5641 23.9441C62.2109 23.9441 62.669 23.7554 62.9385 23.3781C63.208 22.9829 63.3427 22.4888 63.3427 21.8959C63.3427 20.9437 63.1272 20.1622 62.696 19.5514C62.2648 18.9405 61.6899 18.3297 60.9712 17.7188L58.2224 15.2934C57.4499 14.6287 56.8301 13.8921 56.3629 13.0836C55.9138 12.2572 55.6892 11.2421 55.6892 10.0384C55.6892 8.31362 56.1923 6.98413 57.1984 6.0499C58.2045 5.11566 59.5789 4.64854 61.3216 4.64854C62.3456 4.64854 63.199 4.81024 63.8817 5.13363C64.5644 5.43905 65.1034 5.87024 65.4987 6.42718C65.9119 6.98413 66.2173 7.62192 66.4149 8.34057C66.6126 9.04124 66.7383 9.78683 66.7922 10.5773L63.3966 11.1702C63.3607 10.4875 63.2799 9.87666 63.1541 9.33768C63.0463 8.7987 62.8397 8.3765 62.5343 8.07108C62.2468 7.76565 61.8156 7.61294 61.2407 7.61294C60.6478 7.61294 60.1897 7.81057 59.8663 8.20582C59.5609 8.58311 59.4082 9.05921 59.4082 9.63412C59.4082 10.3707 59.5609 10.9816 59.8663 11.4667C60.1717 11.9338 60.6119 12.4189 61.1868 12.9219L63.9087 15.3204C64.807 16.0749 65.5705 16.9643 66.1993 17.9883C66.8461 18.9944 67.1695 20.2161 67.1695 21.6534C67.1695 22.6954 66.936 23.6207 66.4688 24.4292C66.0197 25.2376 65.3819 25.8754 64.5555 26.3425C63.747 26.7917 62.7948 27.0163 61.6989 27.0163Z" fill="#333333"></path>
<g clip-path="url(#36bb7d81-0097-472a-9208-e00059e20d12clip0_7_2409)">
<path d="M86.1421 5.1776L72.457 16.3733V21.352H99.8272V16.3733L86.1421 5.1776Z" stroke="#333333" stroke-width="2.88092" stroke-miterlimit="10"></path>
<path d="M84.4347 26.3309H72.457V21.3521H77.5922H94.705H99.8272V26.3309H87.8625" stroke="#333333" stroke-width="2.88092" stroke-miterlimit="10"></path>
<path d="M72.457 16.3733H99.8272" stroke="#333333" stroke-width="2.88092" stroke-miterlimit="10"></path>
<path d="M77.592 21.3521L84.4346 26.3309L86.1419 27.569L87.8624 26.3309L94.7049 21.3521" stroke="#333333" stroke-width="2.88092" stroke-miterlimit="10"></path>
</g>
<defs>
<clipPath id="36bb7d81-0097-472a-9208-e00059e20d12clip0_7_2409">
<rect width="31.2802" height="31.2802" fill="white" transform="translate(70.502 0.733261)"></rect>
</clipPath>
</defs>
</svg>