<svg class="w100" width="81" height="31" viewBox="0 0 81 31" fill="none" xmlns="http://www.w3.org/2000/svg">
<path d="M15.7078 23.6435C15.7078 23.848 15.6737 24.0525 15.6055 24.2571C15.551 24.448 15.4896 24.6388 15.4214 24.8297C15.1215 25.6069 14.7533 26.3296 14.317 26.9977C13.8807 27.6522 13.3762 28.2181 12.8035 28.6953C12.2308 29.1726 11.5831 29.5475 10.8605 29.8202C10.1378 30.0929 9.34013 30.2293 8.46747 30.2293C7.30848 30.2293 6.31311 29.9839 5.48136 29.493C4.64961 29.0021 3.94058 28.3681 3.35426 27.5909C2.76795 26.8 2.2839 25.9206 1.90211 24.9525C1.53396 23.9844 1.24081 23.0163 1.02264 22.0482C0.695396 20.6437 0.443145 19.2393 0.265887 17.8349C0.0886289 16.4168 0 14.9987 0 13.5807C0 12.7489 0.0340881 11.8899 0.102264 11.0036C0.184075 10.1173 0.320428 9.24468 0.511321 8.38566C0.702214 7.51301 0.961283 6.67444 1.28853 5.86996C1.61577 5.05185 2.02483 4.30191 2.5157 3.62015C3.00657 2.92475 3.58606 2.31117 4.25419 1.7794C4.93595 1.24762 5.72679 0.831748 6.62672 0.531774C6.95396 0.409057 7.29484 0.327245 7.64936 0.28634C8.00387 0.231799 8.35839 0.204528 8.71291 0.204528C9.42194 0.204528 10.0969 0.320428 10.7377 0.552226C11.3786 0.784025 11.9376 1.11127 12.4149 1.53396C12.9057 1.95665 13.2875 2.46797 13.5602 3.06792C13.8466 3.66787 13.9897 4.336 13.9897 5.0723C13.9897 5.31774 13.9352 5.50181 13.8261 5.62453C13.717 5.74725 13.5261 5.8086 13.2534 5.8086C12.7489 5.8086 12.3535 5.72679 12.0672 5.56317C11.7945 5.39955 11.5695 5.19502 11.3922 4.94958C11.215 4.70415 11.065 4.43826 10.9423 4.15192C10.8332 3.86559 10.6968 3.5997 10.5332 3.35426C10.3696 3.10883 10.1514 2.9043 9.87872 2.74068C9.60601 2.57706 9.23104 2.49525 8.75381 2.49525C8.27658 2.49525 7.82662 2.59069 7.40393 2.78158C6.99487 2.95884 6.61308 3.19746 6.25857 3.49743C5.91769 3.79741 5.60408 4.13829 5.31774 4.52008C5.04503 4.88823 4.7996 5.2632 4.58143 5.64498C4.00876 6.70853 3.60652 7.84707 3.37472 9.0606C3.14292 10.2605 3.02702 11.4672 3.02702 12.6808C3.02702 13.0898 3.04065 13.6216 3.06792 14.2761C3.10883 14.9169 3.16337 15.626 3.23155 16.4032C3.31336 17.1804 3.42244 18.0053 3.55879 18.878C3.69515 19.737 3.85877 20.5824 4.04966 21.4141C4.25419 22.2459 4.49281 23.0435 4.76551 23.8071C5.05185 24.5707 5.37228 25.2388 5.72679 25.8115C6.09494 26.3842 6.504 26.8409 6.95396 27.1818C7.41756 27.5227 7.9357 27.6931 8.50838 27.6931C9.09469 27.6931 9.61283 27.5431 10.0628 27.2432C10.5128 26.9296 10.8945 26.541 11.2082 26.0774C11.5354 25.6001 11.8013 25.0888 12.0058 24.5434C12.224 23.9844 12.3944 23.4662 12.5171 22.989C12.558 22.8526 12.5921 22.7299 12.6194 22.6208C12.6603 22.5117 12.708 22.4163 12.7626 22.3345C12.8307 22.2527 12.9126 22.1913 13.008 22.1504C13.1034 22.1095 13.2398 22.0891 13.4171 22.0891C13.608 22.0891 13.8329 22.13 14.092 22.2118C14.3647 22.28 14.617 22.3822 14.8488 22.5186C15.0942 22.6549 15.2987 22.8185 15.4623 23.0094C15.626 23.2003 15.7078 23.4117 15.7078 23.6435Z" fill="#333333"></path>
<path d="M25.4638 21.3118C25.4638 22.4981 25.3615 23.6844 25.157 24.8706C24.9661 26.0433 24.5639 27.1545 23.9503 28.2045C23.7594 28.5181 23.5412 28.8249 23.2958 29.1248C23.0503 29.4112 22.7776 29.6702 22.4777 29.902C22.1913 30.1475 21.8709 30.3384 21.5164 30.4747C21.1755 30.6247 20.8142 30.6997 20.4324 30.6997C19.8324 30.6997 19.3075 30.5565 18.8575 30.2702C18.4212 29.9975 18.0394 29.6362 17.7122 29.1862C17.3985 28.7226 17.1327 28.2045 16.9145 27.6318C16.71 27.0455 16.5463 26.4523 16.4236 25.8524C16.3145 25.2388 16.2327 24.6457 16.1782 24.073C16.1373 23.5003 16.1168 22.9958 16.1168 22.5595C16.1168 22.0686 16.1373 21.53 16.1782 20.9437C16.2191 20.3574 16.2873 19.7574 16.3827 19.1439C16.4918 18.5303 16.6282 17.9235 16.7918 17.3235C16.969 16.7236 17.194 16.1646 17.4667 15.6464C17.7394 15.1146 18.0667 14.6442 18.4485 14.2352C18.8302 13.8125 19.2734 13.4784 19.7779 13.233V13.2534C20.2142 13.0216 20.6505 12.9057 21.0869 12.9057C21.3596 12.9057 21.5709 12.9671 21.7209 13.0898C21.8709 13.1989 21.9391 13.3898 21.9254 13.6625C22.6754 13.7988 23.2821 14.1602 23.7457 14.7465C24.2093 15.3328 24.5639 16.0146 24.8093 16.7918C25.0684 17.569 25.2388 18.3666 25.3206 19.1848C25.4161 20.0029 25.4638 20.7119 25.4638 21.3118ZM20.8414 16.1986C20.6096 16.1986 20.3915 16.11 20.1869 15.9328C19.9279 16.3282 19.7097 16.785 19.5325 17.3031C19.3552 17.8076 19.212 18.3326 19.1029 18.878C19.0075 19.4097 18.9393 19.9483 18.8984 20.4937C18.8575 21.0391 18.8371 21.5505 18.8371 22.0277C18.8371 22.4231 18.8575 22.9344 18.8984 23.5617C18.9393 24.1752 19.0143 24.7956 19.1234 25.4229C19.2461 26.0501 19.4097 26.6364 19.6143 27.1818C19.8324 27.7272 20.112 28.1295 20.4528 28.3885C20.8755 28.1431 21.2232 27.7545 21.4959 27.2227C21.7823 26.6773 22.0072 26.0842 22.1709 25.4433C22.3345 24.8025 22.4436 24.1548 22.4981 23.5003C22.5663 22.8458 22.6004 22.2868 22.6004 21.8232C22.6004 21.4823 22.5799 21.0391 22.539 20.4937C22.4981 19.9483 22.4299 19.3961 22.3345 18.8371C22.239 18.2644 22.1027 17.7326 21.9254 17.2417C21.7618 16.7509 21.5505 16.3827 21.2914 16.1373C21.1687 16.1782 21.0187 16.1986 20.8414 16.1986Z" fill="#333333"></path>
<path d="M35.8538 21.3118C35.8538 22.4981 35.7516 23.6844 35.547 24.8706C35.3561 26.0433 34.9539 27.1545 34.3403 28.2045C34.1494 28.5181 33.9312 28.8249 33.6858 29.1248C33.4404 29.4112 33.1677 29.6702 32.8677 29.902C32.5814 30.1475 32.2609 30.3384 31.9064 30.4747C31.5655 30.6247 31.2042 30.6997 30.8224 30.6997C30.2225 30.6997 29.6975 30.5565 29.2476 30.2702C28.8112 29.9975 28.4294 29.6362 28.1022 29.1862C27.7886 28.7226 27.5227 28.2045 27.3045 27.6318C27.1 27.0455 26.9364 26.4523 26.8137 25.8524C26.7046 25.2388 26.6228 24.6457 26.5682 24.073C26.5273 23.5003 26.5069 22.9958 26.5069 22.5595C26.5069 22.0686 26.5273 21.53 26.5682 20.9437C26.6091 20.3574 26.6773 19.7574 26.7728 19.1439C26.8818 18.5303 27.0182 17.9235 27.1818 17.3235C27.3591 16.7236 27.5841 16.1646 27.8568 15.6464C28.1295 15.1146 28.4567 14.6442 28.8385 14.2352C29.2203 13.8125 29.6634 13.4784 30.1679 13.233V13.2534C30.6043 13.0216 31.0406 12.9057 31.4769 12.9057C31.7496 12.9057 31.961 12.9671 32.1109 13.0898C32.2609 13.1989 32.3291 13.3898 32.3155 13.6625C33.0654 13.7988 33.6722 14.1602 34.1358 14.7465C34.5994 15.3328 34.9539 16.0146 35.1993 16.7918C35.4584 17.569 35.6288 18.3666 35.7106 19.1848C35.8061 20.0029 35.8538 20.7119 35.8538 21.3118ZM31.2315 16.1986C30.9997 16.1986 30.7815 16.11 30.577 15.9328C30.3179 16.3282 30.0998 16.785 29.9225 17.3031C29.7452 17.8076 29.6021 18.3326 29.493 18.878C29.3975 19.4097 29.3294 19.9483 29.2885 20.4937C29.2476 21.0391 29.2271 21.5505 29.2271 22.0277C29.2271 22.4231 29.2476 22.9344 29.2885 23.5617C29.3294 24.1752 29.4044 24.7956 29.5134 25.4229C29.6362 26.0501 29.7998 26.6364 30.0043 27.1818C30.2225 27.7272 30.502 28.1295 30.8429 28.3885C31.2656 28.1431 31.6133 27.7545 31.886 27.2227C32.1723 26.6773 32.3973 26.0842 32.5609 25.4433C32.7245 24.8025 32.8336 24.1548 32.8882 23.5003C32.9563 22.8458 32.9904 22.2868 32.9904 21.8232C32.9904 21.4823 32.97 21.0391 32.9291 20.4937C32.8882 19.9483 32.82 19.3961 32.7245 18.8371C32.6291 18.2644 32.4927 17.7326 32.3155 17.2417C32.1519 16.7509 31.9405 16.3827 31.6814 16.1373C31.5587 16.1782 31.4087 16.1986 31.2315 16.1986Z" fill="#333333"></path>
<path d="M47.3892 30.0043C47.3892 30.1543 47.3074 30.2906 47.1438 30.4134C46.9802 30.5361 46.7893 30.6383 46.5711 30.7202C46.3666 30.802 46.1552 30.8633 45.9371 30.9042C45.7189 30.9588 45.5485 30.986 45.4257 30.986C45.1939 30.986 44.9826 30.9383 44.7917 30.8429C44.6008 30.7611 44.4236 30.652 44.2599 30.5156C44.0963 30.3793 43.9395 30.2293 43.7895 30.0657C43.6532 29.902 43.5236 29.7384 43.4009 29.5748C42.9237 28.9885 42.4328 28.334 41.9283 27.6113C41.4238 26.8887 40.9738 26.2001 40.5784 25.5456C40.5784 25.6001 40.5852 25.6683 40.5989 25.7501C40.6125 25.8319 40.6193 25.9001 40.6193 25.9546C40.6466 26.241 40.667 26.5273 40.6807 26.8137C40.708 27.0864 40.742 27.3659 40.7829 27.6522C40.7966 27.8158 40.8102 27.9795 40.8239 28.1431C40.8511 28.2931 40.8784 28.4567 40.9057 28.634C40.9329 28.8521 40.9602 29.0703 40.9875 29.2885C41.0147 29.5066 41.0284 29.7316 41.0284 29.9634C41.0284 30.2497 40.9466 30.4406 40.7829 30.5361C40.6193 30.6452 40.4012 30.6997 40.1285 30.6997C39.9376 30.6997 39.733 30.6861 39.5149 30.6588C39.2967 30.6315 39.0854 30.577 38.8808 30.4952C38.6763 30.4134 38.4922 30.3043 38.3286 30.1679C38.165 30.0316 38.0423 29.8543 37.9605 29.6362C37.9196 29.4725 37.8786 29.1657 37.8377 28.7158C37.7968 28.2658 37.7627 27.7681 37.7355 27.2227C37.7082 26.6637 37.6809 26.1046 37.6537 25.5456C37.64 24.9865 37.6264 24.5229 37.6128 24.1548C37.6128 24.073 37.6059 24.0048 37.5923 23.9503C37.5923 23.8957 37.5923 23.8412 37.5923 23.7866C37.4832 23.6912 37.3878 23.5753 37.306 23.4389C37.2242 23.3026 37.1833 23.1731 37.1833 23.0503C37.1833 22.8731 37.2173 22.7163 37.2855 22.5799C37.3537 22.4436 37.4287 22.314 37.5105 22.1913C37.4287 20.5142 37.3878 18.8439 37.3878 17.1804C37.3878 15.8032 37.4014 14.4397 37.4287 13.0898C37.4696 11.7263 37.5037 10.3628 37.5309 8.99925L37.5923 6.25857C37.6059 6.12221 37.6128 5.94496 37.6128 5.72679C37.6128 5.50863 37.6128 5.27683 37.6128 5.0314C37.6128 4.73142 37.6128 4.41781 37.6128 4.09057C37.6128 3.76332 37.6196 3.45653 37.6332 3.17019C37.6468 2.88385 37.6605 2.62478 37.6741 2.39298C37.6878 2.16118 37.715 1.99074 37.7559 1.88166V1.90211C37.8105 1.69758 37.8855 1.5476 37.9809 1.45215C38.0764 1.3567 38.24 1.30898 38.4718 1.30898C39.0445 1.30898 39.4876 1.47942 39.8012 1.8203C40.1148 2.16118 40.2716 2.61796 40.2716 3.19064C40.2716 4.1042 40.2648 5.01776 40.2512 5.93132C40.2512 6.83125 40.2444 7.73799 40.2307 8.65155C40.2171 9.56511 40.2034 10.4787 40.1898 11.3922C40.1898 12.2922 40.1898 13.1989 40.1898 14.1125C40.1898 14.4397 40.1898 14.7738 40.1898 15.1146C40.2034 15.4419 40.2103 15.776 40.2103 16.1168C40.2239 16.3895 40.2307 16.6691 40.2307 16.9554C40.2307 17.2417 40.2307 17.5417 40.2307 17.8553L42.4396 14.3374V14.3579L42.6237 13.9897C42.6646 13.9216 42.6851 13.8738 42.6851 13.8466C42.6987 13.8193 42.7123 13.7852 42.726 13.7443C42.7532 13.6898 42.801 13.608 42.8691 13.4989C42.9509 13.3898 43.0873 13.2262 43.2782 13.008C43.3464 12.9398 43.4282 12.8785 43.5236 12.8239C43.6191 12.7694 43.7418 12.7421 43.8918 12.7421C44.0418 12.7421 44.1918 12.7898 44.3417 12.8853C44.5054 12.9671 44.6485 13.0762 44.7713 13.2125C44.894 13.3489 44.9962 13.4989 45.078 13.6625C45.1599 13.8261 45.2008 13.9761 45.2008 14.1125C45.2008 14.2215 45.1394 14.4124 45.0167 14.6851C44.894 14.9442 44.7303 15.2646 44.5258 15.6464C44.3349 16.0282 44.1168 16.4441 43.8713 16.894C43.6259 17.3304 43.3668 17.7735 43.0941 18.2235C42.835 18.6734 42.5828 19.1098 42.3374 19.5325C42.0919 19.9551 41.8738 20.3301 41.6829 20.6574L41.1511 21.5164C41.4647 22.0618 41.826 22.6686 42.2351 23.3367C42.6578 23.9912 43.1009 24.6525 43.5645 25.3206C44.0281 25.9887 44.4985 26.6296 44.9758 27.2432C45.4666 27.8568 45.9439 28.3953 46.4075 28.8589L46.612 29.0226C46.7756 29.1453 46.9461 29.2953 47.1233 29.4725C47.3006 29.6362 47.3892 29.8134 47.3892 30.0043Z" fill="#333333"></path>
<path d="M63.5879 29.7384C63.5879 30.0111 63.5197 30.2293 63.3833 30.3929C63.2606 30.5565 63.0424 30.6383 62.7288 30.6383C62.5652 30.6383 62.3948 30.6179 62.2175 30.577C62.0403 30.5497 61.8698 30.502 61.7062 30.4338C61.3653 30.3384 61.0926 30.2497 60.8881 30.1679C60.6972 30.0861 60.5472 29.977 60.4381 29.8407C60.3427 29.718 60.2813 29.5543 60.254 29.3498C60.2268 29.1453 60.2063 28.8658 60.1927 28.5112C60.0836 25.716 59.9609 22.9481 59.8245 20.2074C59.7018 17.4531 59.4973 14.6851 59.2109 11.9035C59.0201 12.8444 58.836 13.7852 58.6587 14.726C58.4815 15.6669 58.2974 16.6213 58.1065 17.5894C57.9156 18.5984 57.7315 19.6279 57.5543 20.6778C57.3906 21.7277 57.1248 22.7435 56.7566 23.7253C56.6066 24.1207 56.4225 24.4343 56.2044 24.6661C55.9862 24.8843 55.6522 24.9934 55.2022 24.9934C54.875 24.9934 54.6091 24.9388 54.4045 24.8297C54.2 24.707 54.0023 24.5298 53.8114 24.298C53.6341 24.1071 53.4433 23.7389 53.2387 23.1935C53.0342 22.6481 52.816 22.0141 52.5842 21.2914C52.3661 20.5551 52.1479 19.7711 51.9297 18.9393C51.7116 18.1076 51.507 17.3099 51.3162 16.5463C51.1253 15.7691 50.9548 15.0601 50.8048 14.4192C50.6548 13.7784 50.5389 13.2943 50.4571 12.9671V15.7487C50.4571 17.5622 50.4912 19.3688 50.5594 21.1687C50.6276 22.9685 50.7435 24.7616 50.9071 26.5478C50.948 26.9432 51.0025 27.3386 51.0707 27.734C51.1525 28.1295 51.1934 28.5249 51.1934 28.9203C51.1934 29.2748 51.0707 29.5066 50.8253 29.6157C50.5935 29.7248 50.3344 29.7793 50.0481 29.7793C49.2709 29.7793 48.6709 29.6157 48.2482 29.2885C47.8392 28.9476 47.6346 28.3749 47.6346 27.5704C47.6346 25.9206 47.5937 24.2843 47.5119 22.6617C47.4301 21.0391 47.3892 19.4029 47.3892 17.7531C47.3892 17.5213 47.3892 17.119 47.3892 16.5463C47.4028 15.9737 47.4165 15.2987 47.4301 14.5215C47.4438 13.7307 47.4574 12.8785 47.471 11.9649C47.4983 11.0377 47.5256 10.1037 47.5528 9.16287C47.5801 8.22204 47.6074 7.30848 47.6346 6.42219C47.6619 5.52226 47.6892 4.71779 47.7165 4.00875C47.7437 3.29972 47.771 2.71341 47.7983 2.24981C47.8392 1.77258 47.8801 1.48624 47.921 1.39079C47.9892 1.1999 48.0642 1.07718 48.146 1.02264C48.2414 0.968101 48.3846 0.94083 48.5755 0.94083C49.0936 0.94083 49.5231 1.05673 49.864 1.28853C50.2185 1.50669 50.4571 1.88166 50.5799 2.41343C50.7707 2.69977 50.9889 3.22473 51.2343 3.9883C51.4798 4.73824 51.7388 5.61771 52.0116 6.62672C52.2843 7.63572 52.557 8.72654 52.8297 9.89917C53.116 11.0582 53.3819 12.1763 53.6273 13.2534C53.8864 14.3306 54.1182 15.3192 54.3227 16.2191C54.5409 17.119 54.7113 17.8076 54.834 18.2848C55.2295 15.9396 55.6317 13.608 56.0408 11.29C56.4498 8.97198 56.8384 6.64035 57.2066 4.29509C57.2747 3.89967 57.3429 3.51107 57.4111 3.12928C57.4929 2.7475 57.5338 2.35889 57.5338 1.96347C57.5338 1.71804 57.4997 1.49306 57.4316 1.28853C57.3634 1.07036 57.3293 0.845384 57.3293 0.613585C57.3293 0.327245 57.4179 0.156805 57.5952 0.102264C57.7861 0.034088 57.9974 0 58.2292 0C58.4474 0 58.7064 0.034088 59.0064 0.102264C59.3064 0.17044 59.5927 0.272704 59.8654 0.409057C60.1518 0.545409 60.3904 0.715849 60.5813 0.920377C60.7858 1.12491 60.8881 1.36352 60.8881 1.63623C60.8881 2.11346 60.8472 2.61796 60.7654 3.14974C61.2562 5.45409 61.6653 7.76526 61.9925 10.0832C62.3198 12.3876 62.5652 14.7124 62.7288 17.0577C62.8925 19.0757 63.022 21.0801 63.1174 23.0708C63.2265 25.0615 63.3561 27.0523 63.506 29.043C63.5333 29.1657 63.5538 29.2816 63.5674 29.3907C63.581 29.4998 63.5879 29.6157 63.5879 29.7384Z" fill="#333333"></path>
<path d="M80.6455 25.2388C80.6455 25.4706 80.5501 25.6956 80.3592 25.9137C80.1819 26.1319 79.9638 26.3432 79.7047 26.5478C79.4456 26.7523 79.1797 26.9432 78.907 27.1205C78.6343 27.2841 78.4093 27.4204 78.2321 27.5295C77.7685 27.8295 77.3049 28.109 76.8413 28.3681C76.3913 28.6271 75.9209 28.8521 75.43 29.043C74.9528 29.2339 74.4551 29.3839 73.937 29.493C73.4325 29.6021 72.9007 29.6566 72.3417 29.6566L72.0144 29.6975C71.5645 29.6975 71.1145 29.6498 70.6645 29.5543C70.2282 29.4453 69.8192 29.2885 69.4374 29.0839C69.0556 28.8658 68.7147 28.5931 68.4147 28.2658C68.1147 27.9386 67.8829 27.5431 67.7193 27.0795C67.5966 26.7114 67.5012 26.2751 67.433 25.7706C67.3648 25.2661 67.3103 24.7411 67.2694 24.1957C67.2421 23.6503 67.2148 23.1185 67.1876 22.6004C67.1739 22.0686 67.1603 21.5982 67.1467 21.1891C66.9421 17.0168 66.7785 12.8444 66.6558 8.672C66.6285 8.19477 66.6081 7.71753 66.5944 7.2403C66.5808 6.76307 66.574 6.28584 66.574 5.8086C66.574 4.99049 66.6217 4.29509 66.7171 3.72242C66.8126 3.14974 67.0035 2.67932 67.2898 2.31117C67.5762 1.94302 67.9852 1.67713 68.517 1.51351C69.0624 1.34989 69.7782 1.26808 70.6645 1.26808C71.5508 1.26808 72.4371 1.27489 73.3234 1.28853C74.2233 1.30216 75.1233 1.30898 76.0232 1.30898C76.2959 1.30898 76.5686 1.30216 76.8413 1.28853C77.114 1.26126 77.3867 1.28171 77.6594 1.34989C77.823 1.37716 77.9662 1.42488 78.0889 1.49306C78.2116 1.5476 78.273 1.67713 78.273 1.88166C78.273 2.37253 78.1094 2.74068 77.7821 2.98611C77.4549 3.21791 77.0663 3.37472 76.6163 3.45653C76.1664 3.53834 75.6959 3.57925 75.2051 3.57925C74.7278 3.56561 74.3324 3.55879 74.0188 3.55879H71.3599C71.0872 3.55879 70.8145 3.55879 70.5418 3.55879C70.2691 3.55879 69.9964 3.57243 69.7237 3.5997C69.6419 3.80423 69.5874 4.01557 69.5601 4.23374C69.5328 4.4519 69.5192 4.67688 69.5192 4.90868C69.5192 6.39492 69.5533 7.8607 69.6214 9.30604C69.7033 10.7514 69.7782 12.2172 69.8464 13.7034C70.6918 13.6352 71.5304 13.5534 72.3621 13.458C73.1939 13.3625 74.0324 13.2534 74.8778 13.1307C75.0005 13.1307 75.1096 13.1239 75.2051 13.1103C75.3141 13.0966 75.4232 13.0898 75.5323 13.0898C75.8186 13.0898 76.0164 13.1648 76.1254 13.3148C76.2482 13.4648 76.3095 13.6761 76.3095 13.9488C76.3095 14.1397 76.2959 14.317 76.2686 14.4806C76.255 14.6442 76.2141 14.8078 76.1459 14.9715C76.0504 15.2442 75.8936 15.4419 75.6755 15.5646C75.4573 15.6873 75.2119 15.776 74.9392 15.8305C74.6665 15.8714 74.3801 15.8918 74.0802 15.8918C73.7938 15.8918 73.5416 15.8987 73.3234 15.9123C72.7507 15.9396 72.1849 15.96 71.6258 15.9737C71.0804 15.9873 70.5282 16.0077 69.9691 16.035C69.9828 16.3214 70.0032 16.7509 70.0305 17.3235C70.0578 17.8962 70.085 18.5439 70.1123 19.2666C70.1532 19.9756 70.1941 20.7119 70.235 21.4755C70.2896 22.239 70.3441 22.9617 70.3987 23.6435C70.4532 24.3116 70.5145 24.8979 70.5827 25.4024C70.6509 25.9069 70.7191 26.2478 70.7873 26.4251C70.9372 26.7114 71.1077 26.9023 71.2986 26.9977C71.4895 27.0795 71.7417 27.1205 72.0553 27.1205C72.5598 27.1205 73.0916 27.025 73.6507 26.8341C74.2097 26.6296 74.7551 26.3773 75.2869 26.0774C75.8186 25.7637 76.3232 25.4229 76.8004 25.0547C77.2913 24.6866 77.7139 24.3252 78.0685 23.9707C78.2184 23.848 78.3684 23.7253 78.5184 23.6026C78.6684 23.4662 78.8457 23.398 79.0502 23.398C79.2547 23.398 79.4524 23.4594 79.6433 23.5821C79.8342 23.7048 80.0047 23.8616 80.1546 24.0525C80.3046 24.2298 80.4205 24.4275 80.5023 24.6457C80.5978 24.8638 80.6455 25.0615 80.6455 25.2388Z" fill="#333333"></path>
</svg>