<svg class="w100" width="101" height="56" viewBox="0 0 101 56" fill="none" xmlns="http://www.w3.org/2000/svg">
<path d="M53.6802 21.3755C53.6883 21.8166 53.6137 22.2553 53.4603 22.6689C53.2219 23.3544 52.7844 23.9532 52.2037 24.3887C51.6231 24.8242 50.9258 25.0765 50.2009 25.1135H49.981C49.4942 25.1152 49.0118 25.0207 48.5615 24.8356C48.1112 24.6505 47.7019 24.3783 47.357 24.0346C47.0121 23.6909 46.7385 23.2826 46.5518 22.8329C46.3651 22.3833 46.269 21.9012 46.269 21.4143C46.2623 20.9733 46.3368 20.5349 46.4888 20.1209C47.217 20.0998 47.922 19.8604 48.5124 19.4338C49.1028 19.0071 49.5514 18.4128 49.8 17.7281H50.2526C50.4895 18.4146 50.9266 19.0143 51.5076 19.45C52.0885 19.8857 52.7867 20.1374 53.512 20.1727C53.6359 20.5612 53.6927 20.9679 53.6802 21.3755Z" stroke="#333333" stroke-width="1.35304" stroke-miterlimit="10"></path>
<path d="M61.0915 21.3755C61.0915 21.8624 60.9954 22.3445 60.8087 22.7941C60.622 23.2438 60.3483 23.6521 60.0035 23.9958C59.6586 24.3394 59.2493 24.6117 58.799 24.7968C58.3487 24.9819 57.8663 25.0764 57.3794 25.0747H57.1595C56.4347 25.0377 55.7374 24.7854 55.1567 24.3499C54.5761 23.9144 54.1386 23.3156 53.9002 22.6301C53.7467 22.2165 53.6721 21.7778 53.6803 21.3367C53.6736 20.8957 53.7482 20.4573 53.9002 20.0433C54.6103 20.0183 55.2975 19.7856 55.8768 19.3741C56.4561 18.9627 56.9021 18.3904 57.1595 17.7281H57.5605C57.7974 18.4146 58.2345 19.0143 58.8155 19.45C59.3964 19.8857 60.0945 20.1374 60.8199 20.1727C60.979 20.555 61.0709 20.9619 61.0915 21.3755Z" stroke="#333333" stroke-width="1.35304" stroke-miterlimit="10"></path>
<path d="M57.3793 26.3163C57.3793 27.2974 56.9896 28.2383 56.2958 28.932C55.6021 29.6257 54.6612 30.0155 53.6801 30.0155C52.6991 30.0155 51.7582 29.6257 51.0645 28.932C50.3707 28.2383 49.981 27.2974 49.981 26.3163C49.9677 25.8749 50.0424 25.4352 50.2009 25.0229C50.9257 24.986 51.6231 24.7337 52.2037 24.2982C52.7843 23.8627 53.2219 23.2639 53.4603 22.5784H53.9C54.1384 23.2639 54.5759 23.8627 55.1566 24.2982C55.7372 24.7337 56.4346 24.986 57.1594 25.0229C57.3179 25.4352 57.3926 25.8749 57.3793 26.3163V26.3163Z" stroke="#333333" stroke-width="1.35304" stroke-miterlimit="10"></path>
<path d="M49.9815 16.4347C50.009 16.8736 49.9474 17.3136 49.8004 17.7281C49.5635 18.4146 49.1264 19.0143 48.5455 19.45C47.9645 19.8857 47.2664 20.1374 46.5411 20.1726H46.2694C45.2884 20.1726 44.3475 19.7829 43.6538 19.0892C42.96 18.3955 42.5703 17.4546 42.5703 16.4735C42.5703 15.4924 42.96 14.5515 43.6538 13.8578C44.3475 13.1641 45.2884 12.7744 46.2694 12.7744H46.4893C46.7479 13.4504 47.1998 14.0353 47.7886 14.4562C48.3774 14.8772 49.0771 15.1154 49.8004 15.1413C49.9474 15.5558 50.009 15.9958 49.9815 16.4347V16.4347Z" stroke="#333333" stroke-width="1.35304" stroke-miterlimit="10"></path>
<path d="M53.6802 11.4939C53.6868 11.9349 53.6123 12.3733 53.4603 12.7873C53.2046 13.4541 52.7601 14.0318 52.1813 14.4499C51.6024 14.8679 50.9142 15.1082 50.2009 15.1413H49.8C49.0736 15.1134 48.3718 14.8713 47.7826 14.4456C47.1935 14.0198 46.7433 13.4294 46.4888 12.7485C46.3368 12.3345 46.2623 11.8961 46.269 11.4551C46.3248 10.5102 46.7395 9.6223 47.4283 8.97301C48.1171 8.32372 49.028 7.9621 49.9746 7.9621C50.9211 7.9621 51.832 8.32372 52.5208 8.97301C53.2096 9.6223 53.6243 10.5102 53.6802 11.4551V11.4939Z" stroke="#333333" stroke-width="1.35304" stroke-miterlimit="10"></path>
<path d="M57.3798 16.4347C57.395 16.8763 57.3202 17.3163 57.16 17.7281C56.9231 18.4146 56.4859 19.0143 55.905 19.45C55.3241 19.8857 54.6259 20.1374 53.9006 20.1726H53.4608C52.7355 20.1374 52.0373 19.8857 51.4564 19.45C50.8754 19.0143 50.4383 18.4146 50.2014 17.7281C49.9088 16.9262 49.9088 16.0467 50.2014 15.2448C50.9253 15.2045 51.6211 14.9508 52.2011 14.5158C52.7811 14.0808 53.2194 13.4839 53.4608 12.8002H53.9006C54.1583 13.4645 54.6036 14.0395 55.1823 14.4552C55.761 14.8709 56.4481 15.1093 57.16 15.1413C57.3202 15.5531 57.395 15.9931 57.3798 16.4347V16.4347Z" stroke="#333333" stroke-width="1.35304" stroke-miterlimit="10"></path>
<path d="M61.0913 11.494C61.0979 11.9349 61.0234 12.3734 60.8714 12.7874C60.6108 13.461 60.1581 14.0432 59.5694 14.4617C58.9807 14.8802 58.2821 15.1165 57.5603 15.1414H57.1076C56.3837 15.101 55.6879 14.8474 55.1079 14.4124C54.5279 13.9774 54.0896 13.3805 53.8482 12.6968C53.6962 12.2828 53.6217 11.8444 53.6283 11.4034C53.6842 10.4585 54.0989 9.57057 54.7877 8.92128C55.4765 8.27199 56.3874 7.91037 57.3339 7.91037C58.2805 7.91037 59.1914 8.27199 59.8802 8.92128C60.569 9.57057 60.9837 10.4585 61.0395 11.4034L61.0913 11.494Z" stroke="#333333" stroke-width="1.35304" stroke-miterlimit="10"></path>
<path d="M64.7912 16.4347C64.7912 17.4158 64.4014 18.3567 63.7077 19.0504C63.014 19.7441 62.0731 20.1339 61.092 20.1339H60.8721C60.1425 20.1118 59.4363 19.8705 58.8458 19.4414C58.2552 19.0123 57.8075 18.4153 57.561 17.7281C57.2231 16.899 57.2231 15.9705 57.561 15.1413C58.2844 15.0993 58.9794 14.8451 59.5591 14.4103C60.1388 13.9755 60.5775 13.3795 60.8204 12.6968H61.0403C61.5337 12.6899 62.0235 12.7817 62.4808 12.967C62.9382 13.1522 63.3539 13.4271 63.7034 13.7754C64.0529 14.1237 64.3292 14.5384 64.516 14.9951C64.7028 15.4518 64.7964 15.9413 64.7912 16.4347V16.4347Z" stroke="#333333" stroke-width="1.35304" stroke-miterlimit="10"></path>
<path d="M48.7393 2.85399C49.3881 2.85399 50.0306 2.98179 50.63 3.23008C51.2295 3.47838 51.7741 3.84232 52.2329 4.30112C52.6917 4.75991 53.0557 5.30458 53.304 5.90403C53.5523 6.50347 53.6801 7.14595 53.6801 7.79479V11.4939" stroke="#333333" stroke-width="1.35304" stroke-miterlimit="10"></path>
<path d="M25.5521 54.702L25.1862 55.8304C24.6576 55.8711 24.2611 55.8914 23.9968 55.8914C22.7769 55.8914 21.7807 55.373 21.0081 54.3361C20.2558 53.3195 19.8797 51.9878 19.8797 50.3409C19.8797 49.3447 20.1033 47.464 20.5506 44.699C21.0182 41.9136 21.557 39.3722 22.167 37.0747C22.289 36.5664 22.35 36.231 22.35 36.0683C22.35 35.9057 22.2788 35.8243 22.1365 35.8243C21.9942 35.8243 21.5367 36.5868 20.7641 38.1116C20.0118 39.6161 19.1071 41.4765 18.0499 43.6926C16.9926 45.8884 16.3827 47.1489 16.22 47.4742C16.0777 47.7792 15.9557 48.0333 15.8541 48.2366C15.7727 48.4196 15.5898 48.7653 15.3051 49.2735C15.0408 49.7615 14.7867 50.1986 14.5427 50.5849C13.8718 51.6015 13.3431 52.1098 12.9568 52.1098C12.6925 52.1098 12.3977 52.0386 12.0724 51.8963C11.7675 51.754 11.5641 51.6015 11.4625 51.4388C11.2388 51.0932 11.127 50.0156 11.127 48.2061C11.127 44.4245 11.432 40.8157 12.0419 37.3797C12.2452 36.2411 12.3469 35.6413 12.3469 35.5804C12.3469 35.377 12.2656 35.2754 12.1029 35.2754C11.7776 35.2754 11.2592 36.2919 10.5476 38.3251L9.66316 40.8563C8.36195 44.5363 7.04041 47.4031 5.69854 49.4565C4.377 51.51 2.85215 52.9535 1.12398 53.7871L0.331055 52.1098C2.3032 50.6459 3.81789 49.1516 4.87512 47.6267C5.95268 46.1018 7.12174 43.6417 8.38229 40.2464L9.41919 37.4712C10.1308 35.5397 10.7509 34.1673 11.2795 33.3541C11.8081 32.5205 12.3977 32.1037 13.0483 32.1037C14.1259 32.1037 14.6647 32.7543 14.6647 34.0555C14.6647 34.1572 14.4715 36.2208 14.0852 40.2464C13.6989 44.2517 13.5058 46.8948 13.5058 48.1756C13.5058 48.5416 13.5668 48.7348 13.6888 48.7551C13.7904 48.7551 13.9023 48.6534 14.0242 48.4501C15.6711 45.7054 17.2468 42.7167 18.7513 39.484C18.9343 39.0774 19.2494 38.3759 19.6967 37.3797C20.144 36.3834 20.5811 35.499 21.0081 34.7264C21.435 33.9538 21.7603 33.4862 21.984 33.3236C22.2076 33.1406 22.5634 33.0491 23.0514 33.0491C23.5393 33.0491 23.9561 33.2321 24.3018 33.598C24.6677 33.9437 24.8507 34.3605 24.8507 34.8484C24.8507 35.3364 24.7796 35.8955 24.6372 36.5258C23.0514 44.272 22.2585 48.9076 22.2585 50.4324C22.2585 51.937 22.5024 52.9637 22.9904 53.5126C23.4783 54.0819 24.3323 54.4784 25.5521 54.702Z" fill="#333333"></path>
<path d="M38.6244 48.4806L39.3259 48.9991C39.0412 49.609 38.5126 50.1885 37.74 50.7374C36.9878 51.2864 36.2965 51.5608 35.6662 51.5608C34.4667 51.5608 33.8669 50.9306 33.8669 49.67C33.8669 49.0804 34.0194 48.379 34.3243 47.5657L33.196 48.7246C32.0981 49.8428 31.1425 50.5951 30.3292 50.9814C29.5363 51.3677 28.7535 51.5608 27.981 51.5608C27.2084 51.5608 26.6187 51.3473 26.2121 50.9204C25.8258 50.4731 25.6327 49.8632 25.6327 49.0906C25.6327 47.6674 26.1816 46.2645 27.2795 44.882C28.3774 43.4791 29.7803 42.3405 31.4881 41.4663C33.1959 40.592 34.9038 40.1447 36.6116 40.1244L36.6726 41.1308L35.3917 41.4053C33.5416 41.8119 31.9049 42.6252 30.4817 43.8451C29.0788 45.0649 28.3774 46.2848 28.3774 47.5047C28.3774 48.7043 28.8654 49.304 29.8413 49.304C30.7562 49.304 31.8846 48.6636 33.2264 47.3827C34.5683 46.1018 35.6865 44.5973 36.5811 42.8692L37.862 43.6316C36.6015 46.173 35.9712 47.7894 35.9712 48.4806C35.9712 48.7653 36.0627 49.0092 36.2457 49.2125C36.449 49.3955 36.6421 49.487 36.8251 49.487C37.0284 49.487 37.1606 49.4769 37.2216 49.4565C37.2826 49.4362 37.3436 49.4159 37.4045 49.3955C37.4655 49.3549 37.5367 49.304 37.618 49.243C37.7197 49.1821 37.801 49.1211 37.862 49.0601C37.9433 48.9991 38.0653 48.9076 38.228 48.7856C38.3906 48.6636 38.5228 48.5619 38.6244 48.4806Z" fill="#333333"></path>
<path d="M48.3759 40.7649C48.8842 40.7649 49.301 40.9377 49.6263 41.2833C49.9516 41.6289 50.1142 42.0762 50.1142 42.6252C50.1142 43.7231 49.4839 44.882 48.2234 46.1018L47.4915 45.5224C47.7761 44.8921 47.9184 44.4347 47.9184 44.15C47.9184 43.6011 47.6134 43.3266 47.0035 43.3266C46.3936 43.3266 45.8141 43.7129 45.2652 44.4855C44.7162 45.2581 44.0656 46.4576 43.3134 48.0842C42.5814 49.6903 42.0223 50.8289 41.636 51.4998L39.8977 50.7374C41.0159 48.196 41.6563 46.7016 41.819 46.2543C42.3679 44.6685 42.6424 42.6557 42.6424 40.2159L44.3503 39.7585C44.2893 41.08 44.1978 42.1067 44.0758 42.8387C43.9538 43.5503 43.659 44.7193 43.1914 46.3458C45.2448 42.6252 46.973 40.7649 48.3759 40.7649Z" fill="#333333"></path>
<path d="M58.9422 47.2302L59.6741 47.8402C59.1861 48.9584 58.4034 49.853 57.3258 50.5239C56.2482 51.1949 55.2012 51.5303 54.1846 51.5303C53.1884 51.5303 52.3548 51.2152 51.6838 50.5849C51.0332 49.9546 50.7079 49.0906 50.7079 47.9927C50.7079 46.8948 51.1857 45.7054 52.1413 44.4245C53.0969 43.1436 54.3269 42.0864 55.8315 41.2528C57.3563 40.4192 58.8507 40.0024 60.3145 40.0024C60.5178 40.0024 60.8228 40.0228 61.2294 40.0634L61.1379 41.2528C58.9015 41.3545 57.0412 42.0356 55.557 43.2961C54.0931 44.5567 53.3612 45.8985 53.3612 47.3217C53.3612 47.9113 53.5442 48.3891 53.9101 48.7551C54.2761 49.1211 54.7539 49.304 55.3435 49.304C56.2787 49.304 57.4783 48.6128 58.9422 47.2302Z" fill="#333333"></path>
<path d="M68.0374 38.6301C66.8989 38.6301 66.3296 38.1726 66.3296 37.2577C66.3296 36.7494 66.4719 36.3224 66.7566 35.9768C67.0412 35.6312 67.4072 35.4584 67.8545 35.4584C68.3018 35.4584 68.6677 35.5905 68.9523 35.8548C69.237 36.1191 69.3793 36.4648 69.3793 36.8917C69.3793 37.3187 69.2573 37.7151 69.0133 38.0811C68.7694 38.4471 68.4441 38.6301 68.0374 38.6301ZM67.641 47.6267L68.2509 48.1452C67.763 49.0804 67.1124 49.8835 66.2991 50.5544C65.5062 51.205 64.7844 51.5303 64.1338 51.5303C62.9953 51.5303 62.426 50.7374 62.426 49.1516C62.426 47.1794 63.2392 44.6075 64.8657 41.4358C65.2317 40.7445 65.4452 40.3379 65.5062 40.2159L66.8176 41.0088C66.3906 41.7814 65.862 43.0115 65.2317 44.699C64.6218 46.3865 64.3168 47.4742 64.3168 47.9622C64.3168 48.4298 64.4184 48.7653 64.6218 48.9686C64.8251 49.1719 65.0691 49.2735 65.3537 49.2735C65.9026 49.2735 66.6651 48.7246 67.641 47.6267Z" fill="#333333"></path>
<path d="M79.9489 39.6365L79.6745 40.8258C79.3288 40.7852 78.8815 40.7649 78.3326 40.7649C76.2995 40.7649 75.2829 41.4358 75.2829 42.7777C75.2829 43.0623 75.6895 43.8959 76.5028 45.2784C77.3363 46.661 77.7531 47.586 77.7531 48.0537C77.7531 49.1516 77.377 50.0156 76.6247 50.6459C75.8928 51.2559 74.9067 51.5608 73.6665 51.5608C71.9587 51.5608 70.5863 50.6154 69.5494 48.7246L70.7083 47.9012C70.993 48.1248 71.2979 48.3993 71.6232 48.7246C71.9485 49.0296 72.1925 49.243 72.3552 49.365C72.7414 49.7107 73.1684 49.8835 73.636 49.8835C74.1037 49.8835 74.5103 49.7208 74.8559 49.3955C75.2016 49.0499 75.3744 48.6331 75.3744 48.1452C75.3744 47.6369 74.9271 46.7016 74.0325 45.3394C73.1582 43.9772 72.7211 43.0216 72.7211 42.4727C72.7211 41.4765 73.1379 40.714 73.9715 40.1854C74.8254 39.6568 75.9335 39.3925 77.2957 39.3925C78.6782 39.3925 79.5626 39.4738 79.9489 39.6365Z" fill="#333333"></path>
<path d="M88.6118 47.9622L89.3132 48.5111C88.6829 49.3854 87.8188 50.1173 86.721 50.7069C85.6231 51.2762 84.5557 51.5608 83.5188 51.5608C82.4819 51.5608 81.6483 51.2559 81.018 50.6459C80.3877 50.036 80.0726 49.2329 80.0726 48.2366C80.0726 46.3662 81.0587 44.5262 83.0308 42.7167C85.0233 40.9072 87.0361 40.0024 89.0692 40.0024C90.4111 40.0024 91.082 40.531 91.082 41.5883C91.082 42.6862 90.3704 43.7942 88.9472 44.9125C87.5444 46.0307 85.5621 47.0473 83.0003 47.9622C83.1833 48.4298 83.4679 48.7958 83.8542 49.0601C84.2405 49.3244 84.637 49.4565 85.0436 49.4565C85.9179 49.4565 87.1072 48.9584 88.6118 47.9622ZM82.8478 47.0473C84.4947 46.478 85.9077 45.7664 87.0869 44.9125C88.2661 44.0585 88.8558 43.2758 88.8558 42.5642C88.8558 42.2999 88.7541 42.0661 88.5508 41.8628C88.3475 41.6594 88.1136 41.5578 87.8493 41.5578C86.8938 41.5578 85.8569 42.1576 84.7386 43.3571C83.6407 44.5363 83.0105 45.7664 82.8478 47.0473Z" fill="#333333"></path>
<path d="M100.916 39.6365L100.641 40.8258C100.296 40.7852 99.8483 40.7649 99.2993 40.7649C97.2662 40.7649 96.2496 41.4358 96.2496 42.7777C96.2496 43.0623 96.6562 43.8959 97.4695 45.2784C98.3031 46.661 98.7199 47.586 98.7199 48.0537C98.7199 49.1516 98.3438 50.0156 97.5915 50.6459C96.8596 51.2559 95.8735 51.5608 94.6333 51.5608C92.9254 51.5608 91.5531 50.6154 90.5162 48.7246L91.6751 47.9012C91.9597 48.1248 92.2647 48.3993 92.59 48.7246C92.9153 49.0296 93.1592 49.243 93.3219 49.365C93.7082 49.7107 94.1352 49.8835 94.6028 49.8835C95.0704 49.8835 95.477 49.7208 95.8227 49.3955C96.1683 49.0499 96.3411 48.6331 96.3411 48.1452C96.3411 47.6369 95.8938 46.7016 94.9992 45.3394C94.125 43.9772 93.6879 43.0216 93.6879 42.4727C93.6879 41.4765 94.1047 40.714 94.9382 40.1854C95.7922 39.6568 96.9002 39.3925 98.2624 39.3925C99.645 39.3925 100.529 39.4738 100.916 39.6365Z" fill="#333333"></path>
</svg>