<svg class="w100" width="114" height="30" viewBox="0 0 114 30" fill="none" xmlns="http://www.w3.org/2000/svg">
<path d="M41.9584 27.6355C40.3666 27.6355 39.2016 27.4164 38.4634 26.978C37.7482 26.5166 37.3906 26.0437 37.3906 25.5592C37.3906 25.2824 37.4483 24.9594 37.5636 24.5903C37.679 24.1981 37.8636 23.8521 38.1173 23.5522C38.4864 23.8982 38.9594 24.1866 39.5361 24.4173C40.1359 24.648 40.8511 24.7633 41.6816 24.7633C42.9043 24.7633 43.7694 24.4403 44.277 23.7944C44.8076 23.1484 45.0729 22.2949 45.0729 21.2336C45.0729 20.4493 44.9229 19.7226 44.623 19.0535C44.3462 18.3845 43.8271 17.6117 43.0658 16.735L39.6053 12.6863C38.821 11.7174 38.2557 10.8522 37.9097 10.0909C37.5867 9.30656 37.4252 8.49911 37.4252 7.6686C37.4252 6.2152 37.9328 5.02711 38.9478 4.10432C39.986 3.18152 41.4624 2.72013 43.3772 2.72013C45.0152 2.72013 46.1802 2.89315 46.8723 3.2392C47.5644 3.56218 47.9105 3.9659 47.9105 4.45036C47.9105 4.68106 47.8528 4.94636 47.7374 5.24627C47.6221 5.52311 47.4491 5.78841 47.2184 6.04218C46.9877 5.88069 46.5609 5.70767 45.938 5.52311C45.3382 5.31548 44.6345 5.21167 43.8271 5.21167C42.789 5.21167 41.9584 5.4193 41.3356 5.83455C40.7357 6.24981 40.4358 6.83809 40.4358 7.59939C40.4358 8.22228 40.5743 8.79902 40.8511 9.32963C41.151 9.83716 41.5547 10.4024 42.0623 11.0253L45.7996 15.2816C46.6993 16.3428 47.3106 17.3118 47.6336 18.1884C47.9566 19.0651 48.1181 20.0456 48.1181 21.1298C48.1181 22.2833 47.922 23.3561 47.5298 24.3481C47.1607 25.3401 46.5263 26.136 45.6265 26.7358C44.7499 27.3356 43.5272 27.6355 41.9584 27.6355Z" fill="#333333"></path>
<path d="M50.5196 27.2895V3.13539C50.5196 2.69706 50.5888 2.39715 50.7272 2.23566C50.8887 2.0511 51.1771 1.94729 51.5923 1.92422C52.0076 1.87808 52.5959 1.85501 53.3572 1.85501V11.2329C53.9339 10.7484 54.6145 10.3678 55.3989 10.0909C56.1832 9.79102 56.9445 9.64107 57.6828 9.64107C58.4441 9.64107 59.0324 9.77949 59.4476 10.0563C59.8859 10.3332 60.1858 10.7023 60.3473 11.1637C60.5319 11.602 60.6242 12.0865 60.6242 12.6171C60.6242 13.3553 60.5204 14.0128 60.3127 14.5895C60.1051 15.1663 59.8398 15.6854 59.5168 16.1468C59.1938 16.5851 58.8709 16.9657 58.5479 17.2887C58.248 17.5886 57.9827 17.8193 57.752 17.9808C58.3057 18.2115 58.8247 18.5922 59.3092 19.1228C59.7937 19.6303 60.1974 20.2762 60.5204 21.0606C60.8664 21.845 61.0856 22.7678 61.1778 23.829C61.224 24.2443 61.2355 24.7057 61.2125 25.2132C61.2125 25.6977 61.1778 26.2052 61.1086 26.7358C61.0856 26.9204 61.0279 27.0588 60.9356 27.1511C60.8433 27.2203 60.578 27.2664 60.1397 27.2895C59.7244 27.2895 58.9862 27.2895 57.925 27.2895C58.0173 26.4359 58.0634 25.663 58.0634 24.971C58.0634 24.2558 58.0173 23.6098 57.925 23.0331C57.8097 22.341 57.6482 21.7527 57.4405 21.2682C57.2329 20.7838 56.9907 20.4031 56.7138 20.1263C56.437 19.8264 56.1371 19.6303 55.8141 19.538C55.5142 19.4227 55.2028 19.3996 54.8798 19.4688C54.6722 19.5149 54.4415 19.5957 54.1877 19.711C53.957 19.8033 53.7609 19.8956 53.5994 19.9879C53.4379 20.0802 53.3572 20.1263 53.3572 20.1263V26.7358C53.3572 26.9204 53.311 27.0472 53.2188 27.1164C53.1496 27.1857 52.9189 27.2318 52.5267 27.2549C52.1576 27.2779 51.4885 27.2895 50.5196 27.2895ZM53.3572 18.1192C54.1646 17.7732 54.8798 17.3925 55.5027 16.9773C56.1256 16.562 56.61 16.0775 56.9561 15.5239C57.3252 14.9471 57.5097 14.3012 57.5097 13.586C57.5097 12.6401 57.083 12.1672 56.2294 12.1672C55.7449 12.1672 55.2604 12.3056 54.776 12.5825C54.2915 12.8362 53.8186 13.2515 53.3572 13.8282V18.1192Z" fill="#333333"></path>
<path d="M63.5302 27.2895V11.2675C63.5302 10.8292 63.6109 10.5293 63.7724 10.3678C63.9339 10.1832 64.2222 10.0794 64.6375 10.0563C65.0528 10.0102 65.641 9.98712 66.4023 9.98712V26.7358C66.4023 26.9204 66.3562 27.0472 66.2639 27.1164C66.1947 27.1857 65.964 27.2318 65.5718 27.2549C65.1796 27.2779 64.4991 27.2895 63.5302 27.2895ZM64.8797 7.59939C64.4414 7.57632 64.0954 7.41483 63.8416 7.11493C63.5878 6.79195 63.4609 6.22674 63.4609 5.4193C63.484 4.79641 63.6224 4.30041 63.8762 3.93129C64.13 3.53911 64.5337 3.34301 65.0874 3.34301C65.618 3.34301 65.9871 3.49297 66.1947 3.79287C66.4023 4.09278 66.4946 4.61185 66.4716 5.35009C66.4716 6.04218 66.3331 6.59585 66.0563 7.01111C65.8025 7.4033 65.4103 7.59939 64.8797 7.59939Z" fill="#333333"></path>
<path d="M73.9394 27.6355C73.2935 27.6355 72.6706 27.5778 72.0708 27.4625C71.494 27.3702 70.9749 27.151 70.5135 26.805C70.0522 26.4359 69.683 25.9053 69.4062 25.2132C69.1294 24.5211 68.9909 23.5752 68.9909 22.3756C68.9909 21.176 69.1178 20.207 69.3716 19.4688C69.6254 18.7075 69.9714 18.1308 70.4097 17.7386C70.8481 17.3233 71.3441 17.0465 71.8977 16.9081C72.4514 16.7696 73.0166 16.7004 73.5934 16.7004C73.9625 16.7004 74.3893 16.735 74.8737 16.8042C75.3813 16.8735 75.8081 16.9888 76.1541 17.1503C76.1541 17.1503 76.1541 16.9888 76.1541 16.6658C76.1541 16.3428 76.1541 15.9737 76.1541 15.5585C76.1541 15.1201 76.1541 14.7395 76.1541 14.4165C76.1541 13.8628 76.0618 13.4476 75.8773 13.1707C75.7158 12.8708 75.4736 12.6632 75.1506 12.5479C74.8507 12.4094 74.47 12.3402 74.0086 12.3402C73.1089 12.3402 72.2438 12.421 71.4133 12.5825C70.5828 12.744 69.9137 12.9285 69.4062 13.1361C69.2447 12.8593 69.1409 12.5825 69.0948 12.3056C69.0486 12.0057 69.0255 11.7404 69.0255 11.5097C69.0255 11.3482 69.0486 11.1752 69.0948 10.9907C69.164 10.8061 69.2678 10.6677 69.4062 10.5754C69.7061 10.3908 70.329 10.1947 71.2748 9.98712C72.2207 9.75642 73.3511 9.64107 74.6661 9.64107C76.1656 9.64107 77.2499 9.95251 77.919 10.5754C78.611 11.1983 78.9571 12.2941 78.9571 13.8628V15.6969C78.9571 17.0119 78.9456 18.3384 78.9225 19.6764C78.9225 20.9914 78.911 22.2372 78.8879 23.4137C78.8648 24.5672 78.8187 25.5823 78.7495 26.459C78.2881 26.7358 77.6537 27.0011 76.8462 27.2549C76.0388 27.5086 75.0698 27.6355 73.9394 27.6355ZM74.2163 25.2824C74.5854 25.2824 74.943 25.2247 75.289 25.1094C75.635 24.994 75.8773 24.8556 76.0157 24.6941C76.0618 24.325 76.0849 23.8175 76.0849 23.1715C76.108 22.5256 76.1195 21.845 76.1195 21.1298C76.1426 20.4147 76.1541 19.7456 76.1541 19.1228C75.9234 19.0074 75.6466 18.9267 75.3236 18.8805C75.0237 18.8344 74.7584 18.8113 74.5277 18.8113C74.1586 18.8113 73.8125 18.8575 73.4896 18.9497C73.1896 19.0189 72.9243 19.1804 72.6936 19.4342C72.4629 19.6649 72.2784 20.0109 72.14 20.4723C72.0015 20.9337 71.9323 21.5451 71.9323 22.3064C71.9323 22.9293 71.9785 23.4368 72.0708 23.829C72.1861 24.2212 72.3476 24.5326 72.5552 24.7633C72.7629 24.971 73.0051 25.1094 73.2819 25.1786C73.5588 25.2478 73.8702 25.2824 74.2163 25.2824Z" fill="#333333"></path>
<path d="M81.8125 27.2895V3.13539C81.8125 2.69706 81.8817 2.39715 82.0202 2.23566C82.1816 2.0511 82.47 1.94729 82.8853 1.92422C83.3005 1.87808 83.8773 1.85501 84.6155 1.85501V26.7358C84.6155 26.9204 84.5694 27.0472 84.4771 27.1164C84.4079 27.1857 84.1772 27.2318 83.785 27.2549C83.4159 27.2779 82.7584 27.2895 81.8125 27.2895Z" fill="#333333"></path>
<path d="M87.794 27.2895V11.2675C87.794 10.8292 87.8747 10.5293 88.0362 10.3678C88.1977 10.1832 88.4861 10.0794 88.9014 10.0563C89.3166 10.0102 89.9049 9.98712 90.6662 9.98712V26.7358C90.6662 26.9204 90.6201 27.0472 90.5278 27.1164C90.4586 27.1857 90.2279 27.2318 89.8357 27.2549C89.4435 27.2779 88.7629 27.2895 87.794 27.2895ZM89.1436 7.59939C88.7053 7.57632 88.3592 7.41483 88.1054 7.11493C87.8517 6.79195 87.7248 6.22674 87.7248 5.4193C87.7479 4.79641 87.8863 4.30041 88.14 3.93129C88.3938 3.53911 88.7975 3.34301 89.3512 3.34301C89.8818 3.34301 90.2509 3.49297 90.4586 3.79287C90.6662 4.09278 90.7585 4.61185 90.7354 5.35009C90.7354 6.04218 90.597 6.59585 90.3201 7.01111C90.0664 7.4033 89.6742 7.59939 89.1436 7.59939Z" fill="#333333"></path>
<path d="M97.5112 27.6355C96.2885 27.6355 95.2734 27.4971 94.466 27.2203C93.6816 26.9204 93.2894 26.4705 93.2894 25.8707C93.2894 25.663 93.324 25.4208 93.3932 25.144C93.4624 24.8441 93.5893 24.5442 93.7739 24.2443C94.2814 24.5442 94.812 24.7633 95.3657 24.9017C95.9424 25.0402 96.5653 25.1094 97.2343 25.1094C98.111 25.1094 98.7915 24.9363 99.276 24.5903C99.7835 24.2212 100.037 23.679 100.037 22.9639C100.037 22.5025 99.9335 22.0526 99.7259 21.6143C99.5413 21.176 99.1837 20.7261 98.6531 20.2647L95.2965 17.3925C94.5121 16.7466 93.9815 16.1237 93.7046 15.5239C93.4509 14.901 93.324 14.3012 93.324 13.7244C93.324 12.917 93.5201 12.2134 93.9123 11.6135C94.3275 10.9907 94.9504 10.5062 95.7809 10.1601C96.6345 9.81409 97.6957 9.64107 98.9646 9.64107C100.164 9.64107 101.064 9.75642 101.664 9.98712C102.287 10.2178 102.713 10.4831 102.944 10.783C103.198 11.0599 103.325 11.3252 103.325 11.5789C103.325 12.0634 103.117 12.5363 102.702 12.9977C102.194 12.6747 101.664 12.444 101.11 12.3056C100.556 12.1672 99.9566 12.098 99.3106 12.098C98.4801 12.098 97.8111 12.248 97.3035 12.5479C96.8191 12.8247 96.5768 13.2284 96.5768 13.759C96.5768 14.0589 96.6576 14.3704 96.8191 14.6934C97.0036 15.0163 97.3843 15.4201 97.961 15.9045L101.179 18.4999C101.941 19.215 102.471 19.8956 102.771 20.5415C103.071 21.1875 103.221 21.9488 103.221 22.8255C103.221 24.3481 102.713 25.5362 101.698 26.3897C100.683 27.2203 99.2875 27.6355 97.5112 27.6355Z" fill="#333333"></path>
<path d="M110.478 27.6355C109.51 27.6355 108.783 27.4279 108.298 27.0126C107.837 26.5743 107.537 25.9745 107.399 25.2132C107.26 24.4288 107.191 23.5176 107.191 22.4794V12.4094H104.838C104.838 11.6712 104.838 11.1406 104.838 10.8176C104.861 10.4716 104.919 10.2524 105.011 10.1601C105.103 10.0448 105.242 9.98712 105.426 9.98712H107.191V4.7272C107.191 4.38115 107.26 4.15045 107.399 4.03511C107.56 3.89669 107.837 3.81594 108.229 3.79287C108.644 3.7698 109.233 3.75827 109.994 3.75827V9.98712H113.524C113.524 10.7023 113.512 11.2329 113.489 11.5789C113.489 11.925 113.443 12.1557 113.351 12.271C113.281 12.3633 113.155 12.4094 112.97 12.4094H109.994V22.4794C109.994 22.9639 110.006 23.4253 110.029 23.8636C110.075 24.2789 110.179 24.6134 110.34 24.8671C110.525 25.0978 110.825 25.2132 111.24 25.2132C111.632 25.2132 111.978 25.1786 112.278 25.1094C112.578 25.0171 112.901 24.8787 113.247 24.6941C113.293 24.8787 113.339 25.0863 113.385 25.317C113.431 25.5477 113.454 25.813 113.454 26.1129C113.454 26.5282 113.293 26.8511 112.97 27.0818C112.67 27.2895 112.289 27.4279 111.828 27.4971C111.39 27.5894 110.94 27.6355 110.478 27.6355Z" fill="#333333"></path>
<g clip-path="url(#7771cd9d-c4b7-4b21-af06-3b3e01c593eaclip0_7_2401)">
<path fill-rule="evenodd" clip-rule="evenodd" d="M4.09006 8.2782V0.705078H1.7666V8.28052L1.76661 8.28485C1.77065 9.36864 2.07972 10.4294 2.65846 11.3457C3.23532 12.2591 4.05687 12.9922 5.0296 13.4617C5.83121 13.8626 6.7152 14.0714 7.61155 14.0714C8.51118 14.0714 9.39836 13.8611 10.2023 13.4573L9.68092 12.4192L10.2084 13.4543C11.1626 12.968 11.9628 12.2258 12.5193 11.3107C13.0751 10.3968 13.3661 9.34645 13.3597 8.27687V0.705078H11.0362V8.28052H11.0362L11.0363 8.28826C11.0405 8.92816 10.8667 9.55663 10.5342 10.1034C10.2022 10.6492 9.72522 11.092 9.15638 11.3826C8.67686 11.6228 8.14791 11.7479 7.61155 11.7479C7.07404 11.7479 6.54396 11.6223 6.06363 11.381L5.54222 12.4192L6.04533 11.372C5.46165 11.0916 4.96871 10.6525 4.62292 10.105C4.27749 9.55809 4.09285 8.92505 4.09006 8.2782Z" fill="#333333"></path>
<path fill-rule="evenodd" clip-rule="evenodd" d="M6.40137 28.5382V0.705078H8.72483V28.5382H6.40137Z" fill="#333333"></path>
<path fill-rule="evenodd" clip-rule="evenodd" d="M19.2005 4.97459C18.4446 6.25438 18.0066 7.79193 18.0066 8.82499C18.0066 9.28109 18.0964 9.73271 18.2709 10.1541C18.4455 10.5755 18.7013 10.9583 19.0238 11.2808C19.3463 11.6033 19.7292 11.8592 20.1506 12.0337C20.5719 12.2082 21.0236 12.2981 21.4797 12.2981C21.9357 12.2981 22.3874 12.2082 22.8087 12.0337C23.2301 11.8592 23.613 11.6033 23.9355 11.2808C24.258 10.9583 24.5138 10.5755 24.6884 10.1541C24.8629 9.73271 24.9527 9.28108 24.9527 8.82499C24.9527 7.79193 24.5147 6.25438 23.7588 4.97459C23.3868 4.34475 22.9707 3.83463 22.5524 3.49389C22.1355 3.15422 21.7761 3.02845 21.4797 3.02845C21.1832 3.02845 20.8238 3.15422 20.4069 3.49389C19.9886 3.83463 19.5725 4.34475 19.2005 4.97459ZM18.9394 1.69246C19.632 1.12831 20.4933 0.704987 21.4797 0.704987C22.466 0.704987 23.3273 1.12831 24.0199 1.69246C24.7111 2.25554 25.2934 3.00396 25.7594 3.79301C26.6796 5.35098 27.2762 7.29257 27.2762 8.82499C27.2762 9.58621 27.1263 10.34 26.835 11.0432C26.5437 11.7465 26.1167 12.3855 25.5784 12.9238C25.0402 13.462 24.4012 13.889 23.6979 14.1803C22.9946 14.4716 22.2409 14.6215 21.4797 14.6215C20.7184 14.6215 19.9647 14.4716 19.2614 14.1803C18.5581 13.889 17.9191 13.462 17.3809 12.9238C16.8426 12.3855 16.4156 11.7465 16.1243 11.0432C15.833 10.34 15.6831 9.58621 15.6831 8.82499C15.6831 7.29257 16.2797 5.35098 17.1999 3.79301C17.6659 3.00396 18.2482 2.25554 18.9394 1.69246Z" fill="#333333"></path>
<path fill-rule="evenodd" clip-rule="evenodd" d="M22.6418 13.4599V28.5382H20.3184V13.4599H22.6418Z" fill="#333333"></path>
</g>
<defs>
<clipPath id="7771cd9d-c4b7-4b21-af06-3b3e01c593eaclip0_7_2401">
<rect width="29.0432" height="29.0432" fill="white" transform="translate(0 0.100006)"></rect>
</clipPath>
</defs>
</svg>