<svg class="w100" width="111" height="21" viewBox="0 0 111 21" fill="none" xmlns="http://www.w3.org/2000/svg">
<path d="M3.71755 5.64814H0V0.473142H14.0844V5.64814H10.3668V20.1973H3.71755V5.64814ZM7.4351 17.8316V3.54857H11.7571V2.83886H2.32725V3.54857H6.64927V17.8316H7.4351Z" fill="#333333"></path>
<path d="M13.7684 10.35C13.7684 8.93057 14.0404 7.59 14.5845 6.32829C15.1487 5.06657 15.9043 3.97243 16.8513 3.04586C17.8184 2.09957 18.9468 1.36029 20.2364 0.827999C21.5259 0.275999 22.8961 0 24.3468 0C25.7976 0 27.1677 0.275999 28.4573 0.827999C29.7468 1.36029 30.8651 2.09957 31.8121 3.04586C32.7793 3.97243 33.5349 5.06657 34.0789 6.32829C34.6431 7.59 34.9252 8.93057 34.9252 10.35C34.9252 11.7694 34.6431 13.11 34.0789 14.3717C33.5349 15.6334 32.7793 16.7374 31.8121 17.6837C30.8651 18.6103 29.7468 19.3496 28.4573 19.9016C27.1677 20.4339 25.7976 20.7 24.3468 20.7C22.8961 20.7 21.5259 20.4339 20.2364 19.9016C18.9468 19.3496 17.8184 18.6103 16.8513 17.6837C15.9043 16.7374 15.1487 15.6334 14.5845 14.3717C14.0404 13.11 13.7684 11.7694 13.7684 10.35ZM16.6095 10.35C16.6095 11.3949 16.811 12.3806 17.214 13.3071C17.617 14.214 18.1711 15.0124 18.8763 15.7024C19.5815 16.3924 20.3976 16.9346 21.3244 17.3289C22.2714 17.7231 23.2789 17.9203 24.3468 17.9203C25.4147 17.9203 26.4121 17.7231 27.339 17.3289C28.286 16.9346 29.1121 16.3924 29.8174 15.7024C30.5226 15.0124 31.0767 14.214 31.4797 13.3071C31.8827 12.3806 32.0842 11.3949 32.0842 10.35C32.0842 9.30514 31.8827 8.32929 31.4797 7.42243C31.0767 6.49586 30.5226 5.68757 29.8174 4.99757C29.1121 4.30757 28.286 3.76543 27.339 3.37114C26.4121 2.97686 25.4147 2.77971 24.3468 2.77971C23.2789 2.77971 22.2714 2.97686 21.3244 3.37114C20.3976 3.76543 19.5815 4.30757 18.8763 4.99757C18.1711 5.68757 17.617 6.49586 17.214 7.42243C16.811 8.32929 16.6095 9.30514 16.6095 10.35ZM20.1155 10.35C20.1155 10.9217 20.2263 11.4639 20.4479 11.9764C20.6696 12.4693 20.9718 12.903 21.3547 13.2776C21.7375 13.6521 22.1808 13.9479 22.6845 14.1647C23.2084 14.3816 23.7625 14.49 24.3468 14.49C24.9312 14.49 25.4752 14.3816 25.9789 14.1647C26.5028 13.9479 26.9562 13.6521 27.339 13.2776C27.7218 12.903 28.0241 12.4693 28.2457 11.9764C28.4674 11.4639 28.5782 10.9217 28.5782 10.35C28.5782 9.77829 28.4674 9.246 28.2457 8.75314C28.0241 8.24057 27.7218 7.797 27.339 7.42243C26.9562 7.04786 26.5028 6.75214 25.9789 6.53529C25.4752 6.31843 24.9312 6.21 24.3468 6.21C23.7625 6.21 23.2084 6.31843 22.6845 6.53529C22.1808 6.75214 21.7375 7.04786 21.3547 7.42243C20.9718 7.797 20.6696 8.24057 20.4479 8.75314C20.2263 9.246 20.1155 9.77829 20.1155 10.35ZM24.3468 17.1514C23.3797 17.1514 22.4729 16.974 21.6267 16.6191C20.8005 16.2643 20.0651 15.7813 19.4203 15.1701C18.7957 14.5393 18.302 13.8197 17.9393 13.0114C17.5767 12.1834 17.3953 11.2963 17.3953 10.35C17.3953 9.40372 17.5767 8.52643 17.9393 7.71814C18.302 6.89014 18.7957 6.17057 19.4203 5.55943C20.0651 4.92857 20.8005 4.43571 21.6267 4.08086C22.4729 3.726 23.3797 3.54857 24.3468 3.54857C25.314 3.54857 26.2106 3.726 27.0368 4.08086C27.883 4.43571 28.6185 4.92857 29.2431 5.55943C29.8879 6.17057 30.3916 6.89014 30.7543 7.71814C31.117 8.52643 31.2983 9.40372 31.2983 10.35C31.2983 11.2963 31.117 12.1834 30.7543 13.0114C30.3916 13.8197 29.8879 14.5393 29.2431 15.1701C28.6185 15.7813 27.883 16.2643 27.0368 16.6191C26.2106 16.974 25.314 17.1514 24.3468 17.1514Z" fill="#333333"></path>
<path d="M52.2808 7.98429C52.2808 9.34457 52.0391 10.5077 51.5555 11.4737C51.0719 12.42 50.407 13.1889 49.5607 13.7803C48.7346 14.3717 47.7573 14.8054 46.629 15.0814C45.5208 15.3574 44.3219 15.4954 43.0323 15.4954V20.1973H36.5946V0.473142H43.0323C44.3219 0.473142 45.5208 0.611142 46.629 0.887142C47.7573 1.16314 48.7346 1.59686 49.5607 2.18829C50.407 2.77971 51.0719 3.55843 51.5555 4.52443C52.0391 5.47071 52.2808 6.624 52.2808 7.98429ZM49.3491 7.98429C49.3491 7.09714 49.1879 6.32828 48.8655 5.67771C48.5633 5.02714 48.1301 4.49486 47.5659 4.08086C47.0017 3.66686 46.3267 3.36128 45.5409 3.16414C44.7752 2.94729 43.939 2.83886 43.0323 2.83886H39.617V17.8316H40.4028V13.1297H43.0323C43.939 13.1297 44.7752 13.0311 45.5409 12.834C46.3267 12.6171 47.0017 12.3017 47.5659 11.8877C48.1301 11.4737 48.5633 10.9414 48.8655 10.2909C49.1879 9.64028 49.3491 8.87143 49.3491 7.98429ZM48.5029 7.98429C48.5029 8.832 48.3517 9.54171 48.0495 10.1134C47.7473 10.6851 47.3443 11.1386 46.8405 11.4737C46.3368 11.8089 45.7525 12.0553 45.0875 12.213C44.4428 12.351 43.7577 12.42 43.0323 12.42H40.4028V3.54857H43.0323C43.7577 3.54857 44.4428 3.62743 45.0875 3.78514C45.7525 3.92314 46.3368 4.15971 46.8405 4.49486C47.3443 4.83 47.7473 5.28343 48.0495 5.85514C48.3517 6.42686 48.5029 7.13657 48.5029 7.98429ZM43.0323 10.1726H43.3043C44.1506 10.1726 44.7551 9.98529 45.1178 9.61071C45.5006 9.21643 45.692 8.67429 45.692 7.98429C45.692 7.29429 45.5006 6.762 45.1178 6.38743C44.7551 5.99314 44.1506 5.796 43.3043 5.796H43.0323V10.1726Z" fill="#333333"></path>
<path d="M53.3488 10.35C53.3488 8.93057 53.6209 7.59 54.1649 6.32829C54.7291 5.06657 55.4847 3.97243 56.4317 3.04586C57.3989 2.09957 58.5272 1.36029 59.8168 0.827999C61.1063 0.275999 62.4765 0 63.9272 0C65.378 0 66.7481 0.275999 68.0377 0.827999C69.3272 1.36029 70.4455 2.09957 71.3925 3.04586C72.3597 3.97243 73.1153 5.06657 73.6593 6.32829C74.2235 7.59 74.5056 8.93057 74.5056 10.35C74.5056 11.7694 74.2235 13.11 73.6593 14.3717C73.1153 15.6334 72.3597 16.7374 71.3925 17.6837C70.4455 18.6103 69.3272 19.3496 68.0377 19.9016C66.7481 20.4339 65.378 20.7 63.9272 20.7C62.4765 20.7 61.1063 20.4339 59.8168 19.9016C58.5272 19.3496 57.3989 18.6103 56.4317 17.6837C55.4847 16.7374 54.7291 15.6334 54.1649 14.3717C53.6209 13.11 53.3488 11.7694 53.3488 10.35ZM56.1899 10.35C56.1899 11.3949 56.3914 12.3806 56.7944 13.3071C57.1974 14.214 57.7515 15.0124 58.4567 15.7024C59.1619 16.3924 59.978 16.9346 60.9048 17.3289C61.8519 17.7231 62.8593 17.9203 63.9272 17.9203C64.9951 17.9203 65.9925 17.7231 66.9194 17.3289C67.8664 16.9346 68.6925 16.3924 69.3978 15.7024C70.103 15.0124 70.6571 14.214 71.0601 13.3071C71.4631 12.3806 71.6646 11.3949 71.6646 10.35C71.6646 9.30514 71.4631 8.32929 71.0601 7.42243C70.6571 6.49586 70.103 5.68757 69.3978 4.99757C68.6925 4.30757 67.8664 3.76543 66.9194 3.37114C65.9925 2.97686 64.9951 2.77971 63.9272 2.77971C62.8593 2.77971 61.8519 2.97686 60.9048 3.37114C59.978 3.76543 59.1619 4.30757 58.4567 4.99757C57.7515 5.68757 57.1974 6.49586 56.7944 7.42243C56.3914 8.32929 56.1899 9.30514 56.1899 10.35ZM59.6959 10.35C59.6959 10.9217 59.8067 11.4639 60.0283 11.9764C60.25 12.4693 60.5522 12.903 60.9351 13.2776C61.3179 13.6521 61.7612 13.9479 62.2649 14.1647C62.7888 14.3816 63.3429 14.49 63.9272 14.49C64.5116 14.49 65.0556 14.3816 65.5593 14.1647C66.0832 13.9479 66.5366 13.6521 66.9194 13.2776C67.3022 12.903 67.6045 12.4693 67.8261 11.9764C68.0478 11.4639 68.1586 10.9217 68.1586 10.35C68.1586 9.77829 68.0478 9.246 67.8261 8.75314C67.6045 8.24057 67.3022 7.797 66.9194 7.42243C66.5366 7.04786 66.0832 6.75214 65.5593 6.53529C65.0556 6.31843 64.5116 6.21 63.9272 6.21C63.3429 6.21 62.7888 6.31843 62.2649 6.53529C61.7612 6.75214 61.3179 7.04786 60.9351 7.42243C60.5522 7.797 60.25 8.24057 60.0283 8.75314C59.8067 9.246 59.6959 9.77829 59.6959 10.35ZM63.9272 17.1514C62.9601 17.1514 62.0533 16.974 61.2071 16.6191C60.381 16.2643 59.6455 15.7813 59.0007 15.1701C58.3761 14.5393 57.8824 13.8197 57.5197 13.0114C57.1571 12.1834 56.9757 11.2963 56.9757 10.35C56.9757 9.40372 57.1571 8.52643 57.5197 7.71814C57.8824 6.89014 58.3761 6.17057 59.0007 5.55943C59.6455 4.92857 60.381 4.43571 61.2071 4.08086C62.0533 3.726 62.9601 3.54857 63.9272 3.54857C64.8944 3.54857 65.791 3.726 66.6172 4.08086C67.4634 4.43571 68.1989 4.92857 68.8235 5.55943C69.4683 6.17057 69.972 6.89014 70.3347 7.71814C70.6974 8.52643 70.8787 9.40372 70.8787 10.35C70.8787 11.2963 70.6974 12.1834 70.3347 13.0114C69.972 13.8197 69.4683 14.5393 68.8235 15.1701C68.1989 15.7813 67.4634 16.2643 66.6172 16.6191C65.791 16.974 64.8944 17.1514 63.9272 17.1514Z" fill="#333333"></path>
<path d="M76.175 0.473142H82.8847V15.0223H88.446V20.1973H76.175V0.473142ZM86.7534 17.8316V17.1219H79.9832V2.83886H79.1974V17.8316H86.7534Z" fill="#333333"></path>
<path d="M89.5161 0.473142H96.3467V20.1973H89.5161V0.473142ZM93.3243 17.8316V2.83886H92.5385V17.8316H93.3243Z" fill="#333333"></path>
<path d="M100.454 17.6246C100.736 17.6837 101.038 17.733 101.361 17.7724C101.643 17.8119 101.935 17.8513 102.237 17.8907C102.56 17.9104 102.882 17.9203 103.204 17.9203C103.769 17.9203 104.313 17.8611 104.837 17.7429C105.381 17.6049 105.864 17.388 106.287 17.0923C106.71 16.7966 107.043 16.422 107.285 15.9686C107.547 15.4954 107.678 14.9237 107.678 14.2534C107.678 13.6817 107.526 13.1396 107.224 12.627C106.942 12.1144 106.569 11.6216 106.106 11.1484C105.663 10.6753 105.179 10.2219 104.655 9.78814C104.151 9.35443 103.668 8.92071 103.204 8.487C102.761 8.03357 102.388 7.59 102.086 7.15629C101.804 6.70286 101.663 6.23957 101.663 5.76643C101.663 5.05671 101.895 4.51457 102.358 4.14C102.822 3.74571 103.567 3.54857 104.595 3.54857C104.756 3.54857 104.917 3.55843 105.078 3.57814C105.26 3.57814 105.431 3.588 105.592 3.60771C105.753 3.62743 105.915 3.63729 106.076 3.63729V2.86843C105.935 2.86843 105.784 2.85857 105.622 2.83886C105.481 2.81914 105.32 2.80929 105.139 2.80929C104.978 2.78957 104.806 2.77971 104.625 2.77971C103.537 2.77971 102.64 3.02614 101.935 3.519C101.23 3.99214 100.877 4.74128 100.877 5.76643C100.877 6.31843 101.018 6.84086 101.3 7.33371C101.603 7.80686 101.975 8.28 102.419 8.75314C102.882 9.20657 103.366 9.65014 103.869 10.0839C104.393 10.5176 104.877 10.9611 105.32 11.4146C105.784 11.8483 106.156 12.3017 106.438 12.7749C106.741 13.248 106.892 13.7409 106.892 14.2534C106.892 15.1997 106.559 15.9193 105.894 16.4121C105.25 16.905 104.353 17.1514 103.204 17.1514C102.519 17.1514 101.895 17.1021 101.331 17.0036C101.028 16.9641 100.736 16.9149 100.454 16.8557V17.6246ZM97.9153 14.076C98.3585 14.214 98.822 14.3224 99.3056 14.4013C99.7085 14.4999 100.162 14.5787 100.666 14.6379C101.19 14.697 101.713 14.7266 102.237 14.7266C103.164 14.7266 103.628 14.3914 103.628 13.7211C103.628 13.4649 103.487 13.2086 103.204 12.9523C102.922 12.6763 102.56 12.3806 102.116 12.0651C101.693 11.73 101.23 11.3653 100.726 10.971C100.243 10.5767 99.7791 10.1233 99.3358 9.61071C98.9127 9.09814 98.56 8.52643 98.2779 7.89557C97.9959 7.245 97.8548 6.50571 97.8548 5.67771C97.8548 4.75114 98.0261 3.933 98.3686 3.22329C98.7112 2.51357 99.1847 1.92214 99.7891 1.449C100.394 0.975857 101.099 0.621 101.905 0.384429C102.731 0.128143 103.607 0 104.534 0C105.018 0 105.501 0.0295716 105.985 0.0887149C106.469 0.128143 106.902 0.167571 107.285 0.206999C107.728 0.266142 108.161 0.325286 108.584 0.384429V5.91429C108.423 5.89457 108.242 5.87486 108.04 5.85514C107.879 5.83543 107.698 5.81571 107.496 5.796C107.295 5.77629 107.083 5.76643 106.862 5.76643C106.741 5.76643 106.59 5.77629 106.408 5.796C106.227 5.796 106.056 5.81571 105.894 5.85514C105.733 5.89457 105.592 5.96357 105.471 6.06214C105.35 6.16071 105.29 6.29871 105.29 6.47614C105.29 6.63386 105.421 6.831 105.683 7.06757C105.965 7.30414 106.297 7.58014 106.68 7.89557C107.083 8.211 107.516 8.57572 107.98 8.98972C108.463 9.40372 108.897 9.87686 109.279 10.4091C109.682 10.9414 110.015 11.5427 110.277 12.213C110.559 12.8833 110.7 13.6324 110.7 14.4604C110.7 15.3279 110.559 16.146 110.277 16.9149C109.995 17.664 109.551 18.3244 108.947 18.8961C108.363 19.4481 107.607 19.8819 106.68 20.1973C105.753 20.5324 104.655 20.7 103.386 20.7C102.62 20.7 101.905 20.6606 101.24 20.5817C100.595 20.5226 100.021 20.4437 99.5171 20.3451C98.9328 20.2466 98.3988 20.1283 97.9153 19.9903V14.076Z" fill="#333333"></path>
</svg>