<svg class="w100" width="111" height="39" viewBox="0 0 111 39" fill="none" xmlns="http://www.w3.org/2000/svg">
<path d="M31.4194 17.3752C31.4194 16.6599 31.5357 15.9178 31.7681 15.1488C32.0006 14.362 32.3225 13.5841 32.7338 12.8152C33.1451 12.0462 33.6279 11.313 34.1823 10.6156C34.7545 9.9182 35.3804 9.30125 36.0599 8.76478C36.7395 8.22831 37.4548 7.79913 38.2058 7.47724C38.9569 7.17324 39.7079 7.02124 40.459 7.02124C40.8882 7.02124 41.2101 7.18218 41.4247 7.50407C41.6393 7.82595 41.7465 8.1836 41.7465 8.57701C41.7465 8.80949 41.7018 9.07772 41.6124 9.38172C41.523 9.68573 41.3889 9.98973 41.2101 10.2937C41.0313 10.5798 40.8256 10.8302 40.5931 11.0448C40.3785 11.2415 40.1371 11.3399 39.8689 11.3399C39.8689 11.161 39.8957 10.9911 39.9494 10.8302C40.003 10.6514 40.0745 10.4904 40.164 10.3474C40.2534 10.1864 40.3249 10.0255 40.3785 9.86455C40.4322 9.70361 40.459 9.52478 40.459 9.32808C40.459 9.07772 40.3517 8.93466 40.1371 8.8989C39.9404 8.84525 39.7437 8.81843 39.547 8.81843C39.5112 8.81843 39.4397 8.81843 39.3324 8.81843C39.2609 8.81843 39.2072 8.81843 39.1715 8.81843C38.3489 9.14031 37.5442 9.56949 36.7573 10.106C35.9705 10.6246 35.2731 11.2326 34.6651 11.93C34.0571 12.6095 33.5743 13.3695 33.2166 14.21C32.859 15.0326 32.6801 15.9178 32.6801 16.8655C32.6801 17.4735 32.7338 18.1441 32.8411 18.8773C32.9663 19.5926 33.1719 20.2632 33.458 20.8891C33.7442 21.4971 34.1286 22.0067 34.6115 22.418C35.1122 22.8293 35.7291 23.035 36.4623 23.035C37.0703 23.035 37.6694 22.9813 38.2595 22.874C38.8675 22.7489 39.4665 22.6237 40.0567 22.4985C40.6647 22.3554 41.2637 22.2303 41.8538 22.123C42.4618 22.0157 43.0698 21.962 43.6779 21.962C43.8209 21.962 43.964 21.9799 44.107 22.0157C44.2501 22.0514 44.3216 22.1587 44.3216 22.3376C44.3216 22.427 44.268 22.5432 44.1607 22.6863C44.0534 22.8114 43.9193 22.9366 43.7583 23.0618C43.5974 23.187 43.4454 23.2853 43.3023 23.3569C43.1593 23.4284 43.0698 23.4731 43.0341 23.491L36.8378 24.8053C36.8021 24.8053 36.7216 24.8053 36.5964 24.8053C36.4891 24.8232 36.3997 24.8322 36.3282 24.8322C35.738 24.8322 35.2016 24.7159 34.7187 24.4835C34.2538 24.2331 33.8336 23.9202 33.458 23.5446C33.1004 23.1512 32.7874 22.7041 32.5192 22.2034C32.2688 21.6848 32.0543 21.1484 31.8754 20.594C31.7145 20.0397 31.5983 19.4853 31.5267 18.931C31.4552 18.3766 31.4194 17.858 31.4194 17.3752Z" fill="#333333"></path>
<path d="M45.5823 19.3333C45.5823 18.3498 45.7969 17.4914 46.2261 16.7582C46.6553 16.0251 47.2186 15.4081 47.916 14.9074C48.6134 14.4067 49.3913 14.0401 50.2497 13.8076C51.1259 13.5573 52.0021 13.4321 52.8784 13.4321C53.3433 13.4321 53.7725 13.5215 54.1659 13.7003C54.5772 13.8613 54.9617 14.0937 55.3193 14.3978C55.6949 14.6839 56.0257 15.0236 56.3118 15.4171C56.5979 15.7926 56.8393 16.186 57.036 16.5973C57.2506 17.0086 57.4116 17.4288 57.5189 17.858C57.6262 18.2693 57.6798 18.6717 57.6798 19.0651C57.6798 19.9771 57.501 20.7907 57.1433 21.506C56.7857 22.2213 56.3029 22.8293 55.6949 23.33C55.0869 23.8129 54.3984 24.1884 53.6294 24.4566C52.8605 24.707 52.0737 24.8322 51.269 24.8322C50.4464 24.8322 49.6864 24.707 48.9889 24.4566C48.3094 24.1884 47.7103 23.8218 47.1918 23.3569C46.691 22.8919 46.2976 22.3197 46.0115 21.6401C45.7254 20.9427 45.5823 20.1738 45.5823 19.3333ZM46.8967 19.1187C46.8967 19.6731 46.995 20.2095 47.1918 20.7281C47.4063 21.2288 47.6925 21.667 48.0501 22.0425C48.4256 22.418 48.8638 22.722 49.3645 22.9545C49.8652 23.1691 50.4017 23.2764 50.9739 23.2764C51.2779 23.3122 51.6445 23.2674 52.0737 23.1423C52.5207 22.9992 52.9588 22.8025 53.388 22.5521C53.8351 22.2839 54.2553 21.971 54.6487 21.6133C55.06 21.2378 55.3998 20.8354 55.668 20.4063C55.9363 19.9592 56.0972 19.5032 56.1509 19.0382C56.2224 18.5554 56.1419 18.0815 55.9095 17.6166C55.6949 17.1338 55.2925 16.6778 54.7024 16.2486C54.1123 15.8015 53.2986 15.3902 52.2614 15.0147C51.6713 15.0147 51.0544 15.1041 50.4106 15.2829C49.7847 15.4439 49.2125 15.6942 48.6939 16.034C48.1753 16.3738 47.7461 16.8029 47.4063 17.3215C47.0666 17.8401 46.8967 18.4392 46.8967 19.1187Z" fill="#333333"></path>
<path d="M58.9673 19.3333C58.9673 18.3498 59.1819 17.4914 59.6111 16.7582C60.0403 16.0251 60.6036 15.4081 61.301 14.9074C61.9984 14.4067 62.7763 14.0401 63.6347 13.8076C64.5109 13.5573 65.3871 13.4321 66.2634 13.4321C66.7283 13.4321 67.1575 13.5215 67.5509 13.7003C67.9622 13.8613 68.3467 14.0937 68.7043 14.3978C69.0799 14.6839 69.4107 15.0236 69.6968 15.4171C69.9829 15.7926 70.2243 16.186 70.4211 16.5973C70.6356 17.0086 70.7966 17.4288 70.9039 17.858C71.0112 18.2693 71.0648 18.6717 71.0648 19.0651C71.0648 19.9771 70.886 20.7907 70.5284 21.506C70.1707 22.2213 69.6879 22.8293 69.0799 23.33C68.4719 23.8129 67.7834 24.1884 67.0145 24.4566C66.2455 24.707 65.4587 24.8322 64.654 24.8322C63.8314 24.8322 63.0714 24.707 62.374 24.4566C61.6944 24.1884 61.0954 23.8218 60.5768 23.3569C60.0761 22.8919 59.6826 22.3197 59.3965 21.6401C59.1104 20.9427 58.9673 20.1738 58.9673 19.3333ZM60.2817 19.1187C60.2817 19.6731 60.3801 20.2095 60.5768 20.7281C60.7914 21.2288 61.0775 21.667 61.4351 22.0425C61.8107 22.418 62.2488 22.722 62.7495 22.9545C63.2502 23.1691 63.7867 23.2764 64.3589 23.2764C64.6629 23.3122 65.0295 23.2674 65.4587 23.1423C65.9057 22.9992 66.3439 22.8025 66.773 22.5521C67.2201 22.2839 67.6403 21.971 68.0338 21.6133C68.445 21.2378 68.7848 20.8354 69.0531 20.4063C69.3213 19.9592 69.4822 19.5032 69.5359 19.0382C69.6074 18.5554 69.5269 18.0815 69.2945 17.6166C69.0799 17.1338 68.6775 16.6778 68.0874 16.2486C67.4973 15.8015 66.6836 15.3902 65.6464 15.0147C65.0563 15.0147 64.4394 15.1041 63.7956 15.2829C63.1697 15.4439 62.5975 15.6942 62.0789 16.034C61.5603 16.3738 61.1311 16.8029 60.7914 17.3215C60.4516 17.8401 60.2817 18.4392 60.2817 19.1187Z" fill="#333333"></path>
<path d="M73.1839 24.0275C73.1839 23.9917 73.1928 23.9023 73.2107 23.7592C73.2286 23.5983 73.2554 23.4284 73.2912 23.2496C73.327 23.0707 73.3538 22.9098 73.3717 22.7667C73.3895 22.6058 73.3985 22.5074 73.3985 22.4717C73.3985 22.4359 73.3985 22.3465 73.3985 22.2034C73.3985 22.0425 73.3985 21.8637 73.3985 21.667C73.4164 21.4703 73.4253 21.2646 73.4253 21.05C73.4253 20.8354 73.4253 20.6745 73.4253 20.5672C73.4253 20.4599 73.4253 20.3168 73.4253 20.138C73.4253 19.9592 73.4164 19.7804 73.3985 19.6015C73.3985 19.4048 73.3985 19.2439 73.3985 19.1187C73.3985 18.9757 73.3985 18.8952 73.3985 18.8773C73.3448 18.0547 73.2375 17.1874 73.0766 16.2754C72.9335 15.3455 72.7726 14.4246 72.5938 13.5126C72.4328 12.6006 72.2719 11.7064 72.111 10.8302C71.9679 9.95396 71.8606 9.14925 71.7891 8.41607C71.95 7.98689 72.1199 7.84383 72.2987 7.98689C72.4954 8.11207 72.6921 8.42501 72.8888 8.92572C73.0855 9.42643 73.2822 10.0523 73.479 10.8034C73.6757 11.5366 73.8455 12.2876 73.9886 13.0566C74.1496 13.8255 74.2926 14.5498 74.4178 15.2293C74.5251 15.9088 74.6145 16.4364 74.686 16.8119C74.7218 16.8476 74.7844 16.8655 74.8738 16.8655C74.9811 16.8655 75.0526 16.8655 75.0884 16.8655C75.446 16.8655 75.759 16.7582 76.0272 16.5436C76.2954 16.3291 76.5458 16.0608 76.7783 15.7389C77.0286 15.3992 77.27 15.0415 77.5025 14.666C77.735 14.2726 77.9764 13.9149 78.2267 13.593C78.4771 13.2712 78.7543 13.0029 79.0583 12.7883C79.3623 12.5559 79.711 12.4396 80.1044 12.4396C80.3548 12.4396 80.5068 12.5201 80.5604 12.681C80.6141 12.8241 80.6319 12.994 80.6141 13.1907C80.3637 13.3874 80.0776 13.6467 79.7557 13.9686C79.4338 14.2905 79.0851 14.6392 78.7096 15.0147C78.3519 15.3902 77.9853 15.7836 77.6098 16.1949C77.2522 16.6062 76.9303 17.0086 76.6441 17.402C76.3759 17.7775 76.1434 18.1441 75.9467 18.5018C75.7679 18.8594 75.6785 19.1724 75.6785 19.4406C75.6785 19.834 75.8037 20.1917 76.054 20.5135C76.3223 20.8354 76.6531 21.1305 77.0465 21.3987C77.4578 21.667 77.9138 21.8994 78.4145 22.0961C78.9152 22.275 79.4159 22.4359 79.9166 22.579C80.4173 22.7041 80.8912 22.8025 81.3383 22.874C81.7675 22.9456 82.1251 22.9813 82.4112 22.9813C82.5722 23.0171 82.6616 23.1065 82.6795 23.2496C82.6974 23.3926 82.7063 23.5267 82.7063 23.6519C82.7063 23.9202 82.6169 24.1169 82.4381 24.242C82.2771 24.3672 82.0715 24.4566 81.8211 24.5103C81.5886 24.5639 81.3383 24.5907 81.0701 24.5907C80.8197 24.5907 80.6051 24.5907 80.4263 24.5907C80.0329 24.5907 79.5769 24.4656 79.0583 24.2152C78.5576 23.9649 78.0658 23.6966 77.583 23.4105C77.118 23.1065 76.7067 22.8293 76.3491 22.579C75.9914 22.3286 75.7411 22.2034 75.598 22.2034C75.3119 22.2034 75.1152 22.3465 75.0079 22.6326C74.9185 22.9009 74.8559 23.1959 74.8201 23.5178C74.7844 23.8397 74.7218 24.1437 74.6324 24.4298C74.5608 24.698 74.391 24.8322 74.1227 24.8322C73.8903 24.8322 73.6757 24.7696 73.479 24.6444C73.2822 24.5192 73.1839 24.3136 73.1839 24.0275Z" fill="#333333"></path>
<path d="M84.6108 15.5243C84.6108 15.4528 84.6108 15.3187 84.6108 15.122C84.6108 14.9253 84.6108 14.7196 84.6108 14.505C84.6287 14.2905 84.6376 14.0848 84.6376 13.8881C84.6376 13.6914 84.6376 13.5573 84.6376 13.4857C84.5661 12.9314 84.727 12.6542 85.1204 12.6542C85.2993 12.6542 85.4513 12.6989 85.5764 12.7883C85.7016 12.8777 85.8178 13.0119 85.9251 13.1907C85.8715 14.1206 85.9073 15.0236 86.0324 15.8999C86.1755 16.7582 86.3275 17.6166 86.4884 18.4749C86.6673 19.3154 86.8282 20.1648 86.9713 21.0232C87.1322 21.8816 87.2127 22.7757 87.2127 23.7056C87.2127 23.9559 87.1322 24.2063 86.9713 24.4566C86.8282 24.707 86.6047 24.8322 86.3007 24.8322C86.0682 24.8322 85.8626 24.6355 85.6837 24.242C85.5228 23.8307 85.3797 23.3211 85.2546 22.7131C85.1294 22.0872 85.0221 21.3987 84.9327 20.6477C84.8433 19.8966 84.7717 19.1813 84.7181 18.5018C84.6823 17.8044 84.6555 17.1874 84.6376 16.6509C84.6197 16.0966 84.6108 15.7211 84.6108 15.5243ZM83.2428 8.7916C83.2428 8.57701 83.3054 8.4429 83.4305 8.38925C83.5557 8.31772 83.7167 8.28195 83.9134 8.28195C84.0385 8.26407 84.1995 8.34454 84.3962 8.52337C84.6108 8.68431 84.7807 8.87207 84.9058 9.08666C85.0489 9.30125 85.1294 9.49796 85.1473 9.67678C85.1651 9.89137 85.031 10.0166 84.7449 10.0523H84.6108C84.3425 10.0523 84.119 10.0344 83.9402 9.99867C83.7614 9.9629 83.6183 9.90926 83.511 9.83773C83.4216 9.74831 83.3501 9.62314 83.2964 9.46219C83.2607 9.30125 83.2428 9.07772 83.2428 8.7916Z" fill="#333333"></path>
<path d="M88.5002 14.3441C88.5002 14.1832 88.5539 14.0848 88.6612 14.049C88.7863 13.9954 88.9205 13.9686 89.0635 13.9686C89.1708 13.9686 89.2423 13.9954 89.2781 14.049C89.3317 14.1027 89.3675 14.1653 89.3854 14.2368C89.4033 14.3083 89.4301 14.3799 89.4659 14.4514C89.5016 14.505 89.5642 14.5319 89.6536 14.5319C89.904 14.5319 90.208 14.4335 90.5656 14.2368C90.9233 14.0401 91.3078 13.8255 91.7191 13.593C92.1482 13.3606 92.5953 13.146 93.0602 12.9493C93.5431 12.7526 94.017 12.6542 94.4819 12.6542C95.0899 12.6542 95.6443 12.8152 96.145 13.137C96.6636 13.441 97.1196 13.8523 97.513 14.3709C97.9243 14.8895 98.273 15.4707 98.5591 16.1145C98.8452 16.7582 99.0866 17.4199 99.2833 18.0994C99.48 18.7611 99.6231 19.4138 99.7125 20.0575C99.8019 20.6834 99.8466 21.2288 99.8466 21.6938C99.8466 21.8547 99.8288 22.0961 99.793 22.418C99.7751 22.7399 99.7304 23.0618 99.6589 23.3837C99.6052 23.7056 99.5069 23.9917 99.3638 24.242C99.2207 24.4745 99.0419 24.5907 98.8273 24.5907C98.7916 24.5907 98.729 24.5907 98.6396 24.5907C98.5502 24.5729 98.4607 24.555 98.3713 24.5371C98.2819 24.5013 98.2014 24.4656 98.1299 24.4298C98.0763 24.394 98.0494 24.3404 98.0494 24.2689C98.2104 22.8919 98.2104 21.6044 98.0494 20.4063C97.8885 19.1902 97.6292 18.1262 97.2716 17.2142C96.9139 16.3022 96.4758 15.578 95.9572 15.0415C95.4386 14.505 94.8843 14.2368 94.2941 14.2368C93.7398 14.2368 93.2212 14.3262 92.7384 14.505C92.2555 14.6839 91.8353 14.9432 91.4776 15.2829C91.12 15.6227 90.8339 16.034 90.6193 16.5168C90.4226 16.9996 90.3242 17.5272 90.3242 18.0994C90.3242 18.6717 90.3779 19.2439 90.4852 19.8161C90.5925 20.3705 90.7087 20.9338 90.8339 21.506C90.9769 22.0604 91.1021 22.6237 91.2094 23.1959C91.3167 23.7682 91.3703 24.3404 91.3703 24.9126C90.8696 24.9126 90.4494 24.707 90.1096 24.2957C89.7699 23.8844 89.4927 23.3569 89.2781 22.7131C89.0814 22.0693 88.9205 21.3451 88.7953 20.5404C88.688 19.7357 88.6075 18.9488 88.5539 18.1799C88.5181 17.3931 88.5002 16.6599 88.5002 15.9803C88.5002 15.2829 88.5002 14.7375 88.5002 14.3441Z" fill="#333333"></path>
<path d="M96.7619 32.2623C96.6904 32.012 96.6993 31.7884 96.7887 31.5917C96.8603 31.395 96.9676 31.2341 97.1106 31.1089C97.2537 30.9837 97.4146 30.9033 97.5934 30.8675C97.7544 30.8317 97.8974 30.8496 98.0226 30.9211C98.1299 31.0105 98.2014 31.1625 98.2372 31.3771C98.2551 31.5917 98.1925 31.8868 98.0494 32.2623C98.0494 32.6557 98.2193 33.0402 98.5591 33.4157C98.881 33.7913 99.3102 34.131 99.8466 34.435C100.365 34.739 100.937 35.0162 101.563 35.2666C102.189 35.5169 102.797 35.7315 103.387 35.9103C103.977 36.0892 104.505 36.2233 104.97 36.3127C105.399 36.4021 105.721 36.4468 105.936 36.4468C106.383 36.4468 106.758 36.3306 107.062 36.0981C107.384 35.8656 107.652 35.5616 107.867 35.1861C108.099 34.8106 108.278 34.3814 108.403 33.8986C108.546 33.4336 108.654 32.9597 108.725 32.4769C108.797 32.012 108.842 31.556 108.859 31.1089C108.877 30.6618 108.886 30.2863 108.886 29.9823C108.886 29.8392 108.868 29.571 108.833 29.1776C108.815 28.8021 108.779 28.3639 108.725 27.8632C108.672 27.3625 108.609 26.8439 108.538 26.3075C108.466 25.771 108.385 25.2703 108.296 24.8053C108.207 24.3404 108.108 23.9649 108.001 23.6787C107.912 23.3926 107.813 23.2496 107.706 23.2496C107.527 23.2496 107.313 23.3032 107.062 23.4105C106.83 23.5178 106.579 23.634 106.311 23.7592C106.061 23.8844 105.801 24.0006 105.533 24.1079C105.265 24.2152 105.006 24.2689 104.755 24.2689C104.255 24.2689 103.763 24.1616 103.28 23.947C102.797 23.7324 102.377 23.4552 102.019 23.1154C101.68 22.7757 101.402 22.3733 101.188 21.9084C100.973 21.4434 100.866 20.9606 100.866 20.4599C100.866 19.6731 101.018 18.8684 101.322 18.0458C101.644 17.2232 102.073 16.4721 102.609 15.7926C103.164 15.113 103.808 14.5587 104.541 14.1295C105.292 13.7003 106.088 13.4857 106.928 13.4857C107.572 13.6646 108.09 14.0759 108.484 14.7196C108.895 15.3455 109.208 16.1234 109.423 17.0533C109.655 17.9832 109.816 19.0204 109.906 20.1648C110.013 21.2914 110.084 22.4449 110.12 23.6251C110.156 24.8053 110.183 25.9588 110.201 27.0854C110.236 28.2298 110.308 29.267 110.415 30.1969C110.415 30.6082 110.388 31.091 110.335 31.6454C110.299 32.2176 110.227 32.7988 110.12 33.3889C110.013 33.979 109.861 34.5602 109.664 35.1325C109.485 35.7226 109.244 36.2412 108.94 36.6882C108.636 37.1532 108.26 37.5198 107.813 37.788C107.384 38.0741 106.883 38.2172 106.311 38.2172C105.846 38.2172 105.283 38.1635 104.621 38.0562C103.977 37.9489 103.298 37.7791 102.583 37.5466C101.885 37.3141 101.188 37.028 100.49 36.6882C99.793 36.3485 99.1671 35.955 98.6127 35.508C98.0584 35.0788 97.6113 34.587 97.2716 34.0327C96.9318 33.4962 96.7619 32.9061 96.7619 32.2623ZM102.395 20.0039C102.395 20.3258 102.44 20.6387 102.529 20.9427C102.636 21.2288 102.779 21.4881 102.958 21.7206C103.155 21.9531 103.387 22.1409 103.656 22.2839C103.942 22.4091 104.255 22.4717 104.594 22.4717C105.506 22.4717 106.195 22.2929 106.66 21.9352C107.143 21.5776 107.473 21.1305 107.652 20.594C107.831 20.0575 107.921 19.4853 107.921 18.8773C107.903 18.2514 107.876 17.6881 107.84 17.1874C107.84 16.9371 107.822 16.6867 107.786 16.4364C107.751 16.186 107.679 15.9535 107.572 15.7389C107.465 15.5243 107.313 15.3545 107.116 15.2293C106.937 15.1041 106.705 15.0415 106.418 15.0415C105.828 15.0415 105.283 15.2114 104.782 15.5512C104.281 15.8731 103.852 16.2843 103.495 16.7851C103.155 17.2679 102.887 17.8044 102.69 18.3945C102.493 18.9667 102.395 19.5032 102.395 20.0039Z" fill="#333333"></path>
<path d="M23.8176 25.8135C23.7921 24.7549 23.5344 23.5584 23.4494 22.4607C23.3795 21.4236 23.4403 20.4319 23.1765 19.2864C22.7753 17.5325 21.7889 15.3952 20.396 13.3333C19.7235 12.3383 18.8798 11.3084 17.8756 10.4191C16.7604 9.42981 15.746 9.04849 14.9258 9.08255C13.9825 9.11879 13.284 9.46318 12.4937 9.68768C11.5975 9.93467 10.6075 10.0672 9.6155 10.2052C8.29993 10.3924 6.97477 10.5721 5.67447 10.785C5.60329 10.7787 5.53974 10.7852 5.49341 10.8121C4.84423 10.9158 4.20269 11.0324 3.57838 11.1694C3.42039 11.2004 3.42733 11.3522 3.52463 11.5251C3.4895 11.6234 3.54064 11.7885 3.71091 11.9971C5.00431 13.5496 6.45783 15.031 7.89982 16.5103C9.38583 18.0378 10.8197 19.6084 12.1938 21.1747C13.6044 22.7762 15.0517 24.3434 16.5163 25.9309C17.1615 26.6258 17.747 27.3163 18.4598 27.9591C19.0711 28.5092 19.7517 29.0364 20.2819 29.6422C20.5173 29.9082 20.7765 30.0393 20.9459 30.0449C21.0554 30.081 21.1631 30.0877 21.2308 30.0355C21.8936 29.5171 22.6023 29.0412 23.1176 28.3876C23.652 27.7488 23.8412 26.8774 23.8176 25.8135ZM8.87983 11.4411C8.89102 11.5125 8.90026 11.5894 8.90204 11.6186C8.89284 11.9183 8.78015 12.1308 8.59075 12.2839C8.22545 12.5865 7.57819 12.3083 6.89201 11.728C7.55272 11.6263 8.21148 11.53 8.87983 11.4411ZM17.1869 25.7671C15.7339 24.1816 14.2731 22.6179 12.8645 21.011C11.5095 19.4595 10.0909 17.9146 8.62408 16.402C7.25489 14.993 5.87984 13.6003 4.63029 12.1305C5.13124 12.0305 5.63218 11.9305 6.1523 11.8453C6.77102 12.443 7.42293 12.948 8.12399 13.247C8.80392 13.5365 9.28569 13.4217 9.58905 13.1895C9.94068 12.9251 10.2314 12.1463 9.67155 11.3153C9.97972 11.2751 10.2898 11.2295 10.5884 11.1819C11.6093 11.0314 12.6302 10.881 13.5573 10.6161C14.2417 10.4141 14.8651 10.0743 15.7196 10.0808C15.5023 10.8257 16.2503 12.1232 17.0314 13.3626C18.2879 15.3606 18.8414 17.0652 18.9914 18.6314C18.9932 18.6607 18.995 18.69 18.9968 18.7192C18.9393 18.6747 18.8702 18.6282 18.8088 18.5945C18.0122 18.1519 17.3372 18.0195 16.6167 17.7751C16.3534 17.6897 16.2084 17.8214 16.3245 18.0787C16.631 18.7622 16.7195 19.5419 17.4664 20.2947C17.9701 20.8033 18.5912 20.9149 19.114 21.0619C19.1197 21.0803 19.1139 21.0966 19.1195 21.115C19.1617 21.9215 19.2751 22.7343 19.1484 23.431C17.9731 22.5068 16.7127 22.4369 16.6702 23.2405C16.624 24.0204 17.6841 25.2668 18.7056 26.1416C18.6538 26.4919 18.5733 26.82 18.4831 27.1406C18.0388 26.7057 17.6272 26.2476 17.1869 25.7671ZM18.9605 19.4371C18.9912 19.4539 19.0334 19.4727 19.0546 19.4821C19.0629 19.7326 19.0713 19.9831 19.0797 20.2336C19.0701 20.2261 19.0586 20.2242 19.049 20.2167C18.6533 20.0567 18.2993 20.0195 17.9055 19.854C17.875 19.8024 17.8444 19.7509 17.8254 19.7013C17.755 19.5561 17.698 19.4074 17.639 19.2641C17.5877 19.1337 17.5383 18.9979 17.4966 18.8749C17.9809 19.0269 18.4479 19.1586 18.9605 19.4371ZM18.9777 24.0796C18.9424 24.2126 18.9071 24.3456 18.8718 24.4786C18.8029 24.7739 18.8051 25.1102 18.7861 25.4371C18.2976 24.989 17.7885 24.3926 17.7423 24.0082C17.6755 23.5103 18.4062 23.6579 18.9777 24.0796ZM20.4623 28.9663C20.154 28.6647 19.8301 28.3721 19.5024 28.0903C19.6589 27.5841 19.7751 27.0536 19.8338 26.4786C19.8663 26.1482 19.8488 25.7861 19.9024 25.4651C19.96 25.0984 20.0656 24.7689 20.1597 24.4373C20.3343 23.7778 20.2822 23.0333 20.2169 22.2229C20.1499 21.3832 20.1558 20.5791 20.1004 19.7413C20.0098 18.2141 19.6235 16.5554 18.5727 14.5982C17.7947 13.1451 16.0993 11.1418 17.053 10.5628C17.055 10.5574 17.0665 10.5593 17.0685 10.5539C17.6957 10.9909 18.3178 11.6819 18.7961 12.2615C19.6666 13.3191 20.3097 14.4307 20.8358 15.4587C21.3467 16.4609 21.7441 17.438 22.0071 18.3458C22.3307 19.4609 22.297 20.4109 22.3442 21.3747C22.4209 22.9748 22.9235 24.856 22.6817 26.2513C22.4614 27.5865 21.4033 28.252 20.4623 28.9663Z" fill="#333333"></path>
<path d="M16.3798 15.5273C16.4886 14.7969 15.8002 13.6702 14.6008 12.8594C13.4598 12.09 12.5477 12.128 12.304 12.6879C12.0416 12.5695 11.7976 12.5727 11.8129 12.8075C11.8521 13.6362 12.8333 14.7942 14.0032 15.5502C15.3035 16.3851 16.2656 16.3081 16.3798 15.5273ZM14.0365 14.8273C13.4505 14.452 13.0419 13.9515 12.9225 13.5274C13.1227 13.6152 13.3126 13.6279 13.3541 13.4741C13.4543 13.1516 13.8861 13.1324 14.472 13.5077C15.1572 13.9466 15.3437 14.5269 15.2805 14.8825C15.2257 15.3187 14.71 15.2647 14.0365 14.8273Z" fill="#333333"></path>
<path d="M14.7807 20.7146C14.5721 19.868 13.2939 18.7309 12.2188 18.2776C11.6912 18.0574 11.1258 17.985 10.7854 18.0668C10.4702 18.1452 10.4368 18.4948 10.3016 18.7178C10.17 18.93 10.5482 19.344 10.8864 19.5194C11.5194 20.2133 12.3066 20.8425 13.1596 21.2761C14.2602 21.8324 14.9601 21.4691 14.7807 20.7146ZM12.9024 20.4308C12.3752 20.138 11.8202 19.6412 11.461 19.2065C11.5392 19.0456 11.6551 18.916 11.9479 18.9755C12.2974 19.0456 12.5651 19.1084 12.9602 19.4008C13.2388 19.6101 13.5115 19.9084 13.637 20.1433C13.914 20.6435 13.4414 20.7247 12.9024 20.4308Z" fill="#333333"></path>
<path d="M12.1126 16.307C11.8034 16.0374 11.6007 16.051 11.5213 16.2004C11.5671 16.1091 11.4968 16.2 11.4794 16.2137C11.4406 16.2521 11.3833 16.2736 11.3373 16.298C11.2413 16.3579 11.138 16.4037 11.0512 16.4721C10.9184 16.5649 11.0701 16.9269 11.3188 17.1929C11.5932 17.4898 11.8742 17.6001 11.9977 17.4988C12.1847 17.3594 12.4302 17.2962 12.538 17.0692C12.6359 16.9368 12.3662 16.5256 12.1126 16.307Z" fill="#333333"></path>
<path d="M15.34 10.7432C14.9013 10.331 14.3996 10.2475 13.9352 9.99972C13.6317 9.84002 13.353 9.87224 13.3257 10.0421C13.2952 10.223 13.5325 10.4867 13.8359 10.6464C14.0388 10.751 14.2481 10.8337 14.4591 10.911C14.4909 10.922 14.6786 10.9992 14.6367 10.9827C14.6467 10.9882 14.6568 10.9937 14.6568 10.9937C14.6568 10.9937 14.6652 11.0047 14.6753 11.0102C14.9123 11.2355 15.2873 11.3515 15.4606 11.2807C15.6471 11.2044 15.5771 10.9685 15.34 10.7432Z" fill="#333333"></path>
<path d="M15.0158 21.8077C14.4477 21.2068 13.7946 21.4151 14.351 22.0146C14.5378 22.2108 14.7343 22.4138 14.9075 22.6142C14.8977 22.6074 14.9843 22.7076 14.9843 22.7076C14.9922 22.7198 15.0634 22.8295 15.0732 22.8362C15.0792 22.8539 15.1011 22.8959 15.109 22.9081C15.1071 22.9135 15.1132 22.9311 15.1113 22.9366C15.1132 22.9311 15.1094 22.942 15.1019 22.9637C14.9983 23.3698 16.0914 24.0641 16.1931 23.6635C16.321 23.1867 15.5997 22.433 15.0158 21.8077Z" fill="#333333"></path>
</svg>