<svg class="w100" width="123" height="27" viewBox="0 0 123 27" fill="none" xmlns="http://www.w3.org/2000/svg">
<path d="M38.038 8.38812H47.8555V3.80872H38.038V8.38812ZM38.038 16.951H47.5418V12.6852H38.038V16.951ZM34.5564 3.80872V25.7647H39.6376V3.80872H34.5564Z" fill="#333333"></path>
<path d="M56.2218 14.7867C56.2218 13.8039 56.3682 12.9152 56.6609 12.1206C56.9537 11.326 57.3719 10.636 57.9155 10.0505C58.4801 9.46501 59.1388 9.00498 59.8916 8.67041C60.6653 8.33584 61.5226 8.16856 62.4636 8.16856C63.4045 8.16856 64.2514 8.33584 65.0042 8.67041C65.7779 9.00498 66.4366 9.46501 66.9802 10.0505C67.5239 10.636 67.9317 11.3365 68.2035 12.152C68.4753 12.9466 68.6113 13.8248 68.6113 14.7867C68.6113 15.7486 68.4649 16.6373 68.1721 17.4528C67.8794 18.2474 67.4612 18.9375 66.9175 19.523C66.3738 20.1084 65.7256 20.5685 64.9728 20.903C64.2201 21.2376 63.3836 21.4049 62.4636 21.4049C61.5226 21.4049 60.6653 21.2376 59.8916 20.903C59.1388 20.5685 58.4801 20.1084 57.9155 19.523C57.3719 18.9375 56.9537 18.237 56.6609 17.4215C56.3682 16.6059 56.2218 15.7277 56.2218 14.7867ZM50.6387 14.7867C50.6387 16.4805 50.921 18.0383 51.4856 19.4602C52.0501 20.8821 52.8657 22.1159 53.9321 23.1614C54.9985 24.2069 56.2532 25.0224 57.696 25.6079C59.1388 26.1725 60.728 26.4548 62.4636 26.4548C64.1782 26.4548 65.7465 26.1725 67.1684 25.6079C68.6113 25.0224 69.8659 24.2069 70.9323 23.1614C71.9988 22.1159 72.8247 20.8821 73.4102 19.4602C73.9957 18.0383 74.2885 16.4805 74.2885 14.7867C74.2885 13.093 73.9853 11.5456 73.3788 10.1446C72.7724 8.72269 71.936 7.49942 70.8696 6.47481C69.8241 5.45019 68.5799 4.66605 67.1371 4.12238C65.7152 3.57871 64.1573 3.30687 62.4636 3.30687C60.7698 3.30687 59.2015 3.57871 57.7587 4.12238C56.3159 4.66605 55.0613 5.45019 53.9948 6.47481C52.9284 7.49942 52.1024 8.72269 51.5169 10.1446C50.9314 11.5456 50.6387 13.093 50.6387 14.7867Z" fill="#333333"></path>
<path d="M81.9821 14.7867C81.9821 13.8039 82.1285 12.9152 82.4212 12.1206C82.714 11.326 83.1322 10.636 83.6759 10.0505C84.2405 9.46501 84.8991 9.00498 85.6519 8.67041C86.4256 8.33584 87.2829 8.16856 88.2239 8.16856C89.1649 8.16856 90.0118 8.33584 90.7645 8.67041C91.5382 9.00498 92.1969 9.46501 92.7406 10.0505C93.2842 10.636 93.692 11.3365 93.9638 12.152C94.2357 12.9466 94.3716 13.8248 94.3716 14.7867C94.3716 15.7486 94.2252 16.6373 93.9325 17.4528C93.6397 18.2474 93.2215 18.9375 92.6778 19.523C92.1342 20.1084 91.4859 20.5685 90.7332 20.903C89.9804 21.2376 89.144 21.4049 88.2239 21.4049C87.2829 21.4049 86.4256 21.2376 85.6519 20.903C84.8991 20.5685 84.2405 20.1084 83.6759 19.523C83.1322 18.9375 82.714 18.237 82.4212 17.4215C82.1285 16.6059 81.9821 15.7277 81.9821 14.7867ZM76.399 14.7867C76.399 16.4805 76.6813 18.0383 77.2459 19.4602C77.8105 20.8821 78.626 22.1159 79.6924 23.1614C80.7589 24.2069 82.0135 25.0224 83.4563 25.6079C84.8991 26.1725 86.4883 26.4548 88.2239 26.4548C89.9386 26.4548 91.5069 26.1725 92.9288 25.6079C94.3716 25.0224 95.6262 24.2069 96.6927 23.1614C97.7591 22.1159 98.5851 20.8821 99.1705 19.4602C99.756 18.0383 100.049 16.4805 100.049 14.7867C100.049 13.093 99.7456 11.5456 99.1392 10.1446C98.5328 8.72269 97.6964 7.49942 96.6299 6.47481C95.5844 5.45019 94.3402 4.66605 92.8974 4.12238C91.4755 3.57871 89.9177 3.30687 88.2239 3.30687C86.5302 3.30687 84.9619 3.57871 83.519 4.12238C82.0762 4.66605 80.8216 5.45019 79.7552 6.47481C78.6887 7.49942 77.8628 8.72269 77.2773 10.1446C76.6918 11.5456 76.399 13.093 76.399 14.7867Z" fill="#333333"></path>
<path d="M103.414 3.80872V25.7647H108.903V3.80872H103.414ZM111.224 25.7647C113.022 25.7647 114.643 25.5138 116.086 25.012C117.529 24.4892 118.762 23.7573 119.787 22.8164C120.832 21.8545 121.627 20.7044 122.171 19.3661C122.714 18.0069 122.986 16.4805 122.986 14.7867C122.986 13.093 122.714 11.577 122.171 10.2387C121.627 8.87952 120.832 7.72944 119.787 6.78847C118.762 5.82658 117.529 5.09472 116.086 4.59286C114.643 4.0701 113.022 3.80872 111.224 3.80872H106.896V8.54495H111.067C111.904 8.54495 112.709 8.6495 113.482 8.8586C114.256 9.06771 114.936 9.41273 115.521 9.89367C116.128 10.3746 116.609 11.0228 116.964 11.8383C117.319 12.6329 117.497 13.6157 117.497 14.7867C117.497 15.9577 117.319 16.951 116.964 17.7665C116.609 18.5611 116.128 19.1988 115.521 19.6798C114.936 20.1607 114.256 20.5057 113.482 20.7149C112.709 20.924 111.904 21.0285 111.067 21.0285H106.896V25.7647H111.224Z" fill="#333333"></path>
<g clip-path="url(#37ee57b2-d269-455e-a79a-937a9a1523a2clip0_7_2407)">
<path d="M16.5328 10.0482V9.56515C16.5548 8.11778 16.0425 6.71309 15.0938 5.6198C14.1451 4.5265 12.8266 3.82136 11.3906 3.63927C10.5986 3.56299 9.79936 3.65304 9.04419 3.90366C8.28902 4.15428 7.59455 4.55993 7.00529 5.0946C6.41604 5.62927 5.94501 6.28117 5.6224 7.00851C5.29979 7.73584 5.13272 8.52257 5.1319 9.31824V9.31824C5.13397 10.8922 4.53048 12.4067 3.44646 13.5479C2.80302 14.2165 2.31687 15.0203 2.02344 15.9006C1.73001 16.7809 1.63669 17.7155 1.75028 18.6365C1.97378 20.1802 2.74988 21.5904 3.93448 22.6052C5.11908 23.62 6.63169 24.1705 8.19146 24.1544H12.7862C16.6294 24.1544 19.5065 21.8356 19.8822 18.6365C20.0008 17.6748 19.8938 16.6988 19.5695 15.7857C19.2453 14.8726 18.7128 14.0476 18.0143 13.3762C17.5555 12.9502 17.1877 12.4357 16.9331 11.8638C16.6785 11.2918 16.5423 10.6742 16.5328 10.0482V10.0482Z" stroke="#333333" stroke-width="2.05044" stroke-miterlimit="10"></path>
<path d="M10.832 0.536774V3.6178" stroke="#333333" stroke-width="2.05044" stroke-miterlimit="10"></path>
<path d="M10.832 3.6178H13.956C15.3038 3.6178 16.6383 3.88326 17.8835 4.39902C19.1286 4.91478 20.26 5.67074 21.213 6.62374C22.166 7.57675 22.922 8.70813 23.4377 9.95328C23.9535 11.1984 24.2189 12.533 24.2189 13.8807H21.095C20.0793 13.8855 19.069 13.7334 18.0998 13.4299" stroke="#333333" stroke-width="2.05044" stroke-miterlimit="10"></path>
</g>
<defs>
<clipPath id="37ee57b2-d269-455e-a79a-937a9a1523a2clip0_7_2407">
<rect width="25.7647" height="25.7647" fill="white"></rect>
</clipPath>
</defs>
</svg>