<svg class="w100" width="124" height="18" viewBox="0 0 124 18" fill="none" xmlns="http://www.w3.org/2000/svg">
<path d="M13.4024 2.09769V0.274566H15.3956V5.71098H13.4024C12.9456 4.64933 12.2224 3.8 11.2327 3.16301C10.2499 2.52601 9.21523 2.20751 8.12864 2.20751C7.04898 2.20751 6.08697 2.47842 5.24261 3.02023C4.39826 3.55472 3.74077 4.29422 3.27014 5.23873C2.80644 6.18324 2.57459 7.25588 2.57459 8.45665C2.57459 9.71599 2.82028 10.8326 3.31167 11.8064C3.80306 12.7802 4.48477 13.538 5.35681 14.0798C6.23577 14.6216 7.23584 14.8925 8.35703 14.8925C9.20831 14.8925 9.9973 14.7277 10.724 14.3983C11.4576 14.0688 12.0632 13.6002 12.5407 12.9925C13.0252 12.3848 13.3263 11.6892 13.4439 10.9058H10.5683V8.81908H16.2677V9.35723C16.2677 10.9314 15.9285 12.3042 15.2503 13.4757C14.572 14.6472 13.6343 15.5441 12.4369 16.1665C11.2465 16.7888 9.90733 17.1 8.41932 17.1C6.72369 17.1 5.23569 16.7412 3.95532 16.0237C2.68186 15.2988 1.70255 14.2884 1.01738 12.9925C0.339126 11.6965 0 10.1919 0 8.47861C0 6.84586 0.339126 5.38516 1.01738 4.09653C1.70255 2.8079 2.6438 1.80482 3.84112 1.08728C5.03844 0.362428 6.39495 0 7.91063 0C10.0561 0 11.8867 0.699229 13.4024 2.09769Z" fill="#333333"></path>
<path d="M29.7324 4.61272C29.7324 5.67437 29.4486 6.56763 28.8811 7.29249C28.3136 8.01002 27.5211 8.50424 26.5037 8.77514L29.2652 14.7607H31.1754V16.8254H27.6665L24.2094 9.11561H22.019V14.7607H24.0122V16.8254H17.5342V14.7607H19.652V2.33931H17.5342V0.274566H24.033C26.047 0.274566 27.5004 0.622351 28.3932 1.31792C29.286 2.01349 29.7324 3.11175 29.7324 4.61272ZM27.2927 4.56879C27.2927 3.8 27.0643 3.23622 26.6076 2.87746C26.1508 2.51869 25.4275 2.33931 24.4378 2.33931H22.019V7.03988H24.2925C25.3099 7.03988 26.0643 6.85318 26.5556 6.47977C27.047 6.10636 27.2927 5.46936 27.2927 4.56879Z" fill="#333333"></path>
<path d="M36.1585 2.33931V14.7607H37.861V16.8254H32.0993V14.7607H33.7915V2.33931H32.0993V0.274566H37.861V2.33931H36.1585Z" fill="#333333"></path>
<path d="M43.2801 2.33931V14.7607H48.4189V9.63179H50.3602V16.8254H38.8991V14.7607H40.9131V2.33931H38.8991V0.274566H45.2941V2.33931H43.2801Z" fill="#333333"></path>
<path d="M55.7793 2.33931V14.7607H60.9181V9.63179H62.8594V16.8254H51.3984V14.7607H53.4124V2.33931H51.3984V0.274566H57.7933V2.33931H55.7793Z" fill="#333333"></path>
<path d="M74.3101 3.55838C74.3101 4.26127 74.1579 4.84701 73.8533 5.31561C73.5488 5.77688 73.182 6.14297 72.7529 6.41387C72.3307 6.68478 71.7528 6.98497 71.0192 7.31445L74.2063 11.8723C74.7738 10.8106 75.1787 9.54393 75.4209 8.07225H78.6288V10.104H76.9885C76.5664 11.6636 76.0438 12.8387 75.4209 13.6295L76.2515 14.7607H78.6288V16.8254H75.0784L74.0402 15.3647C72.6629 16.5216 71.2649 17.1 69.8461 17.1C68.8011 17.1 67.8529 16.8547 67.0016 16.3642C66.1503 15.8736 65.4825 15.2073 64.998 14.3653C64.5205 13.516 64.2817 12.5751 64.2817 11.5428C64.2817 10.4152 64.5758 9.44509 65.1641 8.63237C65.7524 7.81233 66.6487 7.11676 67.8529 6.54566C67.1262 5.57187 66.7628 4.60539 66.7628 3.64624C66.7628 2.94335 66.9393 2.31368 67.2923 1.75723C67.6522 1.20077 68.1228 0.768786 68.7042 0.461272C69.2855 0.153757 69.9084 0 70.5728 0C71.2511 0 71.8774 0.153757 72.4519 0.461272C73.0263 0.768786 73.4796 1.19711 73.8118 1.74624C74.144 2.29538 74.3101 2.89942 74.3101 3.55838ZM69.8876 5.75491C70.7528 5.36686 71.3584 5.00443 71.7044 4.66763C72.0574 4.33083 72.2338 3.93911 72.2338 3.49249C72.2338 3.08247 72.0954 2.7237 71.8186 2.41618C71.5418 2.10867 71.1403 1.95491 70.6143 1.95491C70.116 1.95491 69.7146 2.10501 69.4101 2.4052C69.1056 2.70539 68.9533 3.09711 68.9533 3.58035C68.9533 3.74143 69.0052 3.95742 69.109 4.22832C69.2198 4.49923 69.4793 5.00809 69.8876 5.75491ZM70.1057 15.0243C71.1092 15.0243 72.0158 14.5813 72.8256 13.6954L69.0156 8.07225C68.1989 8.48227 67.5899 8.95453 67.1885 9.48902C66.794 10.0162 66.5967 10.6459 66.5967 11.378C66.5967 12.037 66.749 12.6447 67.0535 13.2012C67.358 13.7576 67.7802 14.2006 68.3201 14.5301C68.8599 14.8595 69.4551 15.0243 70.1057 15.0243Z" fill="#333333"></path>
<path d="M90.7335 4.54682C90.7335 5.32293 90.5709 6.00751 90.2456 6.60058C89.9203 7.19364 89.4462 7.64759 88.8233 7.96243C89.7023 8.29191 90.3736 8.80809 90.8373 9.51098C91.308 10.2066 91.5433 11.0339 91.5433 11.9931C91.5433 13.5672 90.9965 14.768 89.903 15.5954C88.8164 16.4154 87.1865 16.8254 85.0134 16.8254H79.5943V14.7607H81.5252V2.33931H79.5943V0.274566H85.0964C86.9997 0.274566 88.415 0.626012 89.3424 1.3289C90.2698 2.03179 90.7335 3.10443 90.7335 4.54682ZM88.3977 4.67861C88.3977 3.9025 88.1382 3.32042 87.6191 2.93237C87.1 2.53699 86.3664 2.33931 85.4182 2.33931H83.8714V7.17168H85.439C87.4115 7.17168 88.3977 6.34066 88.3977 4.67861ZM89.1452 11.9491C89.1452 11.0339 88.8372 10.353 88.2212 9.90636C87.6122 9.45241 86.664 9.22543 85.3767 9.22543H83.8714V14.7607H84.8057C85.7401 14.7607 86.5083 14.7021 87.1104 14.585C87.7125 14.4605 88.2005 14.1969 88.5742 13.7942C88.9548 13.3842 89.1452 12.7692 89.1452 11.9491Z" fill="#333333"></path>
<path d="M103.087 2.27341L107.323 14.7607H109.067V16.8254H102.901V14.7607H104.946L103.731 11.0046H98.0524L96.8378 14.7607H98.8206V16.8254H92.6126V14.7607H94.502L98.7168 2.27341H96.8378V0.274566H104.966V2.27341H103.087ZM100.949 2.27341H100.876L98.6649 9.06069H103.108L100.949 2.27341Z" fill="#333333"></path>
<path d="M121.857 4.61272C121.857 5.67437 121.573 6.56763 121.006 7.29249C120.438 8.01002 119.646 8.50424 118.628 8.77514L121.39 14.7607H123.3V16.8254H119.791L116.334 9.11561H114.144V14.7607H116.137V16.8254H109.659V14.7607H111.777V2.33931H109.659V0.274566H116.158C118.172 0.274566 119.625 0.622351 120.518 1.31792C121.411 2.01349 121.857 3.11175 121.857 4.61272ZM119.417 4.56879C119.417 3.8 119.189 3.23622 118.732 2.87746C118.275 2.51869 117.552 2.33931 116.562 2.33931H114.144V7.03988H116.417C117.435 7.03988 118.189 6.85318 118.68 6.47977C119.172 6.10636 119.417 5.46936 119.417 4.56879Z" fill="#333333"></path>
</svg>