<svg class="w100" width="139" height="22" viewBox="0 0 139 22" fill="none" xmlns="http://www.w3.org/2000/svg">
<g clip-path="url(#b6d9f58a-07d0-424b-9f3f-dc0de86b6e8bclip0_7_2411)">
<path d="M15.0679 10.742C14.6811 10.7418 14.2984 10.6633 13.9427 10.5112C13.5871 10.3592 13.2658 10.1368 12.9984 9.85735C12.9005 9.75942 12.8107 9.65375 12.7298 9.54138C12.4795 10.1438 12.0563 10.6586 11.5136 11.0208C10.9709 11.3829 10.3332 11.5762 9.68076 11.5762C9.02836 11.5762 8.39059 11.3829 7.84793 11.0208C7.30527 10.6586 6.88206 10.1438 6.63172 9.54138C6.55083 9.65375 6.46102 9.75942 6.36315 9.85735C6.09569 10.1368 5.77446 10.3592 5.4188 10.5112C5.06313 10.6633 4.68038 10.7418 4.29359 10.742C3.93117 10.7468 3.57141 10.6797 3.23511 10.5446L4.70434 18.2067H14.6572L16.1264 10.5446C15.7901 10.6797 15.4304 10.7468 15.0679 10.742V10.742Z" stroke="#333333" stroke-width="1.69356" stroke-miterlimit="10"></path>
<path d="M17.9671 7.72453C17.9713 7.76391 17.9713 7.80363 17.9671 7.84301C17.9695 8.48341 17.752 9.10522 17.351 9.60451C17.0849 9.96029 16.739 10.2486 16.3411 10.4462C15.9432 10.6437 15.5045 10.7451 15.0603 10.742C14.6735 10.7417 14.2907 10.6632 13.935 10.5112C13.5794 10.3591 13.2581 10.1367 12.9907 9.85728C12.8928 9.75935 12.803 9.65369 12.7221 9.54132C12.4718 10.1438 12.0486 10.6586 11.5059 11.0207C10.9633 11.3829 10.3255 11.5761 9.67307 11.5761C9.02067 11.5761 8.38289 11.3829 7.84024 11.0207C7.29758 10.6586 6.87437 10.1438 6.62402 9.54132C6.54314 9.65369 6.45333 9.75935 6.35545 9.85728C6.088 10.1367 5.76677 10.3591 5.41111 10.5112C5.05544 10.6632 4.67269 10.7417 4.28589 10.742C3.92348 10.7468 3.56371 10.6797 3.22741 10.5445C2.73479 10.3562 2.30693 10.0299 1.99516 9.60451C1.59697 9.10416 1.3823 8.48245 1.38693 7.84301C1.38274 7.80363 1.38274 7.76391 1.38693 7.72453V7.72453C1.38693 7.62974 1.38693 7.54285 1.38693 7.44806C1.38693 4.21733 5.0995 1.61853 9.68097 1.61853C14.2624 1.61853 17.975 4.21733 17.975 7.42436C17.975 7.51915 17.975 7.60604 17.975 7.70083L17.9671 7.72453Z" stroke="#333333" stroke-width="1.69356" stroke-miterlimit="10"></path>
<path d="M9.68066 4.63602V7.65347" stroke="#333333" stroke-width="1.69356" stroke-miterlimit="10"></path>
<path d="M6.66302 4.63602L5.1543 6.89516" stroke="#333333" stroke-width="1.69356" stroke-miterlimit="10"></path>
<path d="M12.698 4.63602L14.2067 6.89516" stroke="#333333" stroke-width="1.69356" stroke-miterlimit="10"></path>
<path d="M8.02154 18.2066L7.32642 10.584" stroke="#333333" stroke-width="1.69356" stroke-miterlimit="10"></path>
<path d="M12.0342 10.584L11.3391 18.2066" stroke="#333333" stroke-width="1.69356" stroke-miterlimit="10"></path>
</g>
<path d="M28.916 16.5829V1.83792H32.1876V7.85878L37.4865 1.83792H40.3894L33.831 9.2104L40.3894 16.5829H37.1025L32.1876 10.8539V16.5829H28.916Z" fill="#333333"></path>
<path d="M46.9325 16.5829H43.661V5.10946H46.9325V8.39636C47.0605 7.30073 47.3984 6.479 47.9462 5.93119C48.4941 5.38337 49.2518 5.10946 50.2194 5.10946H51.8475V8.39636H48.576C48.1254 8.39636 47.7389 8.55763 47.4163 8.88018C47.0938 9.19761 46.9325 9.57903 46.9325 10.0244V16.5829Z" fill="#333333"></path>
<path d="M63.3209 5.10946V16.5829H60.0494V14.9394C59.9214 16.0351 59.3736 16.5829 58.4059 16.5829H56.7625C55.8665 16.5829 55.096 16.2629 54.4509 15.6229C53.8109 14.9778 53.491 14.2073 53.491 13.3113V5.10946H56.7625V13.3113C56.7625 13.7516 56.9212 14.1331 57.2386 14.4556C57.5612 14.7782 57.9503 14.9394 58.4059 14.9394C58.8616 14.9394 59.2482 14.7782 59.5656 14.4556C59.8881 14.1331 60.0494 13.7516 60.0494 13.3113V5.10946H63.3209Z" fill="#333333"></path>
<path d="M66.5848 16.5829V5.10946H69.8563V6.75291C69.9229 6.19997 70.0918 5.78783 70.3632 5.51648C70.6397 5.24513 71.0185 5.10946 71.4998 5.10946H73.1432C74.0392 5.10946 74.8072 5.43457 75.4471 6.08478C76.0922 6.72987 76.4148 7.5004 76.4148 8.39636V16.5829H73.1432V8.39636C73.1432 7.94582 72.9794 7.55928 72.6517 7.23673C72.3292 6.91418 71.9452 6.75291 71.4998 6.75291C71.0492 6.75291 70.6627 6.91418 70.3402 7.23673C70.0176 7.55928 69.8563 7.94582 69.8563 8.39636V16.5829H66.5848Z" fill="#333333"></path>
<path d="M89.5086 5.10946V18.2263C89.5086 19.1172 89.1835 19.8851 88.5333 20.5302C87.8882 21.1753 87.1228 21.4979 86.2371 21.4979H82.9502C81.02 21.4979 79.9295 20.4074 79.6786 18.2263H81.3221C81.3989 19.3117 81.9416 19.8544 82.9502 19.8544H84.5936C85.039 19.8544 85.423 19.6932 85.7456 19.3706C86.0732 19.0532 86.2371 18.6718 86.2371 18.2263V14.9394C86.1091 16.0351 85.5613 16.5829 84.5936 16.5829H82.9502C82.0542 16.5829 81.2837 16.2629 80.6386 15.6229C79.9986 14.9778 79.6786 14.2073 79.6786 13.3113V8.39636C79.6786 7.49016 80.0012 6.71707 80.6463 6.0771C81.2914 5.43201 82.0593 5.10946 82.9502 5.10946H89.5086ZM86.2371 6.75291H84.5936C84.1431 6.75291 83.7565 6.91418 83.434 7.23673C83.1115 7.55928 82.9502 7.94582 82.9502 8.39636V13.3113C82.9502 13.7516 83.1089 14.1331 83.4263 14.4556C83.7489 14.7782 84.138 14.9394 84.5936 14.9394C85.0493 14.9394 85.4358 14.7782 85.7533 14.4556C86.0758 14.1331 86.2371 13.7516 86.2371 13.3113V6.75291Z" fill="#333333"></path>
<path d="M94.4159 1.83792H97.6875V5.10946H99.3309V6.75291H97.6875V13.3113C97.6875 13.8387 97.8615 14.2431 98.2097 14.5247C98.5578 14.8012 98.8804 14.9394 99.1773 14.9394H99.3309V16.5829H97.6875C96.7864 16.5829 96.0159 16.2629 95.3759 15.6229C94.7359 14.9778 94.4159 14.2073 94.4159 13.3113V6.75291H92.7725V5.10946H94.4159V1.83792Z" fill="#333333"></path>
<path d="M102.602 16.5829V1.83792H105.874V6.75291C105.941 6.19997 106.11 5.78783 106.381 5.51648C106.657 5.24513 107.036 5.10946 107.517 5.10946H109.161C110.057 5.10946 110.825 5.43457 111.465 6.08478C112.11 6.72987 112.432 7.5004 112.432 8.39636V16.5829H109.161V8.39636C109.161 7.94582 108.997 7.55928 108.669 7.23673C108.347 6.91418 107.963 6.75291 107.517 6.75291C107.067 6.75291 106.68 6.91418 106.358 7.23673C106.035 7.55928 105.874 7.94582 105.874 8.39636V16.5829H102.602Z" fill="#333333"></path>
<path d="M125.526 11.6679H118.968V13.3113C118.968 13.7516 119.127 14.1331 119.444 14.4556C119.767 14.7782 120.156 14.9394 120.611 14.9394H122.255C123.34 14.9394 123.883 14.3967 123.883 13.3113H125.526C125.27 15.4924 124.18 16.5829 122.255 16.5829H118.968C118.072 16.5829 117.301 16.2629 116.656 15.6229C116.016 14.9778 115.696 14.2073 115.696 13.3113V8.39636C115.696 7.49016 116.019 6.71707 116.664 6.0771C117.309 5.43201 118.077 5.10946 118.968 5.10946H122.255C123.151 5.10946 123.919 5.43457 124.559 6.08478C125.204 6.72987 125.526 7.5004 125.526 8.39636V11.6679ZM118.968 10.0244H122.255V8.39636C122.255 7.94582 122.091 7.55928 121.763 7.23673C121.441 6.91418 121.057 6.75291 120.611 6.75291C120.161 6.75291 119.774 6.91418 119.452 7.23673C119.129 7.55928 118.968 7.94582 118.968 8.39636V10.0244Z" fill="#333333"></path>
<path d="M128.79 5.10946H132.062V6.75291C132.062 6.19997 132.2 5.78783 132.476 5.51648C132.753 5.24513 133.162 5.10946 133.705 5.10946H135.349C136.245 5.10946 137.012 5.43457 137.652 6.08478C138.298 6.72987 138.62 7.5004 138.62 8.39636V13.3113C138.62 14.2073 138.298 14.9778 137.652 15.6229C137.012 16.2629 136.245 16.5829 135.349 16.5829H132.062V19.8544H128.79V5.10946ZM132.062 14.9394H133.705C134.151 14.9394 134.535 14.7807 134.857 14.4633C135.185 14.1408 135.349 13.7568 135.349 13.3113V8.39636C135.349 7.94582 135.185 7.56183 134.857 7.24441C134.535 6.92186 134.151 6.76059 133.705 6.76059C133.255 6.75547 132.868 6.91418 132.545 7.23673C132.223 7.55928 132.062 7.94582 132.062 8.39636V14.9394Z" fill="#333333"></path>
<defs>
<clipPath id="b6d9f58a-07d0-424b-9f3f-dc0de86b6e8bclip0_7_2411">
<rect width="18.9578" height="18.9578" fill="white" transform="translate(0.20166 0.433655)"></rect>
</clipPath>
</defs>
</svg>