<svg class="w100" width="118" height="29" viewBox="0 0 118 29" fill="none" xmlns="http://www.w3.org/2000/svg">
<g clip-path="url(#62865732-90d3-4b59-a98c-3718416c4289clip0_7_2408)">
<path d="M70.1895 4.39428C69.9609 4.16565 69.6179 4.27996 69.3893 4.50859C69.1607 4.73722 69.275 5.08016 69.5036 5.30879C72.5901 7.36646 74.4191 10.6816 74.4191 14.3397C74.4191 18.6836 71.7899 22.5703 67.7889 24.285C67.4459 24.3993 67.3316 24.7423 67.4459 25.0852C67.5603 25.3139 67.7889 25.4282 68.0175 25.4282C68.1318 25.4282 68.1318 25.4282 68.2461 25.4282C72.7044 23.4848 75.5623 19.2552 75.5623 14.3397C75.5623 10.453 73.5046 6.68057 70.1895 4.39428Z" fill="#333333"></path>
<path d="M58.8725 24.285C55.1002 22.456 52.6995 18.5693 52.6995 14.454C52.6995 10.7959 54.5286 7.48078 57.5008 5.42311C57.7294 5.19448 57.8437 4.85154 57.6151 4.62291C57.5008 4.39428 57.1578 4.27997 56.8149 4.50859C53.4997 6.79489 51.5564 10.453 51.5564 14.454C51.5564 19.0266 54.2999 23.3705 58.4153 25.3139C58.5296 25.3139 58.5296 25.3139 58.6439 25.3139C58.8725 25.3139 59.1012 25.1995 59.2155 24.9709C59.3298 24.7423 59.2155 24.3993 58.8725 24.285Z" fill="#333333"></path>
<path d="M69.9614 9.19549C69.9614 7.7094 68.9326 6.68056 66.8749 6.33762C67.1036 6.22331 67.4465 6.22331 67.7895 6.22331C68.2467 6.22331 68.704 6.10899 68.9326 5.88036C69.1612 5.65173 69.3899 5.30879 69.3899 4.85153C69.3899 3.8227 68.361 2.45092 66.9893 2.45092C66.7606 2.45092 66.532 2.45092 66.3034 2.56524C65.9604 1.65072 65.2745 0.621887 64.1314 0.621887C64.0171 0.621887 63.7885 0.621887 63.5598 0.736202C63.3312 0.736202 63.2169 0.621887 62.9883 0.621887C61.7308 0.621887 61.1592 1.65072 60.8163 2.56524C60.702 2.45092 60.4733 2.45092 60.1304 2.45092C58.8729 2.45092 57.8441 3.70838 57.8441 4.73722C57.8441 5.08016 57.9584 5.4231 58.3013 5.76605C58.53 5.99468 58.9872 6.10899 59.4445 6.10899C59.7874 6.10899 60.1304 6.22331 60.359 6.22331C58.187 6.68056 57.1582 7.7094 57.1582 9.19549V9.3098L60.702 25.6568C60.9306 27.0286 61.5022 27.3715 62.3024 27.7145C62.531 27.8288 62.7596 27.9431 62.9883 28.0574C63.1026 28.1717 63.2169 28.286 63.4455 28.286C63.6741 28.286 63.7885 28.1717 63.9028 28.0574C64.1314 27.9431 64.36 27.8288 64.5887 27.7145C65.2745 27.4858 66.0747 27.1429 66.3034 25.6568L69.9614 9.3098V9.19549ZM58.9872 4.73722C58.9872 4.27996 59.5588 3.59407 60.1304 3.59407C60.359 3.59407 60.5876 3.70838 60.9306 3.93701C61.0449 4.05133 61.2735 4.16564 61.5022 4.05133C61.7308 3.93701 61.8451 3.8227 61.8451 3.59407C61.8451 3.59407 61.9594 1.87935 62.9883 1.87935C63.1026 1.87935 63.2169 1.87935 63.3312 1.87935C63.4455 1.87935 63.5598 1.87935 63.6741 1.87935C63.7885 1.87935 63.9028 1.87935 64.0171 1.87935C65.0459 1.87935 65.1602 3.59407 65.1602 3.59407C65.1602 3.8227 65.2745 4.05133 65.5032 4.05133C65.7318 4.16564 65.9604 4.05133 66.0747 3.93701C66.4177 3.70838 66.6463 3.59407 66.9893 3.59407C67.5608 3.59407 68.1324 4.27996 68.1324 4.73722C68.1324 4.85153 68.1324 4.85153 68.1324 4.85153C68.1324 4.85153 68.0181 4.96584 67.7895 4.96584C65.7318 4.96584 64.8173 6.33762 64.5887 7.25214L63.5598 7.82371L62.6453 7.25214C62.4167 6.33762 61.5022 4.85153 59.4445 4.85153C58.9872 4.96584 58.9872 4.85153 58.9872 4.73722ZM67.7895 13.8824C67.6752 13.7681 67.5608 13.7681 67.4465 13.7681H65.1602C64.8173 13.7681 64.5887 13.9967 64.5887 14.3396C64.5887 14.6826 64.8173 14.9112 65.1602 14.9112H67.4465C67.4465 14.9112 67.4465 14.9112 67.5608 14.9112L66.3034 20.627H64.1314C63.7885 20.627 63.5598 20.8556 63.5598 21.1985C63.5598 21.5415 63.7885 21.7701 64.1314 21.7701H66.0747L65.2745 25.5425C65.1602 26.457 64.9316 26.457 64.36 26.6856C64.1314 26.7999 63.9028 26.9143 63.6741 27.0286C63.4455 26.9143 63.2169 26.7999 62.9883 26.6856C62.6453 26.5713 62.531 26.457 62.4167 26.3427H63.1026C63.4455 26.3427 63.6741 26.1141 63.6741 25.7711C63.6741 25.4282 63.4455 25.1995 63.1026 25.1995H61.8451L60.359 18.2263C60.4733 18.3407 60.5876 18.3407 60.702 18.3407H62.9883C63.3312 18.3407 63.5598 18.112 63.5598 17.7691C63.5598 17.4261 63.3312 17.1975 62.9883 17.1975H60.702C60.4733 17.1975 60.359 17.3118 60.2447 17.4261L59.3302 13.0822H60.4733C60.8163 13.0822 61.0449 12.8536 61.0449 12.5106C61.0449 12.1677 60.8163 11.939 60.4733 11.939H58.9872L58.3013 9.08117C58.3013 8.5096 58.6443 7.7094 60.4733 7.36645C60.8163 7.36645 60.9306 7.02351 60.9306 6.68056C61.2735 7.13782 61.3878 7.59508 61.5022 7.7094C61.5022 7.82371 61.6165 8.05234 61.7308 8.05234L62.9883 8.96686C63.1026 9.08117 63.2169 9.19549 63.4455 9.19549C63.5598 9.19549 63.6741 9.08117 63.7885 9.08117L65.2745 8.16666C65.3889 8.05234 65.5032 7.93803 65.5032 7.82371C65.5032 7.82371 65.6175 7.25214 66.0747 6.79488C66.0747 7.13782 66.1891 7.36645 66.532 7.48077C68.4754 7.82371 68.704 8.5096 68.8183 9.19549L67.7895 13.8824Z" fill="#333333"></path>
</g>
<path d="M1.37477 23.1507C1.34115 21.0164 1.29914 19.193 1.24873 17.6806C1.21511 16.1513 1.1815 14.8657 1.14789 13.8237C1.11428 12.7818 1.07227 11.9583 1.02185 11.3533C0.988243 10.7316 0.963035 10.2358 0.946229 9.86608C0.929424 9.49636 0.912619 9.23588 0.895813 9.08463C0.879008 8.91657 0.870605 8.75692 0.870605 8.60568C0.870605 8.31999 0.954632 8.14353 1.12269 8.07631C1.29074 7.99228 1.50081 7.95027 1.75289 7.95027C2.03858 7.95027 2.25705 8.00909 2.40829 8.12672C2.57635 8.22756 2.66037 8.50484 2.66037 8.95859L3.13933 22.5205C3.15613 22.5205 3.24016 22.5037 3.39141 22.4701C3.54265 22.4365 3.71911 22.386 3.92077 22.3188C4.12244 22.2516 4.3325 22.1844 4.55097 22.1172C4.76944 22.0331 4.9459 21.9575 5.08034 21.8903C5.282 21.8063 5.5845 21.6718 5.98783 21.487C6.39116 21.3021 6.8449 21.092 7.34906 20.8568C7.85322 20.6215 8.38259 20.3778 8.93716 20.1257C9.50854 19.8568 10.0463 19.6132 10.5505 19.3947C11.0714 19.1594 11.5252 18.9494 11.9117 18.7645C12.315 18.5628 12.6175 18.42 12.8192 18.336H13.1217C13.2225 18.336 13.3234 18.3444 13.4242 18.3612C13.525 18.378 13.609 18.42 13.6763 18.4872C13.7435 18.5544 13.7855 18.6553 13.8023 18.7897C13.8023 18.9578 13.7687 19.1006 13.7015 19.2182C13.6511 19.3359 13.5754 19.4703 13.4746 19.6216C12.4831 19.8064 11.5084 20.1425 10.5505 20.6299C9.60938 21.1172 8.66828 21.6214 7.72718 22.1424C6.80289 22.6633 5.86179 23.1255 4.90388 23.5288C3.96279 23.9321 2.99648 24.1338 2.00497 24.1338C1.58483 24.1338 1.37477 23.8061 1.37477 23.1507Z" fill="#333333"></path>
<path d="M15.3904 18.6889C15.3064 18.7057 15.1803 18.7309 15.0123 18.7645C14.8442 18.7981 14.6678 18.8065 14.4829 18.7897C14.2981 18.7729 14.1384 18.7225 14.004 18.6385C13.8527 18.5544 13.7771 18.4116 13.7771 18.2099C13.7771 18.0923 13.8023 18.0083 13.8527 17.9578C13.9031 17.9074 13.9872 17.8318 14.1048 17.731C14.4745 17.4285 14.7854 17.042 15.0375 16.5714C15.3064 16.084 15.5501 15.5715 15.7685 15.0337C15.987 14.4791 16.2139 13.933 16.4491 13.3952C16.7012 12.8406 16.9869 12.3449 17.3062 11.9079C17.6255 11.471 18.0204 11.1181 18.491 10.8492C18.9615 10.5803 19.5413 10.4543 20.2303 10.4711C20.516 10.4711 20.8353 10.5383 21.1882 10.6727C21.5412 10.8072 21.8689 10.992 22.1714 11.2273C22.4739 11.4458 22.7259 11.7147 22.9276 12.034C23.1293 12.3533 23.2301 12.7062 23.2301 13.0927C23.3141 13.2271 23.2301 13.4204 22.978 13.6725C22.7427 13.9246 22.415 14.2019 21.9949 14.5043C21.5748 14.79 21.0958 15.0925 20.5581 15.4118C20.0371 15.7143 19.5329 16 19.0456 16.2689C18.5582 16.5378 18.1297 16.7731 17.76 16.9747C17.3902 17.1764 17.1466 17.3276 17.0289 17.4285C16.9449 17.5965 16.8777 17.7898 16.8273 18.0083C16.7769 18.2267 16.7348 18.4368 16.7012 18.6385C16.6844 18.8233 16.6676 18.9998 16.6508 19.1678C16.6508 19.3191 16.6508 19.4367 16.6508 19.5207C16.6508 19.84 16.634 20.193 16.6004 20.5795C16.5836 20.966 16.6004 21.3357 16.6508 21.6886C16.718 22.0247 16.8609 22.3104 17.0793 22.5457C17.2978 22.7642 17.6675 22.8734 18.1885 22.8734C18.7431 22.8734 19.264 22.739 19.7514 22.4701C20.2387 22.1844 20.6925 21.8399 21.1126 21.4365C21.5328 21.0332 21.9109 20.5963 22.247 20.1257C22.5999 19.6552 22.9108 19.2182 23.1797 18.8149C23.4654 18.3948 23.7175 18.0503 23.9359 17.7814C24.1544 17.5125 24.3392 17.3781 24.4905 17.3781C24.6586 17.3781 24.835 17.4117 25.0199 17.4789C25.2215 17.5293 25.3224 17.6637 25.3224 17.8822C25.3224 18.1847 25.1963 18.546 24.9442 18.9662C24.709 19.3863 24.3897 19.8316 23.9863 20.3022C23.5998 20.7727 23.1461 21.2433 22.6251 21.7138C22.1209 22.1676 21.6084 22.5793 21.0874 22.949C20.5665 23.3019 20.0539 23.596 19.5497 23.8313C19.0456 24.0498 18.6002 24.159 18.2137 24.159C17.4575 24.159 16.8861 23.9741 16.4996 23.6044C16.113 23.2347 15.8358 22.7726 15.6677 22.218C15.5165 21.6634 15.4324 21.0752 15.4156 20.4534C15.4156 19.8148 15.4072 19.2266 15.3904 18.6889ZM20.0287 11.8827C19.743 11.8827 19.4405 12.0256 19.1212 12.3113C18.8019 12.5801 18.4994 12.9162 18.2137 13.3196C17.9448 13.7061 17.7179 14.1094 17.5331 14.5296C17.365 14.9329 17.281 15.269 17.281 15.5379C17.5331 15.5379 17.8944 15.4454 18.365 15.2606C18.8523 15.0589 19.3313 14.8152 19.8018 14.5296C20.2724 14.2439 20.6841 13.9414 21.037 13.6221C21.3899 13.3028 21.5664 13.0003 21.5664 12.7146C21.5664 12.5633 21.5076 12.4373 21.3899 12.3365C21.2723 12.2356 21.1294 12.1516 20.9614 12.0844C20.8101 12.0172 20.6505 11.9667 20.4824 11.9331C20.3144 11.8995 20.1631 11.8827 20.0287 11.8827Z" fill="#333333"></path>
<path d="M27.2634 13.37C27.0953 13.454 26.9357 13.5464 26.7844 13.6473C26.65 13.7313 26.5155 13.8153 26.3811 13.8994C26.2467 13.9666 26.1122 14.017 25.9778 14.0506C25.8433 14.0842 25.7005 14.0842 25.5492 14.0506C25.4484 14.0506 25.3644 13.9918 25.2972 13.8741C25.2299 13.7397 25.1795 13.5969 25.1459 13.4456C25.0955 13.2776 25.0619 13.1179 25.0451 12.9667C25.0283 12.7986 25.0283 12.6726 25.0451 12.5885L27.465 11.2021L27.6163 4.74885C27.6499 4.53038 27.7843 4.44636 28.0196 4.49677C28.2549 4.53038 28.4986 4.5808 28.7506 4.64802C28.7843 4.64802 28.8347 4.66483 28.9019 4.69844C28.9859 4.71524 29.0447 4.73205 29.0784 4.74885C29.0447 5.2026 29.0027 5.69835 28.9523 6.23612C28.9187 6.75709 28.8851 7.28646 28.8515 7.82423C28.8179 8.34519 28.7927 8.85776 28.7759 9.36192C28.7759 9.86608 28.8011 10.3198 28.8515 10.7231L32.6327 9.66441C32.6999 9.64761 32.7503 9.69802 32.7839 9.81566C32.8343 9.91649 32.8764 10.0425 32.91 10.1938C32.9604 10.345 32.994 10.4963 33.0108 10.6475C33.0276 10.7988 33.036 10.8744 33.036 10.8744L28.7506 12.6894C28.7506 12.8406 28.7591 13.2019 28.7759 13.7733C28.8095 14.3447 28.8431 15.0253 28.8767 15.8152C28.9103 16.5882 28.9439 17.4285 28.9775 18.336C29.0111 19.2266 29.0447 20.0585 29.0784 20.8316C29.112 21.6046 29.1372 22.2852 29.154 22.8734C29.1708 23.4448 29.1792 23.8061 29.1792 23.9573C29.1456 24.4615 28.9943 24.7136 28.7254 24.7136C28.4734 24.7136 28.1961 24.5875 27.8936 24.3355L27.2634 13.37Z" fill="#333333"></path>
<path d="M34.3468 14.4539C34.33 14.3195 34.3048 14.1094 34.2712 13.8237C34.2376 13.5212 34.1956 13.1935 34.1452 12.8406C34.1115 12.4877 34.0695 12.1096 34.0191 11.7063C33.9687 11.3029 33.9183 10.9248 33.8679 10.5719C33.8343 10.2022 33.8007 9.87448 33.767 9.58879C33.7334 9.3031 33.7082 9.09303 33.6914 8.95859V8.78213C33.6914 8.56366 33.7334 8.3704 33.8175 8.20235C33.9183 8.03429 34.0863 7.95027 34.3216 7.95027C34.5905 7.95027 34.8006 8.0595 34.9518 8.27797C35.1031 8.49644 35.2123 8.76533 35.2795 9.08463C35.3635 9.40393 35.414 9.75684 35.4308 10.1434C35.4476 10.5299 35.4476 10.8996 35.4308 11.2525C35.4308 11.6054 35.414 11.9163 35.3804 12.1852C35.3635 12.4373 35.3551 12.6053 35.3551 12.6894V13.2439C35.3551 13.496 35.3467 13.7733 35.3299 14.0758C35.3299 14.3615 35.3215 14.6304 35.3047 14.8825C35.3047 15.1345 35.3047 15.311 35.3047 15.4118C35.0526 15.395 34.8342 15.2942 34.6493 15.1093C34.4813 14.9245 34.3804 14.706 34.3468 14.4539Z" fill="#333333"></path>
<path d="M39.5145 23.7557C39.5145 23.7725 39.6909 23.6717 40.0438 23.4532C40.4135 23.2347 40.8421 22.949 41.3294 22.5961C41.8336 22.2264 42.3462 21.8315 42.8671 21.4113C43.3881 20.9744 43.8166 20.5627 44.1527 20.1761C44.4888 19.7896 44.6653 19.4619 44.6821 19.193C44.7157 18.9073 44.4888 18.7225 44.0015 18.6385C43.3965 18.5544 42.8839 18.5628 42.4638 18.6637C42.0605 18.7645 41.6908 18.8821 41.3546 19.0166C41.0185 19.151 40.6992 19.2771 40.3967 19.3947C40.1111 19.5123 39.7918 19.5543 39.4388 19.5207C38.6994 19.5207 38.1868 19.2939 37.9011 18.8401C37.6323 18.3696 37.4978 17.7394 37.4978 16.9495C37.4978 16.1597 37.6743 15.4118 38.0272 14.706C38.3801 13.9834 38.8338 13.3616 39.3884 12.8406C39.943 12.3197 40.5816 11.9079 41.3042 11.6054C42.0269 11.2861 42.7663 11.1265 43.5225 11.1265C43.825 11.1265 44.0855 11.1517 44.304 11.2021C44.5224 11.2525 44.6317 11.4458 44.6317 11.7819C44.6317 12.0172 44.5309 12.244 44.3292 12.4625C44.1275 12.6642 43.9007 12.765 43.6486 12.765C43.6318 12.765 43.5898 12.7566 43.5225 12.7398C43.4553 12.7062 43.3881 12.6642 43.3209 12.6137C43.2536 12.5633 43.1864 12.5297 43.1192 12.5129C43.052 12.4793 43.01 12.4625 42.9932 12.4625C42.4554 12.3113 41.9344 12.3869 41.4303 12.6894C40.9261 12.9919 40.4724 13.4036 40.069 13.9246C39.6825 14.4287 39.3716 14.9833 39.1363 15.5883C38.9011 16.1765 38.7834 16.7058 38.7834 17.1764C38.7834 17.3613 38.817 17.5125 38.8843 17.6301C38.9683 17.731 39.0691 17.8066 39.1868 17.857C39.3212 17.9074 39.464 17.941 39.6153 17.9578C39.7833 17.9578 39.9514 17.9578 40.1195 17.9578C40.4556 17.9578 40.7917 17.9074 41.1278 17.8066C41.4807 17.7058 41.8168 17.5881 42.1361 17.4537C42.4722 17.3192 42.8083 17.2016 43.1444 17.1008C43.4973 16.9999 43.8586 16.9495 44.2284 16.9495C44.3964 16.9495 44.5813 16.9999 44.7829 17.1008C44.9846 17.1848 45.1695 17.3192 45.3375 17.5041C45.5056 17.6722 45.6484 17.8738 45.766 18.1091C45.8837 18.3276 45.9509 18.5712 45.9677 18.8401C46.0685 19.0754 46.0349 19.3863 45.8669 19.7728C45.7156 20.1593 45.4804 20.5711 45.1611 21.008C44.8418 21.4449 44.4552 21.8903 44.0015 22.344C43.5477 22.781 43.094 23.1843 42.6403 23.554C42.1865 23.9069 41.7412 24.1926 41.3042 24.4111C40.8673 24.6464 40.4976 24.7556 40.1951 24.7388C39.859 24.7388 39.6573 24.638 39.5901 24.4363C39.5397 24.2346 39.5145 24.0078 39.5145 23.7557Z" fill="#333333"></path>
<path d="M81.8135 19.6216C81.8135 19.0838 81.8639 18.3528 81.9647 17.4285C82.0824 16.5042 82.2504 15.5127 82.4689 14.4539C82.7042 13.3952 82.9899 12.3281 83.326 11.2525C83.6621 10.1602 84.057 9.17706 84.5107 8.30318C84.9813 7.4293 85.5107 6.71508 86.0988 6.1605C86.7038 5.60592 87.3676 5.32864 88.0903 5.32864C88.5104 5.32864 88.8633 5.40426 89.149 5.55551C89.4515 5.70676 89.6952 5.91682 89.88 6.18571C90.0817 6.43779 90.2245 6.73188 90.3086 7.06799C90.4094 7.38729 90.4598 7.7402 90.4598 8.12672C90.1573 8.12672 89.9137 8.0511 89.7288 7.89985C89.5439 7.7318 89.3759 7.55534 89.2246 7.37048C89.0734 7.18563 88.9137 7.01757 88.7457 6.86632C88.5944 6.69827 88.3844 6.61424 88.1155 6.61424C87.5777 6.61424 87.0819 6.87473 86.6282 7.39569C86.1745 7.89985 85.7627 8.54686 85.393 9.33671C85.0233 10.1266 84.6956 11.0088 84.4099 11.9835C84.1242 12.9415 83.8805 13.8826 83.6789 14.8068C83.494 15.7143 83.3512 16.5462 83.2503 17.3024C83.1495 18.0419 83.0991 18.5964 83.0991 18.9662C83.0991 19.4535 83.1243 19.9325 83.1747 20.403C83.2251 20.8568 83.3344 21.2685 83.5024 21.6382C83.6705 22.0079 83.9141 22.3104 84.2334 22.5457C84.5527 22.7642 85.0065 22.8734 85.5947 22.8734C86.2669 22.8734 86.9307 22.6549 87.5861 22.218C88.2583 21.7811 88.8801 21.2517 89.4515 20.6299C90.0229 19.9913 90.5186 19.3191 90.9388 18.6133C91.3589 17.8906 91.6614 17.2604 91.8463 16.7227C91.8799 16.7058 91.9555 16.6974 92.0731 16.6974C92.1908 16.6806 92.2664 16.6722 92.3 16.6722C92.5017 16.6722 92.6865 16.6974 92.8546 16.7479C93.0394 16.7815 93.1319 16.9327 93.1319 17.2016C93.031 17.7394 92.7958 18.3108 92.426 18.9157C92.0563 19.5039 91.6194 20.0837 91.1152 20.6551C90.6111 21.2265 90.0565 21.7558 89.4515 22.2432C88.8465 22.7306 88.2583 23.1423 87.6869 23.4784C87.1156 23.8145 86.5862 24.0414 86.0988 24.159C85.6115 24.2935 85.2166 24.285 84.9141 24.1338C84.3595 24.1338 83.8805 23.9826 83.4772 23.6801C83.0907 23.3608 82.7714 22.9742 82.5193 22.5205C82.284 22.0667 82.1076 21.5794 81.9899 21.0584C81.8723 20.5375 81.8135 20.0585 81.8135 19.6216Z" fill="#333333"></path>
<path d="M94.3923 20.6803C94.2746 19.9073 94.2158 19.1594 94.2158 18.4368C94.2158 17.6974 94.2578 16.9495 94.3419 16.1933C94.4427 15.437 94.5771 14.6556 94.7452 13.8489C94.93 13.0255 95.1401 12.1432 95.3754 11.2021C95.3754 11.0172 95.4258 10.8492 95.5266 10.6979C95.6275 10.5299 95.7619 10.3954 95.93 10.2946C96.098 10.177 96.2745 10.0845 96.4593 10.0173C96.6442 9.9501 96.8206 9.91649 96.9887 9.91649C97.3584 9.91649 97.6945 10.0341 97.997 10.2694C98.2995 10.5047 98.5684 10.7904 98.8037 11.1265C99.0557 11.4626 99.2658 11.8239 99.4339 12.2104C99.6187 12.5801 99.77 12.8994 99.8876 13.1683C100.022 13.7565 100.114 14.4287 100.165 15.185C100.232 15.9244 100.241 16.6806 100.19 17.4537C100.14 18.2267 100.022 18.9914 99.8372 19.7476C99.6523 20.487 99.3919 21.1677 99.0557 21.7895C98.7196 22.4113 98.2827 22.9322 97.7449 23.3524C97.224 23.7725 96.6022 24.033 95.8795 24.1338C95.493 24.1338 95.1989 24.0078 94.9973 23.7557C94.7956 23.4868 94.6443 23.1675 94.5435 22.7978C94.4595 22.4113 94.4091 22.0247 94.3923 21.6382C94.3923 21.2517 94.3923 20.9324 94.3923 20.6803ZM95.6779 20.6047C95.6779 20.7727 95.6779 20.9324 95.6779 21.0836C95.6947 21.2349 95.7115 21.3861 95.7283 21.5374C95.7619 21.6718 95.7955 21.8231 95.8291 21.9911C95.8795 22.1424 95.9384 22.3188 96.0056 22.5205H96.1568C96.5602 22.5205 96.9047 22.386 97.1904 22.1172C97.476 21.8483 97.7197 21.5038 97.9214 21.0836C98.1231 20.6467 98.2911 20.1677 98.4255 19.6468C98.56 19.109 98.6608 18.588 98.728 18.0839C98.8121 17.5629 98.8625 17.084 98.8793 16.647C98.9129 16.1933 98.9297 15.832 98.9297 15.5631V15.0589C98.9297 14.8405 98.9213 14.5968 98.9045 14.3279C98.8877 14.0422 98.8541 13.7565 98.8037 13.4708C98.7701 13.1683 98.7112 12.8994 98.6272 12.6642C98.5432 12.4121 98.434 12.2104 98.2995 12.0592C98.1651 11.9079 97.9886 11.8323 97.7701 11.8323C97.4004 11.7147 97.0811 11.7399 96.8122 11.9079C96.5602 12.076 96.3501 12.3617 96.182 12.765C96.0308 13.1515 95.9132 13.6305 95.8291 14.2019C95.7451 14.7732 95.6947 15.4034 95.6779 16.0925C95.6611 16.7815 95.6527 17.5125 95.6527 18.2855C95.6695 19.0586 95.6779 19.8316 95.6779 20.6047Z" fill="#333333"></path>
<path d="M101.274 20.6803C101.156 19.9073 101.098 19.1594 101.098 18.4368C101.098 17.6974 101.14 16.9495 101.224 16.1933C101.324 15.437 101.459 14.6556 101.627 13.8489C101.812 13.0255 102.022 12.1432 102.257 11.2021C102.257 11.0172 102.308 10.8492 102.408 10.6979C102.509 10.5299 102.644 10.3954 102.812 10.2946C102.98 10.177 103.156 10.0845 103.341 10.0173C103.526 9.9501 103.702 9.91649 103.87 9.91649C104.24 9.91649 104.576 10.0341 104.879 10.2694C105.181 10.5047 105.45 10.7904 105.685 11.1265C105.938 11.4626 106.148 11.8239 106.316 12.2104C106.501 12.5801 106.652 12.8994 106.769 13.1683C106.904 13.7565 106.996 14.4287 107.047 15.185C107.114 15.9244 107.122 16.6806 107.072 17.4537C107.021 18.2267 106.904 18.9914 106.719 19.7476C106.534 20.487 106.274 21.1677 105.938 21.7895C105.601 22.4113 105.164 22.9322 104.627 23.3524C104.106 23.7725 103.484 24.033 102.761 24.1338C102.375 24.1338 102.081 24.0078 101.879 23.7557C101.677 23.4868 101.526 23.1675 101.425 22.7978C101.341 22.4113 101.291 22.0247 101.274 21.6382C101.274 21.2517 101.274 20.9324 101.274 20.6803ZM102.56 20.6047C102.56 20.7727 102.56 20.9324 102.56 21.0836C102.576 21.2349 102.593 21.3861 102.61 21.5374C102.644 21.6718 102.677 21.8231 102.711 21.9911C102.761 22.1424 102.82 22.3188 102.887 22.5205H103.039C103.442 22.5205 103.786 22.386 104.072 22.1172C104.358 21.8483 104.602 21.5038 104.803 21.0836C105.005 20.6467 105.173 20.1677 105.307 19.6468C105.442 19.109 105.543 18.588 105.61 18.0839C105.694 17.5629 105.744 17.084 105.761 16.647C105.795 16.1933 105.811 15.832 105.811 15.5631V15.0589C105.811 14.8405 105.803 14.5968 105.786 14.3279C105.769 14.0422 105.736 13.7565 105.685 13.4708C105.652 13.1683 105.593 12.8994 105.509 12.6642C105.425 12.4121 105.316 12.2104 105.181 12.0592C105.047 11.9079 104.87 11.8323 104.652 11.8323C104.282 11.7147 103.963 11.7399 103.694 11.9079C103.442 12.076 103.232 12.3617 103.064 12.765C102.913 13.1515 102.795 13.6305 102.711 14.2019C102.627 14.7732 102.576 15.4034 102.56 16.0925C102.543 16.7815 102.534 17.5125 102.534 18.2855C102.551 19.0586 102.56 19.8316 102.56 20.6047Z" fill="#333333"></path>
<path d="M108.912 4.77406C109.265 4.43795 109.542 4.30351 109.744 4.37073C109.962 4.43795 110.122 4.66483 110.223 5.05135C110.324 5.43787 110.383 5.94203 110.399 6.56383C110.416 7.18563 110.408 7.89145 110.374 8.6813C110.357 9.45435 110.315 10.2778 110.248 11.1517C110.181 12.0088 110.122 12.8574 110.072 13.6977C110.021 14.5212 109.988 15.311 109.971 16.0672C109.954 16.8235 109.979 17.4789 110.046 18.0335H110.122C110.156 18.0335 110.181 18.0251 110.198 18.0083C111.072 17.1344 111.853 16.2101 112.542 15.2354C113.231 14.2607 113.853 13.3448 114.407 12.4877C114.962 11.6138 115.449 10.8576 115.869 10.219C116.306 9.58039 116.71 9.14345 117.079 8.90817C117.332 8.90817 117.542 8.95019 117.71 9.03421C117.895 9.11824 117.987 9.3115 117.987 9.614C117.987 9.64761 117.979 9.70643 117.962 9.79045C117.962 9.85767 117.962 9.90809 117.962 9.9417C117.542 10.7988 117.079 11.6642 116.575 12.5381C116.071 13.3952 115.525 14.2271 114.937 15.0337C114.349 15.8404 113.71 16.605 113.021 17.3276C112.349 18.0503 111.618 18.7057 110.828 19.2939C110.828 19.3107 110.819 19.3443 110.803 19.3947C110.803 19.4283 110.803 19.4535 110.803 19.4703C110.803 19.6384 110.937 19.8232 111.206 20.0249C111.492 20.2266 111.845 20.4198 112.265 20.6047C112.702 20.7895 113.181 20.9744 113.702 21.1593C114.239 21.3441 114.76 21.5038 115.264 21.6382C115.785 21.7727 116.264 21.8819 116.701 21.9659C117.155 22.0499 117.508 22.092 117.76 22.092C117.76 22.1592 117.76 22.2852 117.76 22.4701C117.777 22.6549 117.768 22.8482 117.735 23.0499C117.701 23.2515 117.642 23.4364 117.558 23.6044C117.474 23.7557 117.34 23.8313 117.155 23.8313H117.054C117.021 23.8313 116.995 23.8229 116.979 23.8061L109.769 20.9072C109.752 21.8987 109.685 22.7053 109.567 23.3271C109.45 23.9321 109.307 24.3775 109.139 24.6632C108.988 24.9657 108.82 25.1085 108.635 25.0917C108.467 25.0749 108.315 24.9405 108.181 24.6884L108.912 4.77406Z" fill="#333333"></path>
<defs>
<clipPath id="62865732-90d3-4b59-a98c-3718416c4289clip0_7_2408">
<rect width="28.5787" height="28.5787" fill="white" transform="translate(49.2698 0.164627)"></rect>
</clipPath>
</defs>
</svg>